<svg width="500" height="500" viewBox="0 0 500 500" fill="none" xmlns="http://www.w3.org/2000/svg">
<path d="M323.5 230.373C323.5 340.554 410.485 429.873 323.5 429.873C236.515 429.873 107 319.681 107 209.5C107 99.3192 236.515 30.873 323.5 30.873C410.485 30.873 323.5 120.192 323.5 230.373Z" fill="#F0FDFF"/>
<path d="M442.525 111.921C442.525 107.839 439.186 104.5 435.104 104.5H80.8961C76.8141 104.5 73.4751 107.84 73.4751 111.921V135.857H442.525V111.921Z" fill="#144293"/>
<path d="M443.499 350.913H72.501C68.226 350.913 64.728 347.415 64.728 343.14V116.78C64.728 112.505 68.226 109.007 72.501 109.007H443.5C447.775 109.007 451.273 112.505 451.273 116.78V343.14C451.272 347.415 447.775 350.913 443.499 350.913Z" fill="#FDFDFD"/>
<path d="M451.272 116.78C451.272 112.505 447.774 109.007 443.499 109.007H72.501C68.226 109.007 64.728 112.505 64.728 116.78V141.851H451.273V116.78H451.272Z" fill="#0097B2"/>
<path d="M225.67 160.903H222.397V150.297H225.815C226.844 150.297 227.724 150.509 228.456 150.934C229.188 151.355 229.749 151.961 230.139 152.752C230.529 153.539 230.725 154.481 230.725 155.579C230.725 156.684 230.528 157.635 230.134 158.433C229.741 159.227 229.167 159.838 228.415 160.266C227.662 160.691 226.747 160.903 225.67 160.903ZM223.681 159.764H225.587C226.464 159.764 227.191 159.595 227.767 159.256C228.344 158.918 228.774 158.436 229.057 157.811C229.34 157.187 229.482 156.442 229.482 155.579C229.482 154.723 229.342 153.986 229.062 153.368C228.782 152.746 228.365 152.27 227.809 151.938C227.253 151.604 226.561 151.436 225.732 151.436H223.681V159.764ZM232.879 160.903V150.297H239.28V151.436H234.163V155.02H238.949V156.159H234.163V159.764H239.363V160.903H232.879ZM250.13 153.611H248.846C248.77 153.242 248.637 152.917 248.447 152.638C248.261 152.358 248.033 152.123 247.764 151.933C247.498 151.74 247.202 151.595 246.878 151.498C246.553 151.402 246.215 151.353 245.863 151.353C245.221 151.353 244.639 151.515 244.117 151.84C243.6 152.165 243.187 152.643 242.88 153.275C242.576 153.906 242.424 154.682 242.424 155.6C242.424 156.518 242.576 157.294 242.88 157.925C243.187 158.557 243.6 159.035 244.117 159.36C244.639 159.685 245.221 159.847 245.863 159.847C246.215 159.847 246.553 159.798 246.878 159.702C247.202 159.605 247.498 159.462 247.764 159.272C248.033 159.079 248.261 158.842 248.447 158.562C248.637 158.279 248.77 157.955 248.846 157.589H250.13C250.034 158.131 249.858 158.616 249.602 159.044C249.347 159.472 249.029 159.836 248.649 160.137C248.269 160.434 247.843 160.66 247.37 160.815C246.9 160.971 246.398 161.048 245.863 161.048C244.958 161.048 244.154 160.827 243.449 160.385C242.745 159.943 242.191 159.315 241.787 158.5C241.383 157.685 241.181 156.719 241.181 155.6C241.181 154.481 241.383 153.515 241.787 152.7C242.191 151.885 242.745 151.257 243.449 150.815C244.154 150.373 244.958 150.152 245.863 150.152C246.398 150.152 246.9 150.229 247.37 150.385C247.843 150.54 248.269 150.768 248.649 151.068C249.029 151.365 249.347 151.728 249.602 152.156C249.858 152.581 250.034 153.066 250.13 153.611ZM252.206 160.903V150.297H258.607V151.436H253.49V155.02H258.276V156.159H253.49V159.764H258.69V160.903H252.206ZM260.922 150.297H262.455L266.06 159.101H266.184L269.789 150.297H271.322V160.903H270.12V152.845H270.016L266.702 160.903H265.542L262.227 152.845H262.124V160.903H260.922V150.297ZM273.897 160.903V150.297H277.605C278.344 150.297 278.953 150.424 279.433 150.68C279.913 150.932 280.27 151.272 280.505 151.7C280.74 152.125 280.857 152.596 280.857 153.114C280.857 153.57 280.776 153.946 280.614 154.243C280.455 154.54 280.245 154.775 279.982 154.947C279.723 155.12 279.442 155.248 279.138 155.331V155.434C279.463 155.455 279.789 155.569 280.117 155.776C280.445 155.983 280.719 156.28 280.94 156.667C281.161 157.054 281.272 157.527 281.272 158.086C281.272 158.618 281.151 159.096 280.909 159.521C280.667 159.945 280.286 160.282 279.765 160.53C279.243 160.779 278.565 160.903 277.729 160.903H273.897ZM275.181 159.764H277.729C278.568 159.764 279.164 159.602 279.516 159.277C279.872 158.949 280.049 158.552 280.049 158.086C280.049 157.727 279.958 157.395 279.775 157.092C279.592 156.784 279.331 156.539 278.993 156.356C278.655 156.17 278.254 156.076 277.791 156.076H275.181V159.764ZM275.181 154.958H277.564C277.95 154.958 278.299 154.882 278.61 154.73C278.924 154.578 279.172 154.364 279.355 154.088C279.542 153.812 279.635 153.487 279.635 153.114C279.635 152.648 279.473 152.253 279.148 151.928C278.824 151.6 278.309 151.436 277.605 151.436H275.181V154.958ZM283.382 160.903V150.297H289.783V151.436H284.667V155.02H289.452V156.159H284.667V159.764H289.866V160.903H283.382ZM292.098 160.903V150.297H295.682C296.511 150.297 297.191 150.438 297.723 150.721C298.255 151.001 298.648 151.386 298.904 151.876C299.159 152.367 299.287 152.924 299.287 153.549C299.287 154.174 299.159 154.728 298.904 155.212C298.648 155.695 298.256 156.075 297.728 156.351C297.2 156.624 296.525 156.76 295.703 156.76H292.803V155.6H295.662C296.228 155.6 296.684 155.517 297.029 155.351C297.378 155.186 297.63 154.951 297.785 154.647C297.944 154.34 298.023 153.974 298.023 153.549C298.023 153.124 297.944 152.753 297.785 152.436C297.626 152.118 297.372 151.873 297.024 151.7C296.675 151.524 296.214 151.436 295.641 151.436H293.383V160.903H292.098ZM297.091 156.139L299.701 160.903H298.21L295.641 156.139H297.091Z" fill="#3C303A"/>
<path d="M190.29 197.794H146.019V231.552H190.29V197.794Z" fill="#0097B2"/>
<path d="M410.509 232.049H368.121V265.807H410.509V232.049Z" fill="#0097B2"/>
<path d="M368.158 265.616H323.887V299.374H368.158V265.616Z" fill="#FBB040"/>
<path d="M410.223 172.321H105.702V327.312H410.223V172.321Z" stroke="#CFC3B6" stroke-miterlimit="10"/>
<path d="M146.047 172.297V326.97" stroke="#CFC3B6" stroke-miterlimit="10"/>
<path d="M190.449 172.297V326.97" stroke="#CFC3B6" stroke-miterlimit="10"/>
<path d="M234.85 172.297V326.97" stroke="#CFC3B6" stroke-miterlimit="10"/>
<path d="M279.251 172.297V326.97" stroke="#CFC3B6" stroke-miterlimit="10"/>
<path d="M323.652 172.297V326.97" stroke="#CFC3B6" stroke-miterlimit="10"/>
<path d="M368.053 172.297V326.97" stroke="#CFC3B6" stroke-miterlimit="10"/>
<path d="M105.492 197.784H410.096" stroke="#CFC3B6" stroke-miterlimit="10"/>
<path d="M105.492 231.729H410.096" stroke="#CFC3B6" stroke-miterlimit="10"/>
<path d="M105.492 265.673H410.096" stroke="#CFC3B6" stroke-miterlimit="10"/>
<path d="M105.492 299.617H410.096" stroke="#CFC3B6" stroke-miterlimit="10"/>
<path d="M225.306 305.721H194.222C193.545 305.721 192.991 305.167 192.991 304.49C192.991 303.813 193.545 303.259 194.222 303.259H225.306C225.983 303.259 226.537 303.813 226.537 304.49C226.537 305.167 225.983 305.721 225.306 305.721Z" fill="#CFC3B6"/>
<path d="M180.778 271.259H149.694C149.017 271.259 148.463 270.705 148.463 270.028C148.463 269.351 149.017 268.797 149.694 268.797H180.778C181.455 268.797 182.009 269.351 182.009 270.028C182.009 270.705 181.455 271.259 180.778 271.259Z" fill="#CFC3B6"/>
<path d="M268.769 270.667H237.685C237.008 270.667 236.454 270.113 236.454 269.436C236.454 268.759 237.008 268.205 237.685 268.205H268.769C269.446 268.205 270 268.759 270 269.436C270 270.112 269.446 270.667 268.769 270.667Z" fill="#CFC3B6"/>
<path d="M313.415 202.097H282.331C281.654 202.097 281.1 201.543 281.1 200.866C281.1 200.189 281.654 199.635 282.331 199.635H313.415C314.092 199.635 314.646 200.189 314.646 200.866C314.647 201.543 314.093 202.097 313.415 202.097Z" fill="#CFC3B6"/>
<path d="M224.674 237.151H193.59C192.913 237.151 192.359 236.597 192.359 235.92C192.359 235.243 192.913 234.689 193.59 234.689H224.674C225.351 234.689 225.905 235.243 225.905 235.92C225.905 236.597 225.352 237.151 224.674 237.151Z" fill="#CFC3B6"/>
<path d="M358.576 271.259H327.492C326.815 271.259 326.261 270.705 326.261 270.028C326.261 269.351 326.815 268.797 327.492 268.797H358.576C359.253 268.797 359.807 269.351 359.807 270.028C359.807 270.705 359.253 271.259 358.576 271.259Z" fill="#FDFDFD"/>
<path d="M181.725 203.992H150.641C149.964 203.992 149.41 203.438 149.41 202.761C149.41 202.084 149.964 201.53 150.641 201.53H181.725C182.402 201.53 182.956 202.084 182.956 202.761C182.956 203.438 182.402 203.992 181.725 203.992Z" fill="#FDFDFD"/>
<path d="M313.415 236.915H282.331C281.654 236.915 281.1 236.361 281.1 235.684C281.1 235.007 281.654 234.453 282.331 234.453H313.415C314.092 234.453 314.646 235.007 314.646 235.684C314.647 236.361 314.093 236.915 313.415 236.915Z" fill="#CFC3B6"/>
<path d="M313.415 241.178H282.331C281.654 241.178 281.1 240.624 281.1 239.947C281.1 239.27 281.654 238.716 282.331 238.716H313.415C314.092 238.716 314.646 239.27 314.646 239.947C314.647 240.624 314.093 241.178 313.415 241.178Z" fill="#CFC3B6"/>
<path d="M402.157 202.334H371.073C370.396 202.334 369.842 201.78 369.842 201.103C369.842 200.426 370.396 199.872 371.073 199.872H402.157C402.834 199.872 403.388 200.426 403.388 201.103C403.388 201.78 402.834 202.334 402.157 202.334Z" fill="#CFC3B6"/>
<path d="M402.157 206.124H371.073C370.396 206.124 369.842 205.57 369.842 204.893C369.842 204.216 370.396 203.662 371.073 203.662H402.157C402.834 203.662 403.388 204.216 403.388 204.893C403.388 205.57 402.834 206.124 402.157 206.124Z" fill="#CFC3B6"/>
<path d="M181.725 178.649H150.641C149.964 178.649 149.41 178.095 149.41 177.418C149.41 176.741 149.964 176.187 150.641 176.187H181.725C182.402 176.187 182.956 176.741 182.956 177.418C182.956 178.095 182.402 178.649 181.725 178.649Z" fill="#CFC3B6"/>
<path d="M402.157 271.496H371.073C370.396 271.496 369.842 270.942 369.842 270.265C369.842 269.588 370.396 269.034 371.073 269.034H402.157C402.834 269.034 403.388 269.588 403.388 270.265C403.388 270.941 402.834 271.496 402.157 271.496Z" fill="#CFC3B6"/>
<path d="M402.157 304.654H371.073C370.396 304.654 369.842 304.1 369.842 303.423C369.842 302.746 370.396 302.192 371.073 302.192H402.157C402.834 302.192 403.388 302.746 403.388 303.423C403.388 304.1 402.834 304.654 402.157 304.654Z" fill="#CFC3B6"/>
<path d="M218.484 219.698C218.385 219.698 218.285 219.682 218.186 219.649C212.836 217.845 207.78 214.906 203.566 211.15C203.181 210.808 203.147 210.218 203.49 209.834C203.832 209.449 204.422 209.415 204.806 209.758C208.835 213.348 213.668 216.158 218.782 217.883C219.27 218.048 219.532 218.577 219.367 219.065C219.236 219.453 218.873 219.698 218.484 219.698Z" fill="#E23B44"/>
<path d="M205.774 219.802C205.484 219.802 205.197 219.667 205.015 219.412C204.715 218.994 204.812 218.411 205.23 218.111C208.813 215.545 212.164 212.617 215.188 209.409C215.541 209.035 216.132 209.017 216.506 209.37C216.881 209.723 216.898 210.313 216.545 210.688C213.438 213.983 209.996 216.991 206.316 219.627C206.151 219.745 205.962 219.802 205.774 219.802Z" fill="#E23B44"/>
<path d="M133.122 318.85C133.023 318.85 132.923 318.834 132.824 318.801C127.474 316.996 122.418 314.058 118.204 310.301C117.819 309.959 117.785 309.369 118.128 308.985C118.47 308.601 119.06 308.566 119.445 308.91C123.474 312.5 128.306 315.31 133.421 317.035C133.909 317.199 134.171 317.728 134.006 318.216C133.874 318.604 133.511 318.85 133.122 318.85Z" fill="#E23B44"/>
<path d="M120.411 318.953C120.121 318.953 119.834 318.818 119.652 318.564C119.352 318.145 119.449 317.563 119.867 317.263C123.452 314.696 126.802 311.768 129.826 308.561C130.179 308.188 130.77 308.17 131.144 308.522C131.519 308.875 131.536 309.465 131.183 309.84C128.077 313.133 124.635 316.141 120.953 318.778C120.789 318.896 120.599 318.953 120.411 318.953Z" fill="#E23B44"/>
<path d="M343.234 221.11C343.01 221.11 342.795 221.012 342.647 220.839L337.581 214.869C337.306 214.545 337.346 214.06 337.67 213.785C337.994 213.51 338.48 213.549 338.754 213.874L343.066 218.955C344.43 216.391 348.347 210.026 354.409 208.208C354.817 208.086 355.245 208.317 355.367 208.724C355.489 209.131 355.258 209.56 354.851 209.682C348.042 211.724 343.975 220.569 343.934 220.659C343.825 220.899 343.601 221.067 343.34 221.104C343.305 221.107 343.269 221.11 343.234 221.11Z" fill="#8DC63F"/>
<path d="M253.861 290.272C253.637 290.272 253.422 290.174 253.274 290.001L248.208 284.031C247.933 283.707 247.973 283.222 248.297 282.947C248.621 282.672 249.107 282.711 249.381 283.036L253.693 288.117C255.057 285.553 258.974 279.188 265.036 277.37C265.444 277.248 265.872 277.479 265.994 277.886C266.116 278.293 265.885 278.722 265.478 278.844C258.669 280.887 254.602 289.731 254.561 289.821C254.452 290.061 254.228 290.229 253.967 290.266C253.932 290.27 253.896 290.272 253.861 290.272Z" fill="#8DC63F"/>
<path d="M306.3 184.591H281.879C281.276 184.591 280.783 184.098 280.783 183.495V183.226C280.783 182.623 281.276 182.13 281.879 182.13H306.3C306.903 182.13 307.396 182.623 307.396 183.226V183.495C307.396 184.098 306.903 184.591 306.3 184.591Z" fill="#CFC3B6"/>
<path d="M84.6261 117.929C84.6261 119.369 83.4591 120.536 82.0191 120.536C80.5791 120.536 79.4121 119.369 79.4121 117.929C79.4121 116.489 80.5791 115.322 82.0191 115.322C83.4591 115.322 84.6261 116.489 84.6261 117.929Z" fill="#1A4EAA"/>
<path d="M82.019 118.622C81.057 118.622 80.27 117.835 80.27 116.873V96.5449C80.27 95.5829 81.057 94.7959 82.019 94.7959C82.981 94.7959 83.768 95.5829 83.768 96.5449V116.873C83.768 117.835 82.981 118.622 82.019 118.622Z" fill="white"/>
<path d="M93.8619 117.929C93.8619 119.369 92.6949 120.536 91.2549 120.536C89.8149 120.536 88.6479 119.369 88.6479 117.929C88.6479 116.489 89.8149 115.322 91.2549 115.322C92.6949 115.322 93.8619 116.489 93.8619 117.929Z" fill="#1A4EAA"/>
<path d="M91.2549 118.622C90.2929 118.622 89.5059 117.835 89.5059 116.873V96.5449C89.5059 95.5829 90.2929 94.7959 91.2549 94.7959C92.2169 94.7959 93.0039 95.5829 93.0039 96.5449V116.873C93.0039 117.835 92.2169 118.622 91.2549 118.622Z" fill="white"/>
<path d="M103.098 117.929C103.098 119.369 101.931 120.536 100.491 120.536C99.0513 120.536 97.8843 119.369 97.8843 117.929C97.8843 116.489 99.0513 115.322 100.491 115.322C101.931 115.322 103.098 116.489 103.098 117.929Z" fill="#1A4EAA"/>
<path d="M100.491 118.622C99.5292 118.622 98.7422 117.835 98.7422 116.873V96.5449C98.7422 95.5829 99.5292 94.7959 100.491 94.7959C101.453 94.7959 102.24 95.5829 102.24 96.5449V116.873C102.24 117.835 101.453 118.622 100.491 118.622Z" fill="white"/>
<path d="M140.208 117.929C140.208 119.369 139.041 120.536 137.601 120.536C136.161 120.536 134.994 119.369 134.994 117.929C134.994 116.489 136.161 115.322 137.601 115.322C139.04 115.322 140.208 116.489 140.208 117.929Z" fill="#1A4EAA"/>
<path d="M137.601 118.622C136.639 118.622 135.852 117.835 135.852 116.873V96.5449C135.852 95.5829 136.639 94.7959 137.601 94.7959C138.563 94.7959 139.35 95.5829 139.35 96.5449V116.873C139.349 117.835 138.563 118.622 137.601 118.622Z" fill="white"/>
<path d="M149.444 117.929C149.444 119.369 148.277 120.536 146.837 120.536C145.397 120.536 144.23 119.369 144.23 117.929C144.23 116.489 145.397 115.322 146.837 115.322C148.276 115.322 149.444 116.489 149.444 117.929Z" fill="#1A4EAA"/>
<path d="M146.837 118.622C145.875 118.622 145.088 117.835 145.088 116.873V96.5449C145.088 95.5829 145.875 94.7959 146.837 94.7959C147.799 94.7959 148.586 95.5829 148.586 96.5449V116.873C148.585 117.835 147.798 118.622 146.837 118.622Z" fill="white"/>
<path d="M158.68 117.929C158.68 119.369 157.513 120.536 156.073 120.536C154.633 120.536 153.466 119.369 153.466 117.929C153.466 116.489 154.633 115.322 156.073 115.322C157.513 115.322 158.68 116.489 158.68 117.929Z" fill="#1A4EAA"/>
<path d="M156.073 118.622C155.111 118.622 154.324 117.835 154.324 116.873V96.5449C154.324 95.5829 155.111 94.7959 156.073 94.7959C157.035 94.7959 157.822 95.5829 157.822 96.5449V116.873C157.821 117.835 157.035 118.622 156.073 118.622Z" fill="white"/>
<path d="M195.789 117.929C195.789 119.369 194.622 120.536 193.182 120.536C191.742 120.536 190.575 119.369 190.575 117.929C190.575 116.489 191.742 115.322 193.182 115.322C194.622 115.322 195.789 116.489 195.789 117.929Z" fill="#1A4EAA"/>
<path d="M193.182 118.622C192.22 118.622 191.433 117.835 191.433 116.873V96.5449C191.433 95.5829 192.22 94.7959 193.182 94.7959C194.144 94.7959 194.931 95.5829 194.931 96.5449V116.873C194.931 117.835 194.144 118.622 193.182 118.622Z" fill="white"/>
<path d="M205.025 117.929C205.025 119.369 203.858 120.536 202.418 120.536C200.978 120.536 199.811 119.369 199.811 117.929C199.811 116.489 200.978 115.322 202.418 115.322C203.858 115.322 205.025 116.489 205.025 117.929Z" fill="#1A4EAA"/>
<path d="M202.418 118.622C201.456 118.622 200.669 117.835 200.669 116.873V96.5449C200.669 95.5829 201.456 94.7959 202.418 94.7959C203.38 94.7959 204.167 95.5829 204.167 96.5449V116.873C204.167 117.835 203.38 118.622 202.418 118.622Z" fill="white"/>
<path d="M214.261 117.929C214.261 119.369 213.094 120.536 211.654 120.536C210.214 120.536 209.047 119.369 209.047 117.929C209.047 116.489 210.214 115.322 211.654 115.322C213.094 115.322 214.261 116.489 214.261 117.929Z" fill="#1A4EAA"/>
<path d="M211.654 118.622C210.692 118.622 209.905 117.835 209.905 116.873V96.5449C209.905 95.5829 210.692 94.7959 211.654 94.7959C212.616 94.7959 213.403 95.5829 213.403 96.5449V116.873C213.403 117.835 212.616 118.622 211.654 118.622Z" fill="white"/>
<path d="M251.371 117.929C251.371 119.369 250.204 120.536 248.764 120.536C247.324 120.536 246.157 119.369 246.157 117.929C246.157 116.489 247.324 115.322 248.764 115.322C250.204 115.322 251.371 116.489 251.371 117.929Z" fill="#1A4EAA"/>
<path d="M248.764 118.622C247.802 118.622 247.015 117.835 247.015 116.873V96.5449C247.015 95.5829 247.802 94.7959 248.764 94.7959C249.726 94.7959 250.513 95.5829 250.513 96.5449V116.873C250.513 117.835 249.726 118.622 248.764 118.622Z" fill="white"/>
<path d="M260.607 117.929C260.607 119.369 259.44 120.536 258 120.536C256.56 120.536 255.393 119.369 255.393 117.929C255.393 116.489 256.56 115.322 258 115.322C259.44 115.322 260.607 116.489 260.607 117.929Z" fill="#1A4EAA"/>
<path d="M258 118.622C257.038 118.622 256.251 117.835 256.251 116.873V96.5449C256.251 95.5829 257.038 94.7959 258 94.7959C258.962 94.7959 259.749 95.5829 259.749 96.5449V116.873C259.749 117.835 258.962 118.622 258 118.622Z" fill="white"/>
<path d="M269.843 117.929C269.843 119.369 268.676 120.536 267.236 120.536C265.796 120.536 264.629 119.369 264.629 117.929C264.629 116.489 265.796 115.322 267.236 115.322C268.676 115.322 269.843 116.489 269.843 117.929Z" fill="#1A4EAA"/>
<path d="M267.236 118.622C266.274 118.622 265.487 117.835 265.487 116.873V96.5449C265.487 95.5829 266.274 94.7959 267.236 94.7959C268.198 94.7959 268.985 95.5829 268.985 96.5449V116.873C268.985 117.835 268.198 118.622 267.236 118.622Z" fill="white"/>
<path d="M306.952 117.929C306.952 119.369 305.785 120.536 304.345 120.536C302.905 120.536 301.738 119.369 301.738 117.929C301.738 116.489 302.905 115.322 304.345 115.322C305.785 115.322 306.952 116.489 306.952 117.929Z" fill="#1A4EAA"/>
<path d="M304.346 118.622C303.384 118.622 302.597 117.835 302.597 116.873V96.5449C302.597 95.5829 303.384 94.7959 304.346 94.7959C305.308 94.7959 306.095 95.5829 306.095 96.5449V116.873C306.094 117.835 305.307 118.622 304.346 118.622Z" fill="white"/>
<path d="M316.189 117.929C316.189 119.369 315.022 120.536 313.582 120.536C312.142 120.536 310.975 119.369 310.975 117.929C310.975 116.489 312.142 115.322 313.582 115.322C315.021 115.322 316.189 116.489 316.189 117.929Z" fill="#1A4EAA"/>
<path d="M313.582 118.622C312.62 118.622 311.833 117.835 311.833 116.873V96.5449C311.833 95.5829 312.62 94.7959 313.582 94.7959C314.544 94.7959 315.331 95.5829 315.331 96.5449V116.873C315.33 117.835 314.543 118.622 313.582 118.622Z" fill="white"/>
<path d="M325.425 117.929C325.425 119.369 324.258 120.536 322.818 120.536C321.378 120.536 320.211 119.369 320.211 117.929C320.211 116.489 321.378 115.322 322.818 115.322C324.257 115.322 325.425 116.489 325.425 117.929Z" fill="#1A4EAA"/>
<path d="M322.818 118.622C321.856 118.622 321.069 117.835 321.069 116.873V96.5449C321.069 95.5829 321.856 94.7959 322.818 94.7959C323.78 94.7959 324.567 95.5829 324.567 96.5449V116.873C324.566 117.835 323.779 118.622 322.818 118.622Z" fill="white"/>
<path d="M362.534 117.929C362.534 119.369 361.367 120.536 359.927 120.536C358.487 120.536 357.32 119.369 357.32 117.929C357.32 116.489 358.487 115.322 359.927 115.322C361.367 115.322 362.534 116.489 362.534 117.929Z" fill="#1A4EAA"/>
<path d="M359.927 118.622C358.965 118.622 358.178 117.835 358.178 116.873V96.5449C358.178 95.5829 358.965 94.7959 359.927 94.7959C360.889 94.7959 361.676 95.5829 361.676 96.5449V116.873C361.676 117.835 360.889 118.622 359.927 118.622Z" fill="white"/>
<path d="M371.77 117.929C371.77 119.369 370.603 120.536 369.163 120.536C367.723 120.536 366.556 119.369 366.556 117.929C366.556 116.489 367.723 115.322 369.163 115.322C370.603 115.322 371.77 116.489 371.77 117.929Z" fill="#1A4EAA"/>
<path d="M369.163 118.622C368.201 118.622 367.414 117.835 367.414 116.873V96.5449C367.414 95.5829 368.201 94.7959 369.163 94.7959C370.125 94.7959 370.912 95.5829 370.912 96.5449V116.873C370.912 117.835 370.125 118.622 369.163 118.622Z" fill="white"/>
<path d="M381.007 117.929C381.007 119.369 379.839 120.536 378.399 120.536C376.959 120.536 375.792 119.369 375.792 117.929C375.792 116.489 376.959 115.322 378.399 115.322C379.839 115.322 381.007 116.489 381.007 117.929Z" fill="#1A4EAA"/>
<path d="M378.399 118.622C377.437 118.622 376.65 117.835 376.65 116.873V96.5449C376.65 95.5829 377.437 94.7959 378.399 94.7959C379.361 94.7959 380.148 95.5829 380.148 96.5449V116.873C380.148 117.835 379.361 118.622 378.399 118.622Z" fill="white"/>
<path d="M418.116 117.929C418.116 119.369 416.949 120.536 415.509 120.536C414.069 120.536 412.902 119.369 412.902 117.929C412.902 116.489 414.069 115.322 415.509 115.322C416.949 115.322 418.116 116.489 418.116 117.929Z" fill="#1A4EAA"/>
<path d="M415.509 118.622C414.547 118.622 413.76 117.835 413.76 116.873V96.5449C413.76 95.5829 414.547 94.7959 415.509 94.7959C416.471 94.7959 417.258 95.5829 417.258 96.5449V116.873C417.257 117.835 416.471 118.622 415.509 118.622Z" fill="white"/>
<path d="M427.352 117.929C427.352 119.369 426.185 120.536 424.745 120.536C423.305 120.536 422.138 119.369 422.138 117.929C422.138 116.489 423.305 115.322 424.745 115.322C426.185 115.322 427.352 116.489 427.352 117.929Z" fill="#1A4EAA"/>
<path d="M424.745 118.622C423.783 118.622 422.996 117.835 422.996 116.873V96.5449C422.996 95.5829 423.783 94.7959 424.745 94.7959C425.707 94.7959 426.494 95.5829 426.494 96.5449V116.873C426.493 117.835 425.707 118.622 424.745 118.622Z" fill="white"/>
<path d="M436.589 117.929C436.589 119.369 435.422 120.536 433.982 120.536C432.542 120.536 431.375 119.369 431.375 117.929C431.375 116.489 432.542 115.322 433.982 115.322C435.422 115.322 436.589 116.489 436.589 117.929Z" fill="#1A4EAA"/>
<path d="M433.981 118.622C433.019 118.622 432.232 117.835 432.232 116.873V96.5449C432.232 95.5829 433.019 94.7959 433.981 94.7959C434.943 94.7959 435.73 95.5829 435.73 96.5449V116.873C435.729 117.835 434.943 118.622 433.981 118.622Z" fill="white"/>
<path d="M360.747 451.013C388.898 451.013 411.719 448.542 411.719 445.495C411.719 442.447 388.898 439.977 360.747 439.977C332.596 439.977 309.775 442.447 309.775 445.495C309.775 448.542 332.596 451.013 360.747 451.013Z" fill="#E5BDAA"/>
<path d="M368.637 225.077L343.864 216.373L338.3 191.223C330.46 190.592 323.203 194.563 323.203 194.563L329.696 223.912C330.274 226.522 332.159 228.649 334.682 229.535L363.512 239.664C364.36 239.961 365.225 240.103 366.075 240.103C369.265 240.103 372.251 238.113 373.368 234.933C374.783 230.905 372.665 226.492 368.637 225.077Z" fill="#5B93BA"/>
<path opacity="0.6" d="M366.074 240.104C369.264 240.104 372.25 238.114 373.367 234.934C374.782 230.906 372.664 226.493 368.636 225.078L353.762 219.852C353.6 223.316 352.239 229.504 345.177 233.223L363.51 239.664C364.359 239.962 365.224 240.104 366.074 240.104Z" fill="#5B93BA"/>
<path d="M338.3 191.222C330.46 190.591 323.203 194.562 323.203 194.562L327.386 213.469C330.348 212.003 336.34 209.31 342.091 208.361L338.3 191.222Z" fill="#A05E47"/>
<path d="M343.516 216.616C342.514 217.391 341.539 218.199 340.592 219.041" stroke="#346D8C" stroke-width="0.5669" stroke-miterlimit="10" stroke-linecap="round" stroke-linejoin="round"/>
<path d="M343.854 217.265C343.21 218.169 342.694 219.163 342.326 220.21" stroke="#346D8C" stroke-width="0.5669" stroke-miterlimit="10" stroke-linecap="round" stroke-linejoin="round"/>
<path d="M342.784 206.643C342.784 206.643 343.939 208.284 343.27 209.926C342.601 211.568 326.673 216.735 326.673 216.735C326.673 216.735 324.606 213.634 325.275 212.175C325.943 210.716 342.784 206.643 342.784 206.643Z" fill="#84ABC1"/>
<path d="M338.096 184.626C337.394 183.878 336.408 183.474 335.444 183.12C331.578 181.701 327.543 180.742 323.452 180.27C322.461 180.156 321.43 180.074 320.488 180.401C319.545 180.728 318.711 181.571 318.706 182.569C318.701 183.575 319.536 184.429 320.481 184.773C321.426 185.117 322.463 185.061 323.467 185.002C322.51 186.003 321.481 187.22 321.694 188.587C321.825 189.421 322.401 190.108 322.74 190.881C323.404 192.399 323.116 194.138 323.154 195.794C323.193 197.451 323.792 199.358 325.355 199.908C326.202 200.206 327.137 200.025 328.005 199.797C330.234 199.211 332.385 198.33 334.384 197.183C335.539 196.52 336.664 195.75 337.47 194.691C339.162 192.464 340.176 186.842 338.096 184.626Z" fill="#A05E47"/>
<path d="M323.791 184.988C323.791 184.988 326.403 185.679 326.634 188.023L345.612 187.024C345.612 187.024 346.649 185.526 345.497 184.027L323.791 184.988Z" fill="#22314F"/>
<path d="M323.467 185.001L319.45 185.065L316.261 186.602L319.45 188.215L321.755 188.253C321.755 188.253 321.798 186.089 323.467 185.001Z" fill="#22314F"/>
<path d="M329.944 194.701C330.16 193.988 329.908 193.205 329.49 192.588C329.072 191.971 328.502 191.478 327.986 190.939C327.471 190.401 326.994 189.784 326.838 189.055C326.735 188.574 326.779 188.07 326.674 187.59C326.585 187.184 326.392 186.806 326.158 186.463C325.672 185.748 324.909 185.127 324.045 185.161C323.325 185.189 322.684 185.679 322.301 186.289C321.918 186.899 321.753 187.619 321.627 188.328" stroke="#5B3222" stroke-width="0.4252" stroke-miterlimit="10" stroke-linecap="round" stroke-linejoin="round"/>
<path d="M328.824 187.946C329.957 188.533 331.14 189.023 332.356 189.408" stroke="#5B3222" stroke-width="0.4252" stroke-miterlimit="10" stroke-linecap="round" stroke-linejoin="round"/>
<path d="M345.737 296.222C345.737 296.222 332.259 392.88 338.095 438.892C338.095 438.892 342.849 442.79 353.873 437.377C353.873 437.377 361.765 349.285 368.529 319.206L385.893 436.419C385.893 436.419 390.942 442.494 401.322 435.539L395.632 295.18L345.737 296.222Z" fill="#070709"/>
<path d="M364.515 318.182C364.515 318.182 367.862 317.745 374.557 321.675" stroke="white" stroke-width="0.5669" stroke-miterlimit="10" stroke-linecap="round" stroke-linejoin="round"/>
<path d="M366.183 299.482C366.183 299.482 363.942 310.96 368.607 318.826C368.607 318.826 366.275 303.78 368.881 299.39" stroke="white" stroke-width="0.5669" stroke-miterlimit="10" stroke-linecap="round" stroke-linejoin="round"/>
<path d="M384.817 296.525C384.817 296.525 382.398 307.813 395.03 309.829" stroke="white" stroke-width="0.5669" stroke-miterlimit="10" stroke-linecap="round" stroke-linejoin="round"/>
<path d="M345.579 306.336C345.579 306.336 351.895 305.127 353.776 297.601" stroke="white" stroke-width="0.5669" stroke-miterlimit="10" stroke-linecap="round" stroke-linejoin="round"/>
<path d="M353.912 435.107C353.912 435.107 355.541 442.382 354.896 445.288C354.896 445.288 333.749 448.678 323.095 447.064C323.095 447.064 318.252 446.197 320.351 441.304C320.351 441.304 322.45 440.081 326.485 439.86C330.521 439.639 335.967 436.79 336.876 435.793C337.785 434.796 339.238 433.483 341.175 435.108C343.112 436.733 344.242 437.54 346.341 436.895C348.439 436.248 352.121 433.966 353.912 435.107Z" fill="#0097B2"/>
<path d="M349.771 442.912C348.303 442.912 347.108 441.717 347.108 440.248C347.108 438.78 348.302 437.585 349.771 437.585C351.239 437.585 352.435 438.779 352.435 440.248C352.435 441.717 351.24 442.912 349.771 442.912ZM349.771 437.857C348.452 437.857 347.38 438.93 347.38 440.249C347.38 441.568 348.453 442.642 349.771 442.642C351.09 442.642 352.164 441.568 352.164 440.249C352.164 438.93 351.09 437.857 349.771 437.857Z" fill="white"/>
<path d="M332.098 445.458C325.95 445.458 321.74 445.106 321.658 445.1L321.681 444.829C321.846 444.843 338.443 446.23 354.065 443.449L354.112 443.717C346.294 445.108 338.231 445.458 332.098 445.458Z" fill="white"/>
<path d="M402.319 435.107C402.319 435.107 403.948 442.382 403.303 445.288C403.303 445.288 382.156 448.678 371.502 447.064C371.502 447.064 366.659 446.197 368.758 441.304C368.758 441.304 370.857 440.081 374.892 439.86C378.928 439.639 384.374 436.79 385.283 435.793C386.192 434.796 387.645 433.483 389.582 435.108C391.519 436.733 392.649 437.54 394.748 436.895C396.846 436.248 400.529 433.966 402.319 435.107Z" fill="#0097B2"/>
<path d="M398.178 442.912C396.71 442.912 395.515 441.717 395.515 440.248C395.515 438.78 396.709 437.585 398.178 437.585C399.646 437.585 400.842 438.779 400.842 440.248C400.842 441.717 399.647 442.912 398.178 442.912ZM398.178 437.857C396.859 437.857 395.786 438.93 395.786 440.249C395.786 441.568 396.859 442.642 398.178 442.642C399.497 442.642 400.571 441.568 400.571 440.249C400.571 438.93 399.497 437.857 398.178 437.857Z" fill="white"/>
<path d="M380.506 445.458C374.358 445.458 370.148 445.106 370.066 445.1L370.089 444.829C370.254 444.843 386.849 446.23 402.472 443.449L402.519 443.717C394.701 445.108 386.638 445.458 380.506 445.458Z" fill="white"/>
<path d="M350.899 243.407C349.949 244.968 349.192 246.641 348.712 248.464C347.472 253.18 348.596 256.474 350.644 260.635C351.243 261.853 351.611 263.166 352.117 264.423C352.489 265.347 352.862 266.276 353.064 267.251C353.453 269.128 353.19 271.072 352.925 272.97C352.081 279.023 350.653 285.142 347.893 290.642C347.168 292.087 346.357 293.829 347.176 295.223C347.437 295.667 347.837 296.009 348.243 296.325C351.501 298.863 355.553 300.221 359.638 300.83C363.723 301.439 367.877 301.342 372.005 301.233C378.487 301.062 385.064 300.853 391.255 298.926C392.661 298.488 394.514 298.454 395.614 297.436C397.14 296.024 397.835 293.351 398.02 291.368C398.34 287.943 397.003 285.179 396.285 281.975C394.443 273.751 396.981 266.499 399.223 258.66C401.421 250.976 402.924 241.3 398.277 234.182C393.768 227.275 383.423 225.591 375.768 225.713C373.531 225.748 371.266 225.768 369.061 226.191C366.579 226.666 365.605 227.958 363.865 229.721C359.569 234.074 354.125 238.102 350.899 243.407Z" fill="#F3F8F4"/>
<path d="M366.504 224.129C366.665 224.21 366.855 224.242 367.034 224.279C367.846 224.446 368.729 224.594 369.56 224.642C367.91 226.432 366.233 228.6 365.214 230.82C362.939 235.775 361.266 241.264 361.4 246.763C361.64 256.528 355.946 302.436 355.946 302.436C355.946 302.436 345.605 298.606 343.45 295.179C343.45 295.179 351.527 280.719 351.822 272.57C352.116 264.421 341.765 252.457 351.822 239.527C353.461 237.419 355.114 235.318 356.84 233.28C357.918 232.007 359.031 230.523 360.393 229.554C361.026 229.104 361.615 228.556 362.205 228.048C363.016 227.35 363.791 226.611 364.551 225.859C364.93 225.485 365.289 225.08 365.684 224.723C365.908 224.521 366.123 224.311 366.332 224.09C366.371 224.118 366.464 224.109 366.504 224.129Z" fill="#5B93BA"/>
<path d="M384.623 223.377C384.623 223.377 386.08 224.967 387.039 226.108C387.998 227.249 393.605 228.124 395.888 230.103C398.171 232.081 405.627 237.18 403.04 247.565C400.453 257.95 397.736 267.233 398.714 278.037C399.692 288.841 401.323 295.18 401.323 295.18C401.323 295.18 386.836 303.121 375.992 303.209C375.992 303.209 377.614 271.238 377.036 256.429C376.458 241.62 373.858 241.642 377.036 237.547C380.214 233.451 383.424 232.059 384.623 223.377Z" fill="#5B93BA"/>
<path d="M360.608 253.862C360.499 253.862 360.408 253.775 360.404 253.665C360.306 250.418 359.024 247.077 356.374 243.15C356.275 243.004 356.126 242.784 356.16 242.524C356.185 242.337 356.296 242.193 356.377 242.089C356.653 241.73 356.938 241.333 357.223 240.936C357.45 240.618 357.679 240.301 357.902 240.002C356.619 239.619 355.36 239.132 354.154 238.554C353.808 238.388 353.645 238.176 353.673 237.926C353.698 237.679 353.908 237.538 354.032 237.454C356.401 235.861 358.106 233.423 359.755 231.065C361.573 228.465 363.453 225.777 366.236 224.194C366.333 224.139 366.458 224.173 366.514 224.27C366.57 224.368 366.536 224.492 366.438 224.547C363.735 226.086 361.881 228.735 360.089 231.298C358.418 233.686 356.691 236.155 354.259 237.791C354.202 237.83 354.083 237.91 354.077 237.968C354.072 238.012 354.135 238.093 354.329 238.186C355.603 238.798 356.939 239.305 358.298 239.694C358.363 239.713 358.414 239.762 358.436 239.826C358.457 239.89 358.445 239.96 358.404 240.014C358.126 240.375 357.84 240.774 357.553 241.173C357.266 241.574 356.978 241.975 356.699 242.337C356.628 242.429 356.573 242.504 356.563 242.576C356.55 242.675 356.626 242.796 356.71 242.922C359.407 246.916 360.709 250.326 360.811 253.653C360.814 253.765 360.726 253.859 360.614 253.863C360.611 253.862 360.61 253.862 360.608 253.862Z" fill="#346D8C"/>
<path d="M349.549 258.556C348.897 258.556 348.53 258.291 348.008 257.874C347.92 257.804 347.906 257.677 347.976 257.589C348.047 257.501 348.176 257.487 348.262 257.556C348.778 257.968 349.068 258.184 349.685 258.145C350.105 258.12 350.503 257.872 350.855 257.654L355.304 254.9C355.447 254.811 355.609 254.711 355.68 254.575C355.741 254.46 355.744 254.309 355.744 254.139C355.739 253.079 355.642 252.013 355.457 250.968C352.926 250.693 350.367 250.724 347.844 251.064C347.722 251.075 347.63 251 347.615 250.889C347.6 250.778 347.679 250.675 347.79 250.66C350.397 250.311 353.043 250.284 355.654 250.58C355.743 250.59 355.815 250.657 355.831 250.745C356.039 251.861 356.147 253.002 356.153 254.137C356.154 254.354 356.146 254.566 356.043 254.764C355.921 254.998 355.699 255.135 355.521 255.246L351.069 258C350.696 258.231 350.231 258.519 349.708 258.551C349.653 258.555 349.6 258.556 349.549 258.556Z" fill="#346D8C"/>
<path d="M350.976 267.827C350.878 267.827 350.791 267.756 350.775 267.656C350.757 267.545 350.833 267.441 350.944 267.423C352.302 267.206 353.61 266.665 354.724 265.858C354.883 265.744 355.061 265.607 355.159 265.435C355.344 265.112 355.263 264.679 355.191 264.297C354.652 261.411 354.451 258.463 354.594 255.535C354.599 255.423 354.669 255.343 354.807 255.341C354.919 255.347 355.005 255.442 355 255.554C354.859 258.451 355.058 261.367 355.591 264.222C355.672 264.651 355.771 265.184 355.512 265.637C355.374 265.88 355.156 266.048 354.962 266.188C353.797 267.032 352.429 267.597 351.008 267.825C350.997 267.827 350.986 267.827 350.976 267.827Z" fill="#346D8C"/>
<path d="M345.609 294.706C345.569 294.706 345.528 294.694 345.492 294.67C344.79 294.179 344.407 293.872 344.391 293.859C344.303 293.789 344.289 293.661 344.359 293.573C344.43 293.486 344.558 293.472 344.645 293.542C344.649 293.545 345.035 293.854 345.725 294.336C345.817 294.401 345.839 294.527 345.774 294.62C345.736 294.677 345.674 294.706 345.609 294.706Z" fill="#346D8C"/>
<path d="M349.207 296.937C349.173 296.937 349.14 296.929 349.109 296.912C348.274 296.452 347.454 295.964 346.672 295.46C346.578 295.399 346.55 295.273 346.611 295.178C346.673 295.083 346.798 295.058 346.893 295.117C347.667 295.616 348.479 296.099 349.306 296.555C349.404 296.609 349.441 296.733 349.386 296.831C349.348 296.899 349.279 296.937 349.207 296.937Z" fill="#346D8C"/>
<path d="M354.326 299.313C354.302 299.313 354.277 299.308 354.254 299.3C353.387 298.971 352.508 298.599 351.639 298.196C351.537 298.149 351.493 298.028 351.541 297.926C351.588 297.823 351.709 297.78 351.811 297.827C352.671 298.226 353.541 298.594 354.398 298.918C354.504 298.958 354.556 299.076 354.517 299.181C354.486 299.262 354.409 299.313 354.326 299.313ZM350.455 297.597C350.424 297.597 350.392 297.59 350.362 297.575C349.924 297.352 349.506 297.13 349.109 296.911C349.011 296.857 348.974 296.733 349.028 296.635C349.082 296.536 349.209 296.501 349.305 296.555C349.699 296.771 350.113 296.992 350.547 297.213C350.647 297.264 350.687 297.386 350.636 297.487C350.601 297.557 350.529 297.597 350.455 297.597Z" fill="#346D8C"/>
<path d="M355.611 299.772C355.589 299.772 355.568 299.768 355.546 299.761C355.107 299.615 354.678 299.462 354.26 299.303C354.154 299.263 354.102 299.145 354.141 299.04C354.182 298.934 354.301 298.883 354.404 298.921C354.818 299.078 355.242 299.23 355.675 299.375C355.782 299.41 355.84 299.526 355.803 299.632C355.776 299.718 355.696 299.772 355.611 299.772Z" fill="#346D8C"/>
<path d="M347.815 248.121C347.721 248.121 347.636 248.056 347.616 247.96C347.593 247.85 347.663 247.742 347.772 247.718C347.783 247.716 348.864 247.486 350.468 247.266C350.575 247.25 350.682 247.328 350.698 247.44C350.713 247.551 350.635 247.654 350.524 247.669C348.936 247.886 347.868 248.114 347.857 248.116C347.844 248.119 347.829 248.121 347.815 248.121ZM358.939 247.412C358.932 247.412 358.924 247.412 358.916 247.411C358.811 247.399 358.707 247.388 358.603 247.377H358.602C357.032 247.223 355.19 247.225 353.214 247.379C353.086 247.389 353.004 247.303 352.995 247.192C352.987 247.08 353.07 246.982 353.182 246.973C355.182 246.816 357.049 246.814 358.642 246.972C358.749 246.982 358.856 246.993 358.963 247.006C359.074 247.019 359.155 247.12 359.142 247.232C359.13 247.336 359.041 247.412 358.939 247.412Z" fill="#346D8C"/>
<path d="M347.543 249.911C347.437 249.911 347.351 249.844 347.342 249.748C347.322 249.69 347.342 249.643 347.37 249.595C347.399 249.547 347.447 249.518 347.495 249.509C347.504 249.509 347.504 249.509 347.504 249.509C347.513 249.509 347.523 249.509 347.542 249.509C347.637 249.509 347.714 249.576 347.734 249.672C347.762 249.777 347.685 249.883 347.581 249.912C347.581 249.912 347.581 249.912 347.571 249.912C347.562 249.911 347.553 249.911 347.543 249.911ZM350.225 249.489C350.119 249.489 350.033 249.412 350.024 249.307C350.015 249.259 350.033 249.201 350.062 249.163C350.091 249.115 350.139 249.086 350.196 249.076C351.556 248.894 353.606 248.655 355.626 248.578H355.636C355.741 248.578 355.827 248.665 355.837 248.77C355.837 248.885 355.75 248.981 355.645 248.981C354.046 249.038 352.235 249.211 350.253 249.479C350.244 249.479 350.234 249.489 350.225 249.489ZM359.658 249.135C359.649 249.135 359.639 249.126 359.63 249.126C359.237 249.068 358.797 249.03 358.336 249.001C358.221 248.992 358.135 248.896 358.144 248.791C358.154 248.676 358.221 248.59 358.355 248.599C358.862 248.628 359.293 248.666 359.686 248.723C359.734 248.733 359.781 248.761 359.82 248.81C359.849 248.848 359.858 248.906 359.858 248.953C359.841 249.058 359.755 249.135 359.658 249.135Z" fill="#346D8C"/>
<path d="M377.092 256.09C376.984 256.09 376.895 256.006 376.889 255.897C376.796 254.116 377.268 252.301 378.216 250.789C378.309 250.641 378.407 250.493 378.506 250.344C378.928 249.71 379.364 249.054 379.374 248.332C379.385 247.604 378.965 246.893 378.558 246.207C378.031 245.316 377.484 244.395 377.865 243.405C377.895 243.325 377.967 243.293 378.059 243.275L381.474 243.343C380.827 241.636 381.191 239.447 382.492 237.277C382.97 236.481 383.527 235.724 384.067 234.993C384.791 234.012 385.539 232.997 386.085 231.896C386.907 230.237 387.378 227.69 385.994 225.97C385.924 225.882 385.938 225.754 386.026 225.684C386.113 225.612 386.242 225.627 386.312 225.715C387.815 227.584 387.325 230.31 386.449 232.076C385.888 233.21 385.129 234.239 384.395 235.235C383.861 235.959 383.308 236.709 382.841 237.487C382.222 238.518 380.897 241.165 381.966 243.468C381.996 243.532 381.99 243.606 381.952 243.665C381.915 243.724 381.854 243.761 381.778 243.757L378.2 243.686C377.987 244.447 378.435 245.203 378.907 246.001C379.343 246.737 379.794 247.497 379.781 248.34C379.768 249.182 379.298 249.889 378.844 250.572C378.748 250.717 378.651 250.862 378.56 251.007C377.657 252.449 377.208 254.179 377.295 255.878C377.302 255.99 377.215 256.086 377.102 256.092C377.098 256.09 377.095 256.09 377.092 256.09Z" fill="#346D8C"/>
<path d="M385.381 255.984C385.067 255.984 384.778 255.885 384.484 255.775C383.095 255.252 381.831 254.607 380.727 253.858L380.657 253.811C380.255 253.54 379.908 253.306 379.835 252.715C379.826 252.643 379.82 252.57 379.815 252.498V252.497C379.789 252.087 379.825 251.677 379.86 251.281L379.882 251.027C379.946 250.256 380.026 250.142 380.604 250.011C380.689 249.991 380.788 249.969 380.905 249.938C381.909 249.67 382.804 249.613 383.751 249.553C386.159 249.398 388.587 249.481 390.969 249.798C391.075 249.812 391.152 249.906 391.145 250.014L390.973 252.649C390.964 252.792 390.951 252.969 390.857 253.126C390.771 253.272 390.634 253.365 390.534 253.434C389.227 254.328 387.827 255.098 386.374 255.721C386.056 255.857 385.743 255.98 385.397 255.983C385.393 255.984 385.387 255.984 385.381 255.984ZM380.221 252.472C380.226 252.536 380.231 252.601 380.239 252.666C380.289 253.073 380.501 253.215 380.884 253.475L380.955 253.523C382.033 254.253 383.269 254.883 384.628 255.395C384.884 255.491 385.135 255.578 385.382 255.578C385.386 255.578 385.39 255.578 385.394 255.578C385.664 255.575 385.936 255.468 386.213 255.349C387.643 254.736 389.019 253.979 390.304 253.1C390.396 253.037 390.469 252.984 390.506 252.921C390.551 252.846 390.559 252.733 390.567 252.624L390.726 250.18C388.432 249.887 386.095 249.815 383.778 249.962C382.851 250.021 381.976 250.077 381.01 250.335C380.887 250.367 380.784 250.391 380.695 250.412C380.335 250.494 380.335 250.494 380.288 251.065L380.266 251.321C380.233 251.699 380.197 252.092 380.221 252.472Z" fill="#346D8C"/>
<path d="M385.005 262.187C383.577 262.187 382.15 261.993 380.783 261.605C380.704 261.582 380.645 261.512 380.636 261.43C380.377 258.862 380.304 256.25 380.422 253.665C380.427 253.556 380.516 253.471 380.625 253.471C380.628 253.471 380.631 253.471 380.634 253.471C380.746 253.476 380.833 253.571 380.828 253.684C380.714 256.203 380.781 258.748 381.028 261.252C383.823 262.017 386.868 261.952 389.631 261.062C389.91 258.692 389.948 256.29 389.747 253.918C389.738 253.806 389.821 253.708 389.933 253.698C390.045 253.69 390.142 253.772 390.153 253.884C390.361 256.326 390.316 258.801 390.02 261.24C390.011 261.319 389.956 261.384 389.881 261.409C388.317 261.927 386.661 262.187 385.005 262.187Z" fill="#346D8C"/>
<path d="M377.037 301.269C376.944 301.269 376.861 301.206 376.839 301.113C376.813 301.004 376.88 300.893 376.99 300.867C377 300.865 378.019 300.62 379.627 300.191C379.739 300.163 379.847 300.226 379.876 300.335C379.905 300.444 379.84 300.555 379.732 300.584C378.119 301.016 377.096 301.261 377.086 301.264C377.068 301.267 377.052 301.269 377.037 301.269ZM382.3 299.865C382.211 299.865 382.13 299.806 382.105 299.717C382.074 299.608 382.137 299.496 382.244 299.465C384.035 298.953 385.779 298.423 387.427 297.887C387.432 297.885 387.435 297.884 387.44 297.882C388.285 297.607 389.146 297.317 390.008 297.014C390.114 296.975 390.23 297.032 390.267 297.139C390.304 297.245 390.249 297.361 390.143 297.399C389.283 297.702 388.422 297.991 387.578 298.266C387.574 298.267 387.57 298.269 387.565 298.271C385.909 298.809 384.156 299.343 382.356 299.856C382.338 299.862 382.319 299.865 382.3 299.865ZM392.629 296.475C392.548 296.475 392.47 296.425 392.439 296.344C392.399 296.239 392.451 296.121 392.556 296.081C394.436 295.36 396.105 294.639 397.517 293.938C397.521 293.936 397.524 293.934 397.528 293.932C398.413 293.492 399.209 293.055 399.893 292.631C399.988 292.571 400.114 292.601 400.174 292.697C400.233 292.792 400.204 292.918 400.108 292.977C399.416 293.405 398.613 293.847 397.721 294.291C397.717 294.293 397.713 294.295 397.71 294.297C396.285 295.005 394.6 295.733 392.702 296.461C392.678 296.47 392.653 296.475 392.629 296.475Z" fill="#346D8C"/>
<path d="M378.799 249.884C378.708 249.884 378.625 249.823 378.602 249.731C378.574 249.622 378.64 249.511 378.75 249.484C378.76 249.481 379.81 249.218 381.445 248.996C381.566 248.977 381.659 249.059 381.674 249.17C381.689 249.282 381.61 249.384 381.499 249.399C379.888 249.618 378.858 249.876 378.848 249.878C378.831 249.882 378.815 249.884 378.799 249.884ZM392.261 249.82C392.244 249.82 392.227 249.818 392.21 249.813C391.373 249.599 390.484 249.43 389.569 249.311L389.568 249.31C387.887 249.092 386.046 249.035 384.185 249.14C384.069 249.133 383.976 249.06 383.971 248.948C383.965 248.836 384.05 248.74 384.163 248.733C386.047 248.627 387.915 248.684 389.621 248.906H389.622C390.554 249.027 391.459 249.199 392.312 249.417C392.42 249.445 392.487 249.556 392.459 249.665C392.435 249.758 392.351 249.82 392.261 249.82Z" fill="#346D8C"/>
<path d="M391.676 248.121C391.66 248.121 391.644 248.119 391.628 248.115C391.198 248.012 390.752 247.92 390.304 247.841C388.916 247.6 387.423 247.477 385.865 247.477C385.549 247.477 385.239 247.482 384.937 247.492C384.934 247.492 384.932 247.492 384.93 247.492C384.821 247.492 384.73 247.405 384.726 247.295C384.723 247.183 384.811 247.089 384.923 247.085C385.229 247.076 385.544 247.071 385.864 247.071C387.446 247.071 388.962 247.195 390.372 247.44C390.829 247.52 391.284 247.614 391.723 247.72C391.832 247.746 391.9 247.856 391.874 247.965C391.852 248.058 391.768 248.121 391.676 248.121ZM379.54 248.121C379.447 248.121 379.364 248.058 379.342 247.964C379.317 247.855 379.384 247.745 379.493 247.719C379.503 247.717 380.564 247.469 382.198 247.282C382.322 247.271 382.411 247.349 382.423 247.461C382.436 247.573 382.356 247.674 382.245 247.687C380.636 247.871 379.597 248.113 379.587 248.116C379.571 248.119 379.555 248.121 379.54 248.121Z" fill="#346D8C"/>
<path d="M369.154 188.497C369.461 187.751 370.262 187.239 371.068 187.273C370.985 186.571 371.027 185.811 371.432 185.231C371.837 184.651 372.696 184.351 373.283 184.745C373.142 184.031 373.085 183.252 373.435 182.614C373.784 181.976 374.672 181.594 375.272 182.005C375.531 181.242 375.823 180.431 376.468 179.948C377.113 179.465 378.224 179.53 378.544 180.269C378.682 179.345 379.405 178.535 380.308 178.294C381.211 178.054 382.242 178.396 382.82 179.13C383.179 178.349 383.723 177.582 384.535 177.296C385.346 177.01 386.433 177.435 386.571 178.284C387.422 177.996 388.328 177.752 389.21 177.924C390.092 178.095 390.93 178.798 390.973 179.695C390.956 179.329 393.146 179.665 393.351 179.738C394.153 180.022 394.293 180.201 394.387 180.92C394.482 181.644 393.93 181.413 394.806 181.615C395.635 181.806 396.377 181.535 397.132 182.117C397.422 182.34 397.644 182.641 397.822 182.96C398.061 183.388 398.253 183.911 398.178 184.41C398.121 184.792 397.684 185.16 397.701 185.515C397.735 186.212 398.83 186.92 399.068 187.648C399.369 188.568 399.003 189.781 398.073 190.052C398.668 190.648 399.29 191.293 399.457 192.118C399.624 192.943 399.099 193.961 398.257 193.977C398.76 194.419 399.25 194.951 399.344 195.614C399.439 196.277 398.946 197.05 398.278 197.004C398.822 197.835 399.224 198.825 399.071 199.806C398.919 200.787 398.058 201.701 397.067 201.633C397.568 202.307 397.645 203.271 397.257 204.016C396.869 204.761 396.035 205.25 395.195 205.226C395.534 205.931 395.727 206.779 395.391 207.486C395.055 208.193 394.019 208.566 393.452 208.027C393.909 208.643 393.867 209.578 393.357 210.15C392.847 210.722 391.922 210.87 391.259 210.486C391.176 211.423 390.516 212.286 389.633 212.61C388.75 212.934 387.688 212.704 387.019 212.042C386.242 212.587 385.139 212.62 384.33 212.122C383.522 211.624 383.054 210.624 383.191 209.685C382.438 209.589 381.752 209.072 381.454 208.374C381.156 207.676 381.256 206.823 381.708 206.213C380.804 206.162 379.947 205.59 379.553 204.775C379.159 203.959 379.244 202.933 379.766 202.193C378.821 202.323 377.819 201.905 377.247 201.142C376.674 200.378 376.554 199.3 376.944 198.429C375.904 198.682 374.728 198.222 374.137 197.329C373.546 196.436 373.581 195.174 374.221 194.315C373.291 194.369 372.318 194.307 371.505 193.854C370.675 193.392 370.17 192.529 370.232 191.582C369.168 191.477 368.831 189.282 369.154 188.497Z" fill="#15191C"/>
<path d="M385.612 218.341L383.964 227.072C383.923 227.286 383.823 227.485 383.675 227.646L371.464 240.854C370.716 241.663 369.368 241.076 369.45 239.978L370.408 227.059C370.411 227.014 370.417 226.969 370.426 226.925L371.922 219.172C372.018 218.672 372.429 218.292 372.936 218.236L384.341 216.97C385.118 216.882 385.757 217.572 385.612 218.341Z" fill="#A05E47"/>
<path d="M383.48 219.914L371.476 221.474L370.586 226.084C377.044 226.459 383.48 219.914 383.48 219.914Z" fill="#844331"/>
<path d="M375.596 225.234L369.567 224.632C364.412 224.118 360.615 219.479 361.129 214.324L362.793 197.647C363.307 192.492 367.946 188.695 373.101 189.209L379.13 189.811C384.285 190.325 388.082 194.964 387.568 200.119L385.904 216.797C385.389 221.951 380.751 225.748 375.596 225.234Z" fill="#A05E47"/>
<path d="M379.2 189.64L373.056 189.027C368.559 188.578 364.457 191.354 363.037 195.456C364.365 195.325 382.354 193.838 386.902 208.536L386.964 208.51L387.799 200.145C388.323 194.891 384.453 190.164 379.2 189.64Z" fill="#15191C"/>
<path d="M373.095 207.557C373.095 208.064 373.375 208.474 373.721 208.474C374.067 208.474 374.348 208.063 374.348 207.557C374.348 207.05 374.067 206.64 373.721 206.64C373.376 206.64 373.095 207.05 373.095 207.557Z" fill="#15191C"/>
<path d="M363.303 206.886C363.303 207.393 363.583 207.803 363.929 207.803C364.275 207.803 364.556 207.392 364.556 206.886C364.556 206.379 364.275 205.969 363.929 205.969C363.584 205.969 363.303 206.379 363.303 206.886Z" fill="#15191C"/>
<path d="M369.929 216.818C368.15 216.818 367.003 216.239 366.924 216.197C366.831 216.148 366.796 216.034 366.844 215.941C366.893 215.846 367.007 215.809 367.1 215.86C367.131 215.875 370.279 217.456 374.257 215.253C374.347 215.204 374.465 215.235 374.515 215.327C374.566 215.419 374.533 215.535 374.441 215.586C372.726 216.535 371.173 216.818 369.929 216.818Z" fill="#5B3222"/>
<path d="M362.857 204.084C362.789 204.084 362.722 204.052 362.681 203.992C362.614 203.896 362.638 203.763 362.735 203.696C362.802 203.65 364.39 202.581 366.76 203.356C366.872 203.392 366.933 203.513 366.897 203.624C366.86 203.736 366.741 203.796 366.629 203.76C364.466 203.053 362.992 204.036 362.977 204.046C362.94 204.072 362.899 204.084 362.857 204.084Z" fill="#15191C"/>
<path d="M373.208 204.585C373.148 204.553 373.104 204.493 373.096 204.42C373.083 204.303 373.167 204.198 373.284 204.185C373.364 204.176 375.269 203.984 376.993 205.786C377.075 205.871 377.072 206.006 376.987 206.087C376.902 206.168 376.768 206.165 376.686 206.08C375.113 204.435 373.35 204.606 373.332 204.607C373.287 204.614 373.245 204.605 373.208 204.585Z" fill="#15191C"/>
<path d="M365.365 209.64C365.365 209.64 362.71 212.282 366.985 213.122C371.26 213.962 370.65 210.837 370.65 210.837" stroke="#5B3222" stroke-width="0.5669" stroke-miterlimit="10" stroke-linecap="round" stroke-linejoin="round"/>
<path d="M383.256 204.542C383.533 205.591 383.955 206.76 383.414 207.699C383.158 208.143 382.713 208.464 382.501 208.93C382.034 209.953 382.849 211.06 383.194 212.13C383.663 213.586 383.166 215.305 381.991 216.286C383.304 215.861 384.274 214.546 384.292 213.166C384.306 212.086 383.881 210.769 384.718 210.085C385.075 209.793 385.607 209.699 385.835 209.298C385.948 209.099 385.965 208.853 386.101 208.668C386.21 208.52 386.379 208.433 386.534 208.334C387.339 207.817 387.805 206.879 387.931 205.93C388.056 204.982 387.878 204.018 387.62 203.097C387.354 202.149 386.952 201.158 386.118 200.634C383.547 199.023 382.833 202.941 383.256 204.542Z" fill="#15191C"/>
<path d="M367.68 189.269C367.359 189.387 367.098 189.739 367.205 190.064C366.567 189.9 365.856 190.049 365.338 190.455C365.215 190.551 365.098 190.67 365.062 190.822C365.027 190.974 365.106 191.161 365.259 191.193C364.814 191.283 364.362 191.463 364.086 191.823C363.81 192.183 363.777 192.755 364.111 193.062C363.691 193.201 363.245 193.359 362.977 193.71C362.709 194.062 362.736 194.671 363.139 194.854C362.592 195.316 362.563 196.265 363.082 196.759C363.601 197.253 364.547 197.178 364.982 196.609C364.708 197.476 365.112 198.507 365.903 198.956C366.693 199.405 367.787 199.224 368.391 198.544C368.694 199.187 369.329 199.663 370.031 199.775C370.733 199.887 371.484 199.631 371.972 199.114C371.869 199.712 372.289 200.305 372.828 200.586C373.366 200.867 373.996 200.902 374.603 200.906C374.934 200.909 375.273 200.902 375.579 200.778C375.885 200.654 376.155 200.385 376.185 200.056C376.321 200.774 376.859 201.403 377.547 201.648C378.236 201.893 379.05 201.747 379.609 201.277C379.417 202.009 380.121 202.734 380.87 202.841C381.619 202.948 382.357 202.62 383.027 202.268C383.05 202.655 383.568 202.85 383.921 202.69C384.274 202.53 384.474 202.154 384.606 201.789C384.888 201.013 384.981 200.181 385.016 199.356C385.076 197.933 384.955 196.452 384.265 195.206C383.343 193.543 381.569 192.565 379.869 191.712C378.244 190.896 376.589 190.109 374.832 189.642C373.591 189.313 372.293 189.147 371.01 189.256C370.497 189.3 369.946 189.504 369.433 189.454C368.837 189.397 368.297 189.042 367.68 189.269Z" fill="#15191C"/>
<path d="M362.808 194.82C362.808 194.82 362.756 188.605 369.075 189.075C369.075 189.075 386.727 191.738 387.771 208.554C387.771 208.554 386.152 209.86 385.473 209.233C384.794 208.607 377.901 195.185 362.808 194.82Z" fill="#FBB040"/>
<path d="M389.785 211.471C389.618 213.148 388.123 214.372 386.445 214.205C384.768 214.038 383.544 212.543 383.712 210.866C383.879 209.189 385.375 207.965 387.052 208.132C388.729 208.299 389.952 209.794 389.785 211.471Z" fill="#A05E47"/>
<path d="M386.592 213.418C386.542 213.418 386.493 213.393 386.466 213.347C386.423 213.277 386.446 213.186 386.516 213.144C387.392 212.617 387.868 212 387.93 211.31C388.038 210.105 386.858 209.052 386.845 209.042C386.784 208.988 386.778 208.895 386.832 208.833C386.886 208.771 386.979 208.766 387.041 208.82C387.094 208.867 388.346 209.984 388.225 211.337C388.154 212.127 387.631 212.82 386.669 213.399C386.644 213.412 386.618 213.418 386.592 213.418Z" fill="#633022"/>
<path d="M385.702 212.254C385.687 212.254 385.671 212.252 385.656 212.247C385.579 212.222 385.536 212.139 385.561 212.061C385.771 211.408 386.119 210.976 386.595 210.774C387.34 210.461 388.107 210.833 388.139 210.848C388.212 210.884 388.242 210.972 388.206 211.046C388.17 211.121 388.08 211.15 388.008 211.113C388 211.109 387.326 210.785 386.708 211.047C386.316 211.214 386.025 211.585 385.842 212.151C385.822 212.214 385.764 212.254 385.702 212.254Z" fill="#633022"/>
<path d="M386.808 213.916C386.808 214.415 386.403 214.82 385.904 214.82C385.405 214.82 385 214.415 385 213.916C385 213.417 385.405 213.012 385.904 213.012C386.403 213.011 386.808 213.416 386.808 213.916Z" fill="white"/>
<path opacity="0.6" d="M399.649 262.068C394.02 253.534 387.094 246.542 387.094 246.542C387.094 246.542 389.356 265.743 377.045 274.101C376.932 279.511 376.753 285.022 376.573 289.779C377.859 290.208 391.688 294.646 400.321 290.296C399.803 287.374 399.183 283.227 398.714 278.036C398.206 272.426 398.699 267.226 399.649 262.068Z" fill="#5B93BA"/>
<path d="M379.14 261.048H357.3V293.456H379.14V261.048Z" fill="#0C4063"/>
<path d="M372.169 262.582H364.272C364.005 262.582 363.787 262.364 363.787 262.097V260.042C363.787 259.775 364.005 259.557 364.272 259.557H372.169C372.436 259.557 372.654 259.775 372.654 260.042V262.097C372.654 262.364 372.436 262.582 372.169 262.582Z" fill="#FBB040"/>
<path d="M413.707 270.327L401.113 235.526C399.56 231.23 394.818 229.008 390.521 230.563C386.225 232.117 384.003 236.86 385.558 241.156L394.181 264.985L370.449 265.218C370.449 265.218 367.676 273.058 370.612 281.761L406.011 281.413C408.692 281.387 411.195 280.062 412.724 277.859C414.253 275.655 414.62 272.848 413.707 270.327Z" fill="#5B93BA"/>
<path d="M391.992 265.006L370.448 265.217C370.448 265.217 367.675 273.057 370.611 281.76L393.704 281.533C395.351 273.909 393.077 267.474 391.992 265.006Z" fill="#A05E47"/>
<path d="M391.992 265.005L394.18 264.984L385.711 241.564" stroke="#346D8C" stroke-width="0.5669" stroke-miterlimit="10" stroke-linecap="round" stroke-linejoin="round"/>
<path d="M395.001 265.128C395.001 265.128 397.493 264.618 400.042 266.657" stroke="#346D8C" stroke-width="0.5669" stroke-miterlimit="10" stroke-linecap="round" stroke-linejoin="round"/>
<path d="M395.17 264.278C395.17 264.278 396.416 263.145 399.588 263.655" stroke="#346D8C" stroke-width="0.5669" stroke-miterlimit="10" stroke-linecap="round" stroke-linejoin="round"/>
<path d="M389.548 264.257C389.548 264.257 391.232 263.568 392.917 264.027C394.601 264.486 396.592 278.19 395.52 283.243C395.52 283.243 392.381 285.004 389.472 282.707C389.472 282.707 390.084 267.396 389.548 264.257Z" fill="#84ABC1"/>
<path d="M372.642 281.647C375.414 274.211 373.265 265.302 373.265 265.302L368.743 265.181C368.672 265.175 368.6 265.167 368.529 265.165C367.689 265.146 366.85 265.127 366.011 265.108H366.004C365.77 265.103 365.537 265.097 365.303 265.092C363.234 265.045 360.395 265.177 360.17 267.977C360.12 268.593 360.326 269.25 360.794 269.628C360.175 270.315 359.696 271.18 359.628 272.114C359.56 273.049 359.967 274.046 360.759 274.491C360.507 274.476 360.316 274.719 360.183 274.943C359.841 275.521 359.571 276.202 359.706 276.862C359.753 277.095 359.849 277.313 359.945 277.53C360.134 277.958 360.376 278.435 360.818 278.545C360.484 278.653 360.191 278.993 359.954 279.243C359.643 279.571 359.561 280.044 359.687 280.487C359.884 281.182 360.507 281.656 361.166 281.844C361.825 282.031 362.526 281.978 363.211 281.923C363.98 281.862 364.749 281.801 365.517 281.74L372.642 281.647Z" fill="#A05E47"/>
<path d="M266.313 368.326H221.235C218.072 368.326 215.483 365.738 215.483 362.574V339.693C215.483 336.53 218.071 333.941 221.235 333.941H266.313C269.476 333.941 272.065 336.529 272.065 339.693V362.574C272.065 365.738 269.477 368.326 266.313 368.326Z" fill="#0097B2"/>
<path d="M256.531 358.064H231.502C231.281 358.064 231.1 357.883 231.1 357.662V343.145C231.1 342.924 231.281 342.743 231.502 342.743H256.531C256.752 342.743 256.933 342.924 256.933 343.145V357.662C256.933 357.883 256.752 358.064 256.531 358.064Z" stroke="#FDFDFD" stroke-width="1.7008" stroke-miterlimit="10" stroke-linecap="round" stroke-linejoin="round"/>
<path d="M256.695 343.19L244.113 349.735L231.1 343.145" stroke="#FDFDFD" stroke-width="1.7008" stroke-miterlimit="10" stroke-linecap="round" stroke-linejoin="round"/>
<path d="M251.816 337.219L268.279 321.833L264.278 339.681L251.816 337.219Z" fill="#0097B2"/>
<path d="M87.8129 214.826H42.7359C39.5729 214.826 36.9839 212.238 36.9839 209.074V186.194C36.9839 183.031 39.5719 180.442 42.7359 180.442H87.8139C90.9769 180.442 93.5659 183.03 93.5659 186.194V209.074C93.5649 212.238 90.9769 214.826 87.8129 214.826Z" fill="#8DC63F"/>
<path d="M71.3541 202.578H58.2461C55.2671 202.578 52.8291 200.14 52.8291 197.161C52.8291 194.182 55.2671 191.744 58.2461 191.744H71.3541C74.3331 191.744 76.7711 194.182 76.7711 197.161C76.7711 200.14 74.3341 202.578 71.3541 202.578Z" stroke="#FDFDFD" stroke-width="1.7008" stroke-miterlimit="10" stroke-linecap="round" stroke-linejoin="round"/>
<path d="M74.7083 197.285C74.7083 199.182 73.1703 200.719 71.2743 200.719C69.3783 200.719 67.8403 199.181 67.8403 197.285C67.8403 195.388 69.3773 193.851 71.2743 193.851C73.1713 193.851 74.7083 195.389 74.7083 197.285Z" fill="#FDFDFD"/>
<path d="M92.085 196.025L107.471 212.488L89.623 208.488L92.085 196.025Z" fill="#8DC63F"/>
<path d="M322.236 122.333H367.314C370.477 122.333 373.066 124.921 373.066 128.085V150.966C373.066 154.129 370.478 156.718 367.314 156.718H322.236C319.073 156.718 316.484 154.13 316.484 150.966V128.085C316.484 124.921 319.072 122.333 322.236 122.333Z" fill="#FBB040"/>
<path d="M354.274 149.169H333.694C333.419 149.169 333.194 148.944 333.194 148.669V132.122C333.194 131.847 333.419 131.622 333.694 131.622H354.274C354.549 131.622 354.774 131.847 354.774 132.122V148.669C354.774 148.944 354.549 149.169 354.274 149.169Z" stroke="#FDFDFD" stroke-width="1.7008" stroke-miterlimit="10" stroke-linecap="round" stroke-linejoin="round"/>
<path d="M336.246 128.353V134.02" stroke="#FDFDFD" stroke-miterlimit="10" stroke-linecap="round" stroke-linejoin="round"/>
<path d="M339.407 128.353V134.02" stroke="#FDFDFD" stroke-miterlimit="10" stroke-linecap="round" stroke-linejoin="round"/>
<path d="M342.567 128.353V134.02" stroke="#FDFDFD" stroke-miterlimit="10" stroke-linecap="round" stroke-linejoin="round"/>
<path d="M345.728 128.353V134.02" stroke="#FDFDFD" stroke-miterlimit="10" stroke-linecap="round" stroke-linejoin="round"/>
<path d="M348.889 128.353V134.02" stroke="#FDFDFD" stroke-miterlimit="10" stroke-linecap="round" stroke-linejoin="round"/>
<path d="M352.049 128.353V134.02" stroke="#FDFDFD" stroke-miterlimit="10" stroke-linecap="round" stroke-linejoin="round"/>
<path d="M337.234 138.812C337.569 138.812 337.84 138.54 337.84 138.206C337.84 137.871 337.569 137.6 337.234 137.6C336.899 137.6 336.628 137.871 336.628 138.206C336.628 138.54 336.899 138.812 337.234 138.812Z" fill="#FDFDFD"/>
<path d="M341.215 138.206C341.215 138.541 340.944 138.812 340.609 138.812C340.274 138.812 340.003 138.541 340.003 138.206C340.003 137.871 340.274 137.6 340.609 137.6C340.944 137.6 341.215 137.871 341.215 138.206Z" fill="#FDFDFD"/>
<path d="M343.984 138.812C344.319 138.812 344.59 138.54 344.59 138.206C344.59 137.871 344.319 137.6 343.984 137.6C343.649 137.6 343.378 137.871 343.378 138.206C343.378 138.54 343.649 138.812 343.984 138.812Z" fill="#FDFDFD"/>
<path d="M347.359 138.812C347.694 138.812 347.965 138.54 347.965 138.206C347.965 137.871 347.694 137.6 347.359 137.6C347.024 137.6 346.753 137.871 346.753 138.206C346.753 138.54 347.024 138.812 347.359 138.812Z" fill="#FDFDFD"/>
<path d="M350.734 138.812C351.069 138.812 351.34 138.54 351.34 138.206C351.34 137.871 351.069 137.6 350.734 137.6C350.399 137.6 350.128 137.871 350.128 138.206C350.128 138.54 350.399 138.812 350.734 138.812Z" fill="#FDFDFD"/>
<path d="M337.234 141.364C337.569 141.364 337.84 141.093 337.84 140.758C337.84 140.424 337.569 140.152 337.234 140.152C336.899 140.152 336.628 140.424 336.628 140.758C336.628 141.093 336.899 141.364 337.234 141.364Z" fill="#FDFDFD"/>
<path d="M341.215 140.758C341.215 141.093 340.944 141.364 340.609 141.364C340.274 141.364 340.003 141.093 340.003 140.758C340.003 140.423 340.274 140.152 340.609 140.152C340.944 140.152 341.215 140.423 341.215 140.758Z" fill="#FDFDFD"/>
<path d="M343.984 141.364C344.319 141.364 344.59 141.093 344.59 140.758C344.59 140.424 344.319 140.152 343.984 140.152C343.649 140.152 343.378 140.424 343.378 140.758C343.378 141.093 343.649 141.364 343.984 141.364Z" fill="#FDFDFD"/>
<path d="M347.359 141.364C347.694 141.364 347.965 141.093 347.965 140.758C347.965 140.424 347.694 140.152 347.359 140.152C347.024 140.152 346.753 140.424 346.753 140.758C346.753 141.093 347.024 141.364 347.359 141.364Z" fill="#FDFDFD"/>
<path d="M350.734 141.364C351.069 141.364 351.34 141.093 351.34 140.758C351.34 140.424 351.069 140.152 350.734 140.152C350.399 140.152 350.128 140.424 350.128 140.758C350.128 141.093 350.399 141.364 350.734 141.364Z" fill="#FDFDFD"/>
<path d="M337.234 143.917C337.569 143.917 337.84 143.646 337.84 143.311C337.84 142.976 337.569 142.705 337.234 142.705C336.899 142.705 336.628 142.976 336.628 143.311C336.628 143.646 336.899 143.917 337.234 143.917Z" fill="#FDFDFD"/>
<path d="M341.215 143.311C341.215 143.646 340.944 143.917 340.609 143.917C340.274 143.917 340.003 143.646 340.003 143.311C340.003 142.976 340.274 142.705 340.609 142.705C340.944 142.705 341.215 142.976 341.215 143.311Z" fill="#FDFDFD"/>
<path d="M343.984 143.917C344.319 143.917 344.59 143.646 344.59 143.311C344.59 142.976 344.319 142.705 343.984 142.705C343.649 142.705 343.378 142.976 343.378 143.311C343.378 143.646 343.649 143.917 343.984 143.917Z" fill="#FDFDFD"/>
<path d="M347.359 143.917C347.694 143.917 347.965 143.646 347.965 143.311C347.965 142.976 347.694 142.705 347.359 142.705C347.024 142.705 346.753 142.976 346.753 143.311C346.753 143.646 347.024 143.917 347.359 143.917Z" fill="#FDFDFD"/>
<path d="M350.734 143.917C351.069 143.917 351.34 143.646 351.34 143.311C351.34 142.976 351.069 142.705 350.734 142.705C350.399 142.705 350.128 142.976 350.128 143.311C350.128 143.646 350.399 143.917 350.734 143.917Z" fill="#FDFDFD"/>
<path d="M337.234 146.471C337.569 146.471 337.84 146.199 337.84 145.865C337.84 145.53 337.569 145.259 337.234 145.259C336.899 145.259 336.628 145.53 336.628 145.865C336.628 146.199 336.899 146.471 337.234 146.471Z" fill="#FDFDFD"/>
<path d="M341.215 145.865C341.215 146.2 340.944 146.471 340.609 146.471C340.274 146.471 340.003 146.2 340.003 145.865C340.003 145.53 340.274 145.259 340.609 145.259C340.944 145.259 341.215 145.53 341.215 145.865Z" fill="#FDFDFD"/>
<path d="M343.984 146.471C344.319 146.471 344.59 146.199 344.59 145.865C344.59 145.53 344.319 145.259 343.984 145.259C343.649 145.259 343.378 145.53 343.378 145.865C343.378 146.199 343.649 146.471 343.984 146.471Z" fill="#FDFDFD"/>
<path d="M347.359 146.471C347.694 146.471 347.965 146.199 347.965 145.865C347.965 145.53 347.694 145.259 347.359 145.259C347.024 145.259 346.753 145.53 346.753 145.865C346.753 146.199 347.024 146.471 347.359 146.471Z" fill="#FDFDFD"/>
<path d="M350.734 146.471C351.069 146.471 351.34 146.199 351.34 145.865C351.34 145.53 351.069 145.259 350.734 145.259C350.399 145.259 350.128 145.53 350.128 145.865C350.128 146.199 350.399 146.471 350.734 146.471Z" fill="#FDFDFD"/>
<path d="M336.733 153.44L320.27 168.826L324.27 150.978L336.733 153.44Z" fill="#FBB040"/>
</svg>
