<svg width="500" height="500" viewBox="0 0 500 500" fill="none" xmlns="http://www.w3.org/2000/svg">
<path d="M60.355 115.138L60.798 276.008L91.014 293.567L90.571 132.697L60.355 115.138Z" fill="#0097B2"/>
<path d="M90.5708 132.697L91.0138 293.567L121.427 276.008L120.984 115.138L90.5708 132.697Z" fill="#0097B2"/>
<path d="M60.355 115.138L90.571 132.697L120.984 115.138L90.769 97.5781L60.355 115.138Z" fill="#0097B2"/>
<path d="M21.835 233.31L22.277 298.248L52.493 315.807L52.051 250.869L21.835 233.31Z" fill="#FFC400"/>
<path d="M52.0508 250.869L52.4928 315.807L82.9058 298.248L82.4638 233.31L52.0508 250.869Z" fill="#FF9900"/>
<path d="M21.835 233.31L52.051 250.869L82.464 233.31L52.248 215.751L21.835 233.31Z" fill="#FFDE38"/>
<path d="M158.385 322.317L428.917 478.504L428.921 250.512L158.388 94.3232L158.385 322.317Z" fill="#FFC400"/>
<path d="M158.388 94.3234L428.921 250.512L293.656 53.8574L158.388 94.3234Z" fill="#FFDE38"/>
<path d="M158.385 322.317L428.917 478.504L296.114 281.479L158.385 322.317Z" fill="#FF9900"/>
<path d="M158.385 322.317L428.917 478.504L293.653 286.414L158.385 322.317Z" fill="#FFC400"/>
<path d="M428.921 250.512L158.388 94.3232L293.653 286.414L428.921 250.512Z" fill="#FF9900"/>
<path d="M41.2079 245.541L38.8999 246.882C39.6799 246.429 40.7589 246.493 41.9509 247.181L44.2589 245.84C43.0669 245.152 41.9879 245.088 41.2079 245.541Z" fill="#6E8111"/>
<mask id="mask0_500_5" style="mask-type:luminance" maskUnits="userSpaceOnUse" x="38" y="245" width="7" height="3">
<path d="M41.2079 245.541L38.8999 246.882C39.6799 246.429 40.7589 246.493 41.9509 247.181L44.2589 245.84C43.0669 245.152 41.9879 245.088 41.2079 245.541Z" fill="white"/>
</mask>
<g mask="url(#mask0_500_5)">
<path d="M41.9509 247.181L44.2589 245.84C43.0669 245.152 41.9879 245.088 41.2079 245.542L38.8999 246.883C39.6799 246.429 40.7589 246.493 41.9509 247.181Z" fill="#6E8111"/>
</g>
<path d="M61.981 293.821L64.289 292.479L71.525 282.318L69.216 283.659L61.981 293.821Z" fill="#6E8111"/>
<path d="M85.2109 291.43L87.5189 290.089C88.2889 289.641 88.7669 288.69 88.7699 287.339L86.4619 288.68C86.4589 290.031 85.9809 290.983 85.2109 291.43Z" fill="#6E8111"/>
<mask id="mask1_500_5" style="mask-type:luminance" maskUnits="userSpaceOnUse" x="85" y="287" width="4" height="5">
<path d="M85.2109 291.43L87.5189 290.089C88.2889 289.641 88.7669 288.69 88.7699 287.339L86.4619 288.68C86.4589 290.031 85.9809 290.983 85.2109 291.43Z" fill="white"/>
</mask>
<g mask="url(#mask1_500_5)">
<path d="M85.2109 291.43L87.5189 290.089C88.2889 289.641 88.7669 288.69 88.7699 287.339L86.4619 288.68C86.4589 290.031 85.9809 290.983 85.2109 291.43Z" fill="#6E8111"/>
</g>
<path d="M86.4619 288.68L88.7699 287.339L88.8089 276.496L86.4999 277.837L86.4619 288.68Z" fill="#6E8111"/>
<path d="M82.2257 270.434L84.5337 269.092L44.2587 245.84L41.9507 247.181L82.2257 270.434Z" fill="#6E8111"/>
<path d="M86.5001 277.837L88.8081 276.496C88.8151 273.776 86.9001 270.458 84.5331 269.092L82.2251 270.433C84.5931 271.8 86.5081 275.118 86.5001 277.837Z" fill="#6E8111"/>
<mask id="mask2_500_5" style="mask-type:luminance" maskUnits="userSpaceOnUse" x="82" y="269" width="7" height="9">
<path d="M86.5001 277.837L88.8081 276.496C88.8151 273.776 86.9001 270.458 84.5331 269.092L82.2251 270.433C84.5931 271.8 86.5081 275.118 86.5001 277.837Z" fill="white"/>
</mask>
<g mask="url(#mask2_500_5)">
<path d="M86.5001 277.837L88.8081 276.496C88.8151 273.776 86.9001 270.458 84.5331 269.092L82.2251 270.433C84.5931 271.8 86.5081 275.118 86.5001 277.837Z" fill="#6E8111"/>
</g>
<path d="M41.9509 247.181C39.5819 245.813 37.6559 246.913 37.6479 249.633L37.6099 260.476C37.6019 263.196 39.5149 266.512 41.8849 267.88L54.8279 275.353L61.9809 293.821L69.2169 283.66L82.1599 291.133C84.5269 292.5 86.4549 291.401 86.4629 288.681L86.5009 277.838C86.5089 275.118 84.5929 271.801 82.2259 270.434L41.9509 247.181Z" fill="#9AB700"/>
<path d="M40.7088 260.121C41.5008 260.66 41.9498 260.949 41.9538 259.892V254.786L43.1718 255.489V261.212C43.1718 261.686 43.1448 262.357 42.7098 262.429C42.2488 262.506 41.1458 261.817 40.6938 261.213L40.7088 260.121Z" fill="white"/>
<path d="M46.5498 257.388C48.0548 258.257 49.1038 259.195 49.1038 262.657C49.1038 265.917 48.1158 265.771 46.5498 264.866C44.9848 263.962 43.9888 263.064 43.9888 259.703C43.9888 256.243 45.0888 256.545 46.5498 257.388ZM46.5498 263.565C47.5718 264.155 47.8858 263.945 47.8858 261.954C47.8858 259.652 47.5178 259.249 46.5498 258.69C45.6078 258.147 45.2068 258.056 45.2068 260.408C45.2068 262.424 45.4628 262.938 46.5498 263.565Z" fill="white"/>
<path d="M49.9229 259.386L52.5479 260.902C53.8659 261.663 54.3439 262.851 54.3439 263.912C54.3439 264.592 54.0939 265.214 53.4719 264.988C54.0029 265.407 54.4459 266.276 54.4459 267.216C54.4459 268.59 53.9108 269.077 52.5718 268.304L49.9229 266.775V259.386ZM52.4759 263.788C52.9129 264.04 53.1449 263.865 53.1449 263.337C53.1449 262.652 52.7849 262.286 52.4759 262.107L51.1439 261.338V263.018L52.4759 263.788ZM52.5238 267.03C52.8938 267.243 53.2279 267.233 53.2279 266.448C53.2279 265.907 53.0388 265.304 52.5238 265.006L51.1439 264.209V266.233L52.5238 267.03Z" fill="white"/>
<path d="M59.8159 265.047C61.3209 265.916 62.3699 266.854 62.3699 270.316C62.3699 273.576 61.3819 273.429 59.8159 272.526C58.2499 271.622 57.2539 270.724 57.2539 267.363C57.2539 263.902 58.3539 264.203 59.8159 265.047ZM59.8159 271.224C60.8379 271.814 61.1519 271.604 61.1519 269.613C61.1519 267.311 60.7839 266.908 59.8159 266.349C58.8739 265.806 58.4729 265.715 58.4729 268.066C58.4719 270.083 58.7279 270.596 59.8159 271.224Z" fill="white"/>
<path d="M62.9907 268.487C62.9907 267.281 63.7067 267.325 64.3737 267.729C64.3737 267.729 66.6157 269.096 67.1747 269.508V270.676L64.6607 269.224C64.2087 268.963 64.2087 269.255 64.2087 269.528V270.68L66.7797 272.271V273.432L64.2087 272.043V275.02L62.9907 274.317V268.487Z" fill="white"/>
<path d="M67.9219 271.334C67.9219 270.129 68.6379 270.172 69.3049 270.576C69.3049 270.576 71.5469 271.943 72.1069 272.355V273.523L69.5919 272.071C69.1399 271.81 69.1399 272.103 69.1399 272.375V273.527L71.7109 275.118V276.28L69.1399 274.891V277.868L67.9219 277.165V271.334Z" fill="white"/>
<path d="M72.855 274.16C72.855 272.878 73.638 273.064 74.238 273.425C74.238 273.425 76.48 274.792 77.039 275.204V276.372L74.525 274.92C74.073 274.659 74.073 274.952 74.073 275.224V276.376L76.644 277.967V279.129L74.073 277.74V278.892C74.076 279.429 74.36 279.582 74.612 279.728L77.039 281.129V282.287C76.546 282.08 74.324 280.891 74.324 280.891C73.756 280.593 72.854 279.922 72.854 278.56V274.16H72.855Z" fill="white"/>
<path d="M77.728 275.439L80.514 277.047C81.507 277.621 82.247 278.587 82.247 280.351C82.247 282.18 81.587 282.015 81.233 281.94L82.439 285.545L81.069 284.754L80.016 281.35L78.946 280.591V283.528L77.729 282.825L77.728 275.439ZM80.394 280.319C80.818 280.564 81.021 280.536 81.021 279.644C81.021 278.805 80.777 278.456 80.394 278.235L78.951 277.402V279.486L80.394 280.319Z" fill="white"/>
<path d="M455.249 366.066L457.449 364.788L457.313 412.59L455.113 413.869L455.249 366.066Z" fill="#0097B2"/>
<path d="M413.653 342.051L415.853 340.772L457.449 364.788L455.249 366.066L413.653 342.051Z" fill="#0097B2"/>
<path d="M455.249 366.067L455.113 413.87L413.517 389.854L413.653 342.052L455.249 366.067Z" fill="#0097B2"/>
<path d="M435.895 392.484C435.718 392.484 435.53 392.429 435.342 392.322L429.776 389.108C429.232 388.795 428.798 388.08 428.744 387.408C428.304 381.951 425.396 374.45 425.066 373.613C423.717 369.992 424.163 366.434 426.167 364.74C427.809 363.352 430.203 363.447 432.909 365.009C437.159 367.462 439.943 372.438 440.817 376.281C441.391 378.808 441.215 380.921 440.319 382.231C440.183 382.416 437.168 386.59 436.723 391.617C436.691 391.982 436.527 392.26 436.261 392.398C436.148 392.455 436.024 392.484 435.895 392.484ZM428.937 364.465C428.041 364.465 427.256 364.734 426.618 365.273C424.866 366.754 424.493 370.075 425.713 373.349C426.05 374.204 428.992 381.794 429.44 387.352C429.476 387.797 429.777 388.302 430.126 388.503L435.691 391.718C435.818 391.79 435.903 391.796 435.939 391.777C435.972 391.76 436.015 391.691 436.028 391.555C436.49 386.337 439.615 382.01 439.749 381.828C440.517 380.706 440.66 378.737 440.136 376.436C439.296 372.742 436.628 367.962 432.56 365.614C431.236 364.848 430.008 364.465 428.937 364.465Z" fill="white"/>
<path d="M432.721 363.357C432.528 363.357 432.372 363.201 432.372 363.008V357.24C432.372 357.047 432.528 356.891 432.721 356.891C432.914 356.891 433.07 357.047 433.07 357.24V363.008C433.07 363.2 432.914 363.357 432.721 363.357Z" fill="white"/>
<path d="M427.366 361.67C427.226 361.67 427.094 361.585 427.041 361.447L424.675 355.349C424.605 355.17 424.694 354.967 424.874 354.897C425.053 354.826 425.257 354.916 425.326 355.096L427.692 361.195C427.762 361.374 427.673 361.577 427.493 361.647C427.451 361.662 427.409 361.67 427.366 361.67Z" fill="white"/>
<path d="M423.273 363.747C423.171 363.747 423.07 363.703 423.001 363.617L418.675 358.236C418.554 358.085 418.578 357.866 418.728 357.745C418.878 357.624 419.098 357.648 419.219 357.798L423.545 363.179C423.666 363.33 423.642 363.55 423.492 363.67C423.427 363.722 423.35 363.747 423.273 363.747Z" fill="white"/>
<path d="M421.533 369.083C421.474 369.083 421.414 369.068 421.358 369.036L416.363 366.152C416.196 366.056 416.139 365.842 416.235 365.675C416.331 365.508 416.546 365.451 416.712 365.547L421.706 368.431C421.873 368.527 421.93 368.741 421.834 368.908C421.771 369.021 421.653 369.083 421.533 369.083Z" fill="white"/>
<path d="M418.659 376.869C418.48 376.869 418.328 376.732 418.312 376.551C418.295 376.359 418.437 376.189 418.629 376.172L422.955 375.785C423.147 375.775 423.317 375.908 423.334 376.102C423.351 376.294 423.209 376.464 423.018 376.481L418.692 376.868C418.68 376.868 418.67 376.869 418.659 376.869Z" fill="white"/>
<path d="M438.076 367.853C438.006 367.853 437.936 367.833 437.875 367.79C437.717 367.679 437.679 367.461 437.79 367.303L440.156 363.937C440.268 363.779 440.485 363.74 440.643 363.852C440.801 363.963 440.839 364.181 440.728 364.338L438.362 367.705C438.294 367.801 438.186 367.853 438.076 367.853Z" fill="white"/>
<path d="M442.168 374.657C441.989 374.657 441.837 374.52 441.821 374.339C441.804 374.147 441.946 373.977 442.138 373.96L446.464 373.574C446.656 373.558 446.826 373.698 446.843 373.891C446.86 374.083 446.718 374.253 446.527 374.27L442.201 374.656C442.189 374.656 442.179 374.657 442.168 374.657Z" fill="white"/>
<path d="M448.904 384.884C448.845 384.884 448.785 384.869 448.729 384.837L443.735 381.953C443.568 381.857 443.51 381.643 443.607 381.476C443.703 381.309 443.917 381.252 444.084 381.348L449.078 384.232C449.245 384.328 449.303 384.542 449.206 384.709C449.142 384.822 449.024 384.884 448.904 384.884Z" fill="white"/>
<path d="M446.783 393.104C446.681 393.104 446.58 393.06 446.511 392.974L442.185 387.593C442.064 387.442 442.088 387.222 442.238 387.102C442.388 386.981 442.608 387.004 442.729 387.155L447.055 392.536C447.176 392.687 447.152 392.906 447.002 393.027C446.937 393.079 446.86 393.104 446.783 393.104Z" fill="white"/>
<path d="M435.888 399.761C435.738 399.761 435.58 399.716 435.425 399.627L429.667 396.303C429.201 396.033 428.85 395.425 428.85 394.888V391.262C428.85 390.939 428.982 390.677 429.213 390.543C429.445 390.411 429.738 390.428 430.017 390.589L435.776 393.913C436.242 394.182 436.593 394.79 436.593 395.328V398.954C436.593 399.277 436.461 399.539 436.23 399.672C436.126 399.731 436.01 399.761 435.888 399.761ZM435.774 399.022C435.832 399.055 435.868 399.061 435.882 399.062C435.881 399.054 435.893 399.02 435.893 398.954V395.328C435.893 395.045 435.67 394.659 435.426 394.517L429.667 391.193C429.609 391.16 429.574 391.154 429.559 391.152C429.56 391.161 429.548 391.194 429.548 391.261V394.887C429.548 395.17 429.771 395.556 430.016 395.698L435.774 399.022Z" fill="white"/>
<path d="M433.846 391.403C433.836 391.403 433.826 391.402 433.815 391.402C433.623 391.386 433.481 391.217 433.497 391.024L434.149 383.429C434.189 382.953 433.826 382.288 433.386 382.033L431.706 381.063C431.571 380.986 431.449 380.962 431.387 380.999C431.332 381.034 431.275 381.154 431.292 381.38L431.944 389.728C431.959 389.921 431.816 390.088 431.623 390.103C431.441 390.128 431.263 389.975 431.248 389.782L430.596 381.434C430.56 380.971 430.713 380.598 431.014 380.407C431.303 380.225 431.682 380.243 432.054 380.458L433.734 381.427C434.41 381.817 434.908 382.741 434.843 383.488L434.191 391.083C434.177 391.266 434.025 391.403 433.846 391.403Z" fill="white"/>
<path d="M455.249 307.21L457.449 305.931L457.313 353.728L455.113 355.007L455.249 307.21Z" fill="#6E8111"/>
<path d="M413.653 283.194L415.853 281.916L457.449 305.931L455.249 307.21L413.653 283.194Z" fill="#6E8111"/>
<path d="M455.249 307.21L455.113 355.007L413.517 330.991L413.653 283.194L455.249 307.21Z" fill="#9AB700"/>
<path d="M448.209 343.493C448.008 343.493 447.794 343.432 447.582 343.309L420.035 327.405C419.371 327.021 418.85 326.12 418.851 325.353V311.816L424.056 314.821V318.045L426.583 319.504V316.279L441.378 324.821V328.045L443.911 329.507V326.282L449.116 329.287V342.421C449.116 342.856 448.945 343.204 448.645 343.377C448.514 343.456 448.365 343.493 448.209 343.493ZM419.549 313.028V325.355C419.548 325.878 419.93 326.539 420.384 326.801L447.931 342.705C448.08 342.791 448.222 342.818 448.295 342.775C448.371 342.731 448.416 342.6 448.416 342.424V329.694L444.608 327.496V330.721L440.678 328.452V325.228L427.28 317.493V320.718L423.356 318.453V315.229L419.549 313.028Z" fill="white"/>
<path d="M427.281 320.716L423.357 318.451V310.282L427.281 312.547V320.716ZM424.056 318.047L426.583 319.506V312.951L424.056 311.492V318.047Z" fill="white"/>
<path d="M444.609 330.72L440.679 328.451V320.282L444.609 322.551V330.72ZM441.378 328.047L443.911 329.509V322.954L441.378 321.492V328.047Z" fill="white"/>
<path d="M448.746 329.621C448.448 329.621 448.127 329.526 447.8 329.337L443.909 327.092V322.955L441.376 321.493V325.631L426.581 317.089V312.951L424.054 311.492V315.63L419.808 313.178C418.746 312.565 417.914 311.121 417.914 309.891V295.334L450.048 313.886V328.04C450.048 328.702 449.806 329.205 449.368 329.458C449.182 329.567 448.971 329.621 448.746 329.621ZM444.609 326.688L448.15 328.733C448.493 328.93 448.811 328.975 449.021 328.853C449.231 328.732 449.352 328.435 449.352 328.04V314.29L418.615 296.545V309.891C418.615 310.862 419.323 312.09 420.16 312.574L423.358 314.42V310.283L427.282 312.548V316.686L440.68 324.421V320.283L444.61 322.552L444.609 326.688Z" fill="white"/>
<path d="M441.349 309.669L426.617 301.163V299.549C426.617 298.71 426.92 298.073 427.469 297.756C428.02 297.438 428.722 297.495 429.449 297.914L438.866 303.351C440.235 304.142 441.348 306.071 441.348 307.651V309.669H441.349ZM427.316 300.76L440.65 308.459V307.651C440.65 306.316 439.673 304.624 438.517 303.956L429.1 298.519C428.599 298.23 428.143 298.173 427.819 298.361C427.494 298.548 427.315 298.97 427.315 299.549V300.76H427.316Z" fill="white"/>
<path d="M455.249 248.351L457.449 247.072L457.313 294.869L455.113 296.148L455.249 248.351Z" fill="#043D82"/>
<path d="M413.653 224.336L415.853 223.058L457.449 247.073L455.249 248.352L413.653 224.336Z" fill="#3574E0"/>
<path d="M455.249 248.352L455.113 296.149L413.517 272.133L413.653 224.336L455.249 248.352Z" fill="#1D55B5"/>
<path d="M437.006 261.739C436.126 261.739 435.16 261.449 434.163 260.874C430.773 258.918 428.016 254.141 428.016 250.227C428.016 248.255 428.699 246.775 429.94 246.058C431.181 245.341 432.805 245.49 434.513 246.476C437.903 248.433 440.66 253.209 440.66 257.123C440.66 259.095 439.977 260.576 438.736 261.292C438.218 261.591 437.634 261.739 437.006 261.739ZM431.672 246.31C431.164 246.31 430.698 246.427 430.29 246.663C429.275 247.249 428.715 248.515 428.715 250.227C428.715 253.919 431.316 258.424 434.513 260.27C435.996 261.126 437.372 261.274 438.386 260.688C439.401 260.101 439.961 258.836 439.961 257.124C439.961 253.432 437.36 248.927 434.163 247.081C433.276 246.569 432.428 246.31 431.672 246.31Z" fill="white"/>
<path d="M439.187 268.043C437.634 268.043 435.92 267.529 434.162 266.513C431.354 264.892 428.682 262.135 426.64 258.749C424.378 255.015 423.132 250.987 423.132 247.408C423.132 243.929 424.323 241.325 426.486 240.077C428.648 238.828 431.499 239.098 434.512 240.838C440.595 244.35 445.543 252.92 445.542 259.943C445.542 263.55 444.211 266.28 441.891 267.432C441.072 267.84 440.162 268.043 439.187 268.043ZM429.49 240.003C428.517 240.003 427.622 240.228 426.836 240.682C424.898 241.801 423.831 244.189 423.831 247.408C423.831 250.812 425.073 254.814 427.238 258.388C429.221 261.675 431.805 264.345 434.512 265.909C437.163 267.439 439.676 267.758 441.58 266.807C443.655 265.777 444.844 263.276 444.844 259.944C444.845 253.143 440.054 244.844 434.163 241.443C432.506 240.487 430.915 240.003 429.49 240.003Z" fill="white"/>
<path d="M429.707 278.259H429.706C429.562 278.258 429.434 278.17 429.382 278.036L426.875 271.559L422.194 270.746C422.091 270.728 422.001 270.665 421.949 270.573C421.898 270.482 421.89 270.372 421.929 270.274L426.613 258.439C426.662 258.315 426.777 258.23 426.909 258.219C427.037 258.211 427.168 258.273 427.236 258.386C429.219 261.673 431.803 264.343 434.51 265.907C434.618 265.969 434.685 266.084 434.685 266.209V266.216C434.685 266.26 434.677 266.303 434.66 266.344L430.031 278.037C429.98 278.172 429.851 278.259 429.707 278.259ZM422.738 270.132L427.19 270.905C427.311 270.925 427.412 271.009 427.455 271.123L429.711 276.952L433.905 266.361C431.357 264.822 428.934 262.355 427.009 259.342L422.738 270.132Z" fill="white"/>
<path d="M445.133 279.962C445.044 279.962 444.956 279.928 444.889 279.862L440.303 275.364L437.967 278.714C437.889 278.825 437.756 278.886 437.621 278.858C437.487 278.835 437.379 278.736 437.343 278.605L434 266.309C433.992 266.28 433.988 266.248 433.988 266.218C433.988 266.093 434.055 265.974 434.163 265.912C434.27 265.849 434.404 265.845 434.512 265.909C437.163 267.439 439.676 267.758 441.58 266.807C441.673 266.76 441.784 266.757 441.879 266.801C441.974 266.843 442.046 266.927 442.073 267.028L445.47 279.522C445.512 279.674 445.445 279.835 445.31 279.915C445.254 279.946 445.194 279.962 445.133 279.962ZM440.252 274.477C440.343 274.477 440.431 274.512 440.496 274.577L444.457 278.462L441.505 267.607C439.625 268.372 437.314 268.126 434.885 266.905L437.822 277.702L439.966 274.627C440.025 274.543 440.117 274.489 440.22 274.479C440.231 274.478 440.241 274.477 440.252 274.477Z" fill="white"/>
<path d="M455.317 189.492L457.517 188.213L457.381 236.01L455.181 237.289L455.317 189.492Z" fill="#FF9900"/>
<path d="M413.721 165.476L415.921 164.198L457.517 188.213L455.317 189.492L413.721 165.476Z" fill="#FFDE38"/>
<path d="M455.317 189.493L455.181 237.29L413.585 213.274L413.721 165.477L455.317 189.493Z" fill="#FFC400"/>
<path d="M434.757 207.421L417.135 185.439L435.109 183.9L452.733 205.873L434.757 207.421ZM418.498 186.024L435.068 206.693L451.369 205.29L434.798 184.628L418.498 186.024Z" fill="white"/>
<path d="M446.344 222.473L445.92 222.38C436.504 220.296 432.947 218.231 423.537 209.379L423.427 209.275V209.124C423.435 205.455 423.445 202.57 423.454 199.799L423.477 192.234L435.069 206.692L446.367 205.72L446.361 211.092C446.358 214.362 446.355 217.59 446.346 222.04L446.344 222.473ZM424.126 208.974C433.194 217.493 436.738 219.593 445.647 221.603C445.656 217.376 445.659 214.253 445.661 211.091L445.666 206.481L434.757 207.42L424.17 194.216L424.152 199.801C424.143 202.534 424.134 205.378 424.126 208.974Z" fill="white"/>
<path d="M420.719 188.864L420.434 189.501L434.283 195.701L434.568 195.064L420.719 188.864Z" fill="white"/>
<path d="M420.916 189.163H420.217V203.899H420.916V189.163Z" fill="white"/>
<path d="M423.483 212.945L417.466 209.471L417.467 209.268C417.477 206.183 418.17 203.871 419.273 203.236C419.708 202.988 420.185 202.996 420.649 203.265C422.224 204.175 423.468 208.16 423.481 212.337L423.483 212.945ZM418.167 209.069L422.771 211.727C422.643 207.782 421.429 204.523 420.299 203.87C420.051 203.728 419.837 203.718 419.62 203.843C418.942 204.233 418.208 206.031 418.167 209.069Z" fill="white"/>
<path d="M435.518 195.264C434.909 194.507 433.923 193.937 433.314 193.992C432.706 194.046 432.706 194.704 433.314 195.461C433.922 196.218 434.909 196.788 435.518 196.733C436.127 196.678 436.127 196.021 435.518 195.264Z" fill="white"/>
<path d="M381.214 370.634L210.851 272.278L210.854 17.5449L381.217 115.902L381.214 370.634Z" fill="#EBEEFC"/>
<path d="M371.85 260.528L219.031 172.301V158.945L371.85 247.172V260.528Z" fill="#3574E0"/>
<path d="M228.044 238.078C228.044 235.204 226.026 231.709 223.537 230.272C221.048 228.835 219.03 230 219.03 232.874C219.03 235.748 221.048 239.243 223.537 240.68C226.026 242.117 228.044 240.952 228.044 238.078Z" fill="#3574E0"/>
<path d="M289.537 278.039L232.73 245.242V236.665L289.537 269.461V278.039Z" fill="#DADFF6"/>
<path d="M228.044 253.984C228.044 251.11 226.026 247.615 223.537 246.178C221.048 244.741 219.03 245.906 219.03 248.78C219.03 251.654 221.048 255.149 223.537 256.586C226.026 258.022 228.044 256.858 228.044 253.984Z" fill="#3574E0"/>
<path d="M289.537 293.944L232.73 261.148V252.571L289.537 285.367V293.944Z" fill="#DADFF6"/>
<path d="M309.633 285.181C309.633 282.307 307.615 278.812 305.126 277.375C302.637 275.938 300.619 277.103 300.619 279.977C300.619 282.851 302.637 286.346 305.126 287.783C307.615 289.22 309.633 288.056 309.633 285.181Z" fill="#3574E0"/>
<path d="M371.125 325.143L314.319 292.347V283.77L371.125 316.566V325.143Z" fill="#DADFF6"/>
<path d="M309.632 301.087C309.632 298.213 307.614 294.718 305.125 293.281C302.636 291.844 300.618 293.009 300.618 295.883C300.618 298.757 302.636 302.252 305.125 303.689C307.615 305.126 309.632 303.961 309.632 301.087Z" fill="#3574E0"/>
<path d="M371.125 341.048L314.318 308.252V299.675L371.125 332.471V341.048Z" fill="#DADFF6"/>
<path d="M228.044 269.889C228.044 267.015 226.026 263.52 223.537 262.083C221.048 260.646 219.03 261.811 219.03 264.685C219.03 267.559 221.048 271.054 223.537 272.491C226.026 273.928 228.044 272.763 228.044 269.889Z" fill="#3574E0"/>
<path d="M289.536 309.851L232.73 277.055V268.478L289.537 301.274L289.536 309.851Z" fill="#DADFF6"/>
<path d="M309.632 316.993C309.632 314.119 307.614 310.624 305.125 309.187C302.636 307.75 300.618 308.915 300.618 311.789C300.618 314.663 302.636 318.158 305.125 319.595C307.614 321.032 309.632 319.867 309.632 316.993Z" fill="#3574E0"/>
<path d="M371.125 356.954L314.318 324.158V315.581L371.125 348.377V356.954Z" fill="#DADFF6"/>
<path d="M371.126 276.339L219.031 188.529V179.952L371.126 267.762V276.339Z" fill="#DADFF6"/>
<path d="M371.126 292.074L219.031 204.264V195.688L371.126 283.497V292.074Z" fill="#DADFF6"/>
<path d="M307.207 271.248L219.031 220.341V211.764L307.207 262.671V271.248Z" fill="#DADFF6"/>
<path d="M253.753 154.944C254.483 156.344 255.263 157.745 256.067 159.134C256.189 159.341 256.311 159.56 256.432 159.767C259.27 164.603 262.34 169.133 265.591 173.311C267.357 175.602 269.185 177.782 271.06 179.839C271.145 179.938 271.231 180.035 271.317 180.12C272.011 180.887 272.705 181.63 273.411 182.349C277.783 186.892 282.352 190.826 286.979 194.066C294.786 199.547 302.764 203.055 310.219 204.2C312.387 204.528 314.519 204.662 316.589 204.59C321.022 204.443 325.176 203.348 328.903 201.192C331.107 199.913 333.068 198.329 334.797 196.466C348.78 181.351 346.819 148.1 328.903 117.077C308.794 82.2417 276.175 63.4117 256.066 75.0307C236.749 86.1747 235.982 121.327 253.753 154.944Z" fill="#3574E0"/>
<path d="M253.753 154.944C254.483 156.344 255.263 157.745 256.067 159.134C256.189 159.341 256.311 159.56 256.432 159.767C260.817 167.258 265.774 174.005 271.06 179.839C274.167 166.222 278.307 148.489 280.037 145.102C282.657 139.95 273.533 151.327 268.247 149.329C264.435 147.88 259.66 148.489 256.712 151.363C255.604 152.434 254.618 153.641 253.753 154.944Z" fill="#98A4E0"/>
<path d="M298.959 153.716C298.959 153.716 272.17 167.183 273.459 152.31C275.256 131.582 276.573 129.269 285.864 126.594C288.408 125.86 289.409 123.714 292.046 123.819C301.663 124.204 297.629 129.224 297.051 132.861C295.328 143.648 299.131 148.005 298.959 153.716Z" fill="#4D2F25"/>
<path d="M265.591 149.158V173.31C267.357 175.601 269.185 177.781 271.06 179.838C276.139 185.454 281.523 190.24 286.979 194.065H308.635L305.749 151.471C300.012 148.865 298.964 147.818 292.948 146.454C291.974 146.234 288.698 147.476 287.711 147.269C280.403 145.722 272.608 146.064 265.823 149.047C265.75 149.086 265.677 149.121 265.591 149.158Z" fill="#4D2F25"/>
<path d="M300.612 158.655C302.411 157.228 306.784 151.85 306.784 151.85C305.09 151.08 303.729 150.422 302.476 149.829C299.236 155.122 289.001 162.641 279.045 161.38C274.394 160.789 272.866 155.779 268.793 148.057C267.798 148.377 266.78 148.628 265.821 149.05C265.746 149.085 265.672 149.124 265.595 149.159C265.595 149.159 270.73 159.27 273.621 162.161C281.007 169.547 295.281 162.885 300.612 158.655Z" fill="#EBEEFC"/>
<path d="M274.766 145.69C274.643 145.694 274.524 145.702 274.402 145.705C275.469 145.378 276.083 145.655 274.766 145.69Z" fill="#BFC7ED"/>
<path d="M256.432 159.767C272.814 187.781 297.272 205.272 316.589 204.59C317.491 202.422 318.294 200.327 319.573 198.244C321.181 195.626 322.508 192.97 324.129 190.364C325.663 187.891 327.04 185.321 327.685 182.471C328.221 180.071 328.879 177.672 328.989 175.174C329.025 174.285 329.012 173.432 328.964 172.605C328.647 167.842 326.771 164.176 322.569 161.07C317.637 157.44 311.985 155.004 306.772 151.849C302.632 164.041 290 169.108 280.829 165.99C279.697 165.613 278.637 165.065 277.686 164.31C274.02 161.605 270.732 158.974 271.145 150.582C271.317 147.269 273.155 146.075 274.398 145.698C261.767 146.15 258.49 152.13 256.432 159.767Z" fill="#BFC7ED"/>
<path d="M271.316 180.121C272.01 180.888 272.704 181.631 273.41 182.35C275.249 176.297 277.539 170.413 279.22 164.299C279.415 163.592 278.441 163.215 278.063 163.812C275.031 168.721 272.948 174.408 271.316 180.121Z" fill="#EBEEFC"/>
<path d="M270.978 148.755C270.851 152.311 272.166 157.214 274.115 160.203C275.046 161.631 278.181 162.894 279.769 163.517C278.88 164.47 273.67 168.127 272.499 168.774C270.449 169.905 268.433 170.439 266.392 169.034C263.661 167.153 261.678 161.199 266.386 152.608C266.913 151.647 267.524 150.738 268.325 149.997C268.707 149.643 269.084 149.31 269.558 149.084C269.67 149.032 270.982 148.642 270.978 148.755Z" fill="#EBEEFC"/>
<path d="M304.736 151.782C304.999 151.754 305.201 151.834 305.343 152.025C305.387 153.224 303.531 150.777 302.673 151.339C299.837 153.198 298.079 158.727 293.193 161.645C286.137 165.86 279.595 163.457 278.976 163.202C278.712 166.514 278.481 173.931 281.296 175.339C287.962 178.673 298.799 173.657 302.736 169.306C304.85 166.971 306.352 165.268 307.801 162.479C308.652 160.84 309.781 159.004 309.475 157.082C309.357 156.346 307.973 152.747 306.784 151.851L304.736 151.782Z" fill="#EBEEFC"/>
<path d="M313.905 128.564C313.951 126.483 313.877 124.405 313.611 122.343C313.045 117.952 311.428 108.693 306.75 103.84C304.446 104.079 304.076 110.916 301.823 111.383C299.677 111.832 297.79 113.269 295.857 114.273C294.668 114.891 292.672 115.495 292.135 116.874C291.121 119.476 294.694 123.82 295.757 126.144C298.098 131.277 298.32 137.143 298.033 142.688C297.725 148.608 295.729 154.445 292.266 159.266C289.581 163.001 286.079 166.119 283.61 169.999C279.885 175.853 278.791 183.311 280.673 189.987C282.681 186.535 284.727 183.031 287.629 180.29C291.455 176.681 296.517 174.632 300.471 171.164C304.177 167.914 306.755 163.535 308.532 158.937C311.418 151.473 312.607 143.509 313.417 135.595C313.658 133.26 313.857 130.91 313.905 128.564Z" fill="#010101"/>
<path d="M288.583 140.185C289.361 139.54 290.122 138.874 290.865 138.188C293.435 135.815 296.354 133.053 298.146 130.045C303.897 120.378 304.227 107.39 296.127 98.9184C290.381 92.9084 281.23 90.3984 273.219 92.6364C271.052 93.2434 268.984 94.1634 266.977 95.1834C265.244 96.0674 263.521 97.0524 262.2 98.4774C261.332 99.4144 260.661 100.516 260.046 101.636C258.943 103.646 258.361 105.635 257.733 107.823C257.388 109.027 257.509 110.305 257.509 111.547C257.509 113.747 257.662 115.873 258.09 118.036C258.443 119.816 258.687 121.609 258.729 123.414C258.772 125.244 257.873 126.805 257.293 128.504C256.938 129.546 256.324 131.169 256.636 132.217C256.978 133.363 258.213 134.279 258.788 135.321C259.403 136.44 259.592 137.271 259.642 138.571C259.673 139.407 259.956 139.946 260.28 140.683C260.553 141.307 260.401 141.76 260.496 142.384C260.608 143.12 261.178 143.763 261.442 144.446C261.74 145.218 261.99 145.972 262.395 146.705C264.78 151.015 268.254 151.298 272.557 149.629C278.374 147.374 283.803 144.157 288.583 140.185Z" fill="#815041"/>
<path d="M307.979 110.812C307.599 98.5972 304.011 96.5122 299.387 92.6032C294.909 88.8132 288.857 87.0862 283.015 87.2432C277.045 87.4012 271.2 89.4202 266.146 92.5482C265.944 92.6722 265.741 92.8002 265.542 92.9302C262.922 94.6172 260.603 96.5542 259.202 99.3882C257.959 101.904 257.441 104.447 257.197 107.205C257.149 107.758 257.111 108.353 257.4 108.822C257.695 109.297 258.255 109.525 258.788 109.691C263.058 111.026 268.288 110.107 271.689 107.165C272.055 110.232 274.306 112.688 276.445 114.916C278.686 117.251 281.476 119.526 283.378 122.136C284.656 123.891 285.128 125.672 287.065 126.976C288.835 128.16 290.073 128.253 291.978 127.395C293.688 126.624 295.441 125.308 297.315 126.477C299.047 127.561 298.383 129.821 297.969 131.451C297.885 131.758 297.212 134.072 298.161 134.085C299.113 134.102 308.438 125.493 307.979 110.812Z" fill="#010101"/>
<path d="M296.304 121.9C300.47 121.637 301.505 126.813 298.63 130.794C297.79 131.956 296.311 132.986 295.215 133.908C287.726 140.235 285.881 133.349 288.259 131.193C293.789 126.191 291.062 122.233 296.304 121.9Z" fill="#815041"/>
<path d="M293.603 131.363C294.083 130.928 298.843 128.145 295.616 126.224C294.726 125.692 293.723 126.472 293.581 127.419C293.507 127.911 293.66 128.415 293.585 128.907C293.539 129.197 293.416 129.472 293.262 129.721C292.838 130.405 291.396 131.06 291.675 132.067C291.919 132.955 293.326 131.614 293.603 131.363Z" fill="#4D2F25"/>
<path d="M309.537 199.948C309.756 201.361 309.987 202.786 310.219 204.2C312.387 204.528 314.519 204.662 316.589 204.59C321.022 204.443 325.176 203.348 328.903 201.192C331.107 199.913 333.068 198.329 334.797 196.466C334.542 191.752 334.212 187.039 333.75 182.337C333.3 177.88 332.958 173.116 331.497 168.854C331.327 168.342 331.107 167.88 330.852 167.442C329.086 164.397 325.481 163.056 321.911 164.312C318.525 165.505 316.065 168.477 314.25 171.571C309.294 180.035 308.015 190.424 309.537 199.948Z" fill="#EBEEFC"/>
<path d="M174.452 422.198C174.678 423.012 175.08 423.741 175.584 424.411C176.276 425.345 177.158 426.17 178.016 426.963C179.498 428.326 181.042 429.792 181.579 431.729C182.475 434.935 180.363 438.103 178.741 441.006C177.296 443.59 176.121 446.63 175.675 449.698C175.133 453.456 175.682 457.266 178.174 460.356C178.16 459.895 178.15 459.43 178.136 458.967C178.746 460.579 179.663 462.145 181.093 463.082C181.89 463.601 182.794 464.015 183.706 464.285C184.004 464.374 186.011 464.518 186.089 464.649C184.257 461.671 183.465 457.398 184.607 454.051C184.554 454.404 184.795 454.78 185.137 454.88C185.91 452.279 186.422 450.448 188.332 448.471C190.037 446.716 191.993 445.194 193.444 443.2C197.127 438.143 196.664 430.721 192.998 425.653C190.39 422.043 186.395 419.622 182.122 418.508C180.678 418.133 177.739 417.204 176.298 417.604C174.539 418.089 174.034 420.699 174.452 422.198Z" fill="#C89062"/>
<path d="M129.121 445.104C132.572 448.265 137.405 449.505 142.083 449.704C151.625 450.116 160.863 446.669 169.677 442.954C169.907 442.854 170.141 442.759 170.371 442.659C173.57 441.302 176.813 439.88 179.41 437.574C181.552 435.671 182.952 433.113 183.455 430.399C184.061 427.117 183.359 423.614 181.066 420.766C175.348 413.656 167.215 417.32 161.428 419.708C158.081 421.091 155.35 423.051 151.717 423.445C147.321 423.922 142.843 422.678 138.356 423.31C133.366 424.013 127.774 426.054 126.018 431.083C124.379 435.767 125.328 441.628 129.121 445.104Z" fill="#DDAA7F"/>
<path d="M151.716 423.445C155.349 423.051 158.08 421.091 161.427 419.708C166.562 417.589 173.541 414.472 179.044 418.761C180.154 423.284 180.826 428.561 176.782 429.909C169.846 431.643 159.442 420.372 156.407 429.476C155.106 433.378 157.274 443.782 150.338 441.614C145.136 440.313 145.136 432.076 140.367 429.476C136.403 427.39 132.24 427.513 128.116 427.718C130.671 425.081 134.675 423.83 138.355 423.311C142.842 422.678 147.321 423.922 151.716 423.445Z" fill="#3F2212"/>
<path d="M126.23 430.566C132.525 434.033 138.551 438.102 142.967 443.781C144.445 445.554 145.015 447.579 145.023 449.702C144.046 449.738 143.067 449.746 142.083 449.703C137.405 449.503 132.572 448.263 129.121 445.103C125.327 441.627 124.378 435.766 126.017 431.084C126.08 430.905 126.158 430.738 126.23 430.566Z" fill="#C89062"/>
<path d="M146.443 447.105C146.047 445.225 145.497 443.375 144.861 441.562C143.932 438.915 142.338 435.701 139.004 436.55C136.462 437.197 135.417 439.236 135.782 441.98C136.16 444.819 137.838 447.195 137.974 450.054C138.035 451.352 137.73 452.719 136.87 453.694C136.209 454.443 135.28 454.902 134.344 455.253C130.844 456.569 126.816 456.711 123.825 458.955C121.764 460.502 121.511 464.959 124.213 466.115C125.488 466.66 126.812 465.835 127.836 464.981C129.562 463.544 131.602 463.077 133.706 462.407C136.94 461.376 140.282 460.612 143.343 459.149C144.482 458.604 146.376 457.68 146.893 456.439C147.457 455.085 147.137 452.761 147.04 451.327C146.944 449.905 146.736 448.496 146.443 447.105Z" fill="#DDAA7F"/>
<path d="M129.147 434.62C128.055 434.074 126.691 434.345 125.496 434.702C122.46 435.61 119.923 437.076 117.179 438.548C114.604 439.93 111.559 440.444 108.871 441.59C106.291 442.691 105.086 444.272 105.396 447.302C105.516 448.48 106.06 449.751 107.168 450.167C108.428 450.64 109.779 449.821 110.834 448.985C112.608 447.577 114.666 447.074 116.796 446.376C120.068 445.302 123.44 444.478 126.553 443.003C128.072 442.283 129.573 441.361 130.471 439.94C131.425 438.431 130.958 435.771 129.393 434.76C129.313 434.709 129.231 434.662 129.147 434.62Z" fill="#C89062"/>
<path d="M121.98 433.668C121.725 433.58 121.511 433.415 121.365 433.147C121.136 432.732 121.413 431.95 121.454 431.508C121.528 430.716 121.463 429.949 121.589 429.163C121.847 427.546 122.134 425.931 122.237 424.291C122.279 423.616 122.145 422.713 122.592 422.155C123.416 422.186 123.841 423.241 124.243 423.832C124.902 424.801 125.719 425.456 126.546 426.276C127.432 427.155 128.057 428.097 128.543 429.236C128.859 429.978 129.442 431.085 128.938 431.863C128.36 432.758 126.691 432.37 125.786 432.715C124.957 433.031 123.077 434.05 121.98 433.668Z" fill="#3F2212"/>
<path d="M128.938 431.863C129.441 431.085 128.859 429.977 128.543 429.236C128.057 428.096 127.431 427.155 126.546 426.276C125.72 425.455 124.903 424.801 124.243 423.832C123.841 423.241 123.415 422.186 122.592 422.155C122.534 422.227 122.486 422.305 122.446 422.388C125.249 425.235 126.481 428.935 126.219 432.608C127.15 432.457 128.443 432.629 128.938 431.863Z" fill="#201110"/>
<path d="M124.598 448.405C124.59 448.419 124.581 448.429 124.574 448.441C124.316 448.794 124.033 449.111 123.725 449.379C123.721 449.379 123.721 449.379 123.72 449.382C123.671 449.422 123.622 449.465 123.571 449.504C122.101 450.667 119.592 451.196 117.799 451.381C116.763 451.487 115.482 451.559 114.473 451.267C113.67 451.036 113.145 450.294 112.664 449.654C112.19 449.031 111.812 448.603 111.682 447.832C111.174 444.824 113.853 443.76 115.818 442.146C116.6 441.505 117.315 440.766 118.083 440.107C118.4 439.829 118.729 439.567 119.075 439.33C119.574 438.989 120.083 438.738 120.605 438.576C120.904 438.48 121.207 438.413 121.512 438.373C122.266 438.273 123.048 438.337 123.857 438.547C124.169 438.625 124.459 438.729 124.712 438.861C124.925 438.969 125.116 439.11 125.282 439.273C126.072 440.04 126.386 441.321 126.407 442.342C126.446 444.205 125.813 446.715 124.598 448.405Z" fill="#DDAA7F"/>
<path d="M134.149 448.65C133.342 449.208 132.45 449.644 131.511 449.927C128.537 450.826 125.925 449.816 122.975 449.821C121.924 449.822 121.351 450.002 120.398 449.32C119.46 448.649 118.798 447.606 118.431 446.526C117.153 442.755 118.31 437.493 119.932 433.953C120.257 433.245 120.676 432.598 121.209 432.029C122.276 430.892 123.8 429.797 125.37 429.527C125.639 429.481 125.91 429.452 126.187 429.434C127.964 429.331 129.88 429.81 131.49 430.426C134.627 431.626 137.15 434.446 137.737 437.788C138.245 440.687 138.447 443.263 136.782 445.909C136.102 446.99 135.197 447.924 134.149 448.65Z" fill="#DDAA7F"/>
<path d="M124.62 448.405C124.605 448.415 124.59 448.429 124.574 448.441C124.53 448.474 124.486 448.508 124.442 448.541C124.115 448.789 123.923 449.034 123.683 449.354L123.682 449.356C123.644 449.405 123.61 449.454 123.571 449.503C122.101 450.666 119.592 451.195 117.799 451.38C116.763 451.486 115.482 451.558 114.473 451.266C113.67 451.035 113.145 450.293 112.664 449.653C112.19 449.03 111.812 448.602 111.682 447.831C111.174 444.823 113.853 443.759 115.818 442.145C116.6 441.504 117.315 440.765 118.083 440.106C118.091 440.033 118.099 439.961 118.111 439.887C118.128 439.788 118.14 439.693 118.157 439.594C118.219 439.183 118.304 438.776 118.396 438.37C118.42 438.276 118.443 438.178 118.466 438.085C118.48 438.028 118.494 437.974 118.506 437.919C118.558 437.729 118.609 437.539 118.665 437.353C118.848 436.718 119.056 436.097 119.283 435.508C120.331 435.931 120.814 437.515 120.604 438.576C120.592 438.64 120.575 438.702 120.558 438.764C120.125 440.219 119.089 440.971 117.983 441.737C117.556 442.035 117.117 442.336 116.697 442.679C116.129 443.147 114.509 445.803 116.234 445.89C116.873 445.923 117.625 445.019 118.217 444.304C118.254 444.257 118.293 444.212 118.33 444.168C118.504 443.955 118.661 443.77 118.795 443.64C119.234 443.215 119.667 442.796 120.078 442.371C121.56 440.842 122.865 439.3 125.28 439.272C125.329 439.273 125.38 439.272 125.43 439.272C128.13 439.311 129.993 441.862 128.642 444.444C127.666 446.32 126.158 447.248 124.62 448.405Z" fill="#3F2212"/>
<path d="M113.435 447.816C113.425 447.814 113.423 447.829 113.432 447.83C113.442 447.832 113.444 447.818 113.435 447.816Z" fill="#0097B2"/>
<path d="M112.738 445.473C113.33 445.494 114.225 446.441 114.509 446.746C114.924 447.193 114.739 447.359 114.276 447.612C113.903 447.815 113.504 447.973 113.092 448.077C112.925 448.12 112.74 448.152 112.587 448.073C112.379 447.967 112.312 447.707 112.276 447.477C112.224 447.13 112.194 446.779 112.188 446.428C112.182 446.127 112.208 445.793 112.426 445.585C112.514 445.502 112.62 445.469 112.738 445.473Z" fill="#10191B"/>
<path d="M126.54 442.446C126.54 442.446 125.511 443.237 124.479 443.029C123.447 442.822 122.803 441.696 122.803 441.696C122.803 441.696 123.598 440.664 124.877 440.935C126.153 441.206 126.54 442.446 126.54 442.446Z" fill="#10191B"/>
<path d="M126.54 442.446C126.54 442.446 125.511 443.237 124.479 443.029C123.447 442.822 122.803 441.696 122.803 441.696C122.803 441.696 123.832 440.906 124.864 441.114C125.896 441.32 126.54 442.446 126.54 442.446Z" fill="#10191B"/>
<path d="M125.272 442.34C125.42 442.009 125.273 441.619 124.941 441.47C124.609 441.322 124.22 441.469 124.071 441.801C123.922 442.133 124.07 442.522 124.402 442.671C124.734 442.82 125.123 442.672 125.272 442.34Z" fill="#10191B"/>
<path d="M125.56 442.118C125.633 441.956 125.56 441.765 125.398 441.693C125.236 441.62 125.045 441.692 124.972 441.855C124.9 442.017 124.972 442.207 125.134 442.28C125.297 442.351 125.488 442.279 125.56 442.118Z" fill="#DCDCE4"/>
<path d="M119.08 440.025C119.08 440.025 118.575 440.103 118.112 439.887C118.128 439.789 118.141 439.693 118.156 439.595C118.22 439.184 118.303 438.776 118.396 438.369C118.419 438.275 118.444 438.178 118.467 438.084C118.481 438.029 118.493 437.974 118.507 437.919C118.585 437.975 118.662 438.05 118.735 438.141C119.355 438.913 119.08 440.025 119.08 440.025Z" fill="#10191B"/>
<path d="M119.08 440.025C119.08 440.025 118.575 440.103 118.112 439.887C118.128 439.789 118.141 439.693 118.156 439.595C118.22 439.184 118.303 438.776 118.396 438.369C118.419 438.275 118.444 438.178 118.467 438.084C118.534 438.135 118.598 438.198 118.657 438.267C119.161 438.884 119.08 440.025 119.08 440.025Z" fill="#10191B"/>
<path d="M118.429 439.489C118.344 439.562 118.249 439.595 118.156 439.595C118.22 439.184 118.303 438.776 118.396 438.369C118.467 438.415 118.532 438.489 118.576 438.583C118.729 438.883 118.663 439.285 118.429 439.489Z" fill="#10191B"/>
<path d="M112.752 447.806C112.775 447.754 112.866 447.763 112.867 447.825C112.874 448.317 112.841 448.698 113.143 449.104C113.314 449.333 113.573 449.532 113.817 449.684C114.053 449.831 114.311 449.851 114.574 449.918C114.694 449.949 114.703 450.091 114.598 450.146C114.097 450.413 113.32 449.761 113.027 449.407C112.648 448.947 112.5 448.376 112.752 447.806Z" fill="#10191B"/>
<path d="M111.964 448.398C111.992 448.496 112.023 448.593 112.057 448.686C112.464 448.685 112.991 448.498 112.738 447.977C112.729 447.961 112.709 447.961 112.7 447.977C112.609 448.151 112.565 448.341 112.372 448.409C112.259 448.445 112.103 448.426 111.964 448.398Z" fill="#10191B"/>
<path d="M135.833 427.429C135.257 428.099 134.618 428.812 134.507 428.959C133.748 429.971 133.05 431.034 132.514 432.177C132.023 433.224 131.654 434.094 132.169 435.199C132.616 436.157 133.522 436.83 134.22 437.602C134.694 438.125 136.322 440.568 136.975 440.646C137.081 440.763 137.203 440.889 137.363 440.904C137.578 440.924 137.747 440.737 137.867 440.563C139.239 438.578 139.263 435.846 139.063 433.51C138.844 430.945 138.079 428.419 136.799 426.161C136.838 426.232 136.363 426.813 135.833 427.429Z" fill="#201110"/>
<path d="M136.898 428.175C138.383 433.753 137.816 436.881 136.981 440.655C136.979 440.653 136.976 440.65 136.974 440.648C136.321 440.57 134.693 438.127 134.219 437.603C133.705 437.035 133.08 436.52 132.608 435.907C133.431 432.965 134.336 430.096 136.898 428.175Z" fill="#3F2212"/>
<path d="M166.694 439.858C167.721 441.241 168.64 442.186 169.677 442.954C169.907 442.854 170.141 442.759 170.371 442.659C173.57 441.302 176.813 439.88 179.41 437.574C181.552 435.671 182.952 433.113 183.455 430.399C182.068 428.735 180.368 427.377 178.296 427C174.464 426.307 169.782 427.647 167.059 430.113C164.639 432.311 164.583 437.032 166.694 439.858Z" fill="#C89062"/>
<path d="M180.172 425.774C176.342 425.08 171.661 426.418 168.938 428.888C166.516 431.084 164.847 435.061 166.959 437.89C169.072 440.721 172.322 442.482 175.502 443.852C172.271 444.838 168.663 446.004 166.676 448.929C166.083 449.802 165.644 450.953 166.128 451.891C167.738 455.003 173.139 452.506 175.323 451.821C180.238 450.278 188.685 447.652 189.701 441.771C190.206 438.844 189.412 435.805 187.987 433.201C186.303 430.122 183.812 426.433 180.172 425.774Z" fill="#DDAA7F"/>
<path d="M176.298 417.606C177.74 417.206 180.678 418.136 182.123 418.51C186.396 419.624 190.391 422.044 192.999 425.655C196.665 430.722 197.128 438.145 193.445 443.202C193.08 443.705 192.118 445.291 191.419 445.04C190.701 444.783 190.584 443.159 190.636 442.568C190.732 441.492 191.206 440.492 191.61 439.49C192.872 436.358 193.505 432.873 192.745 429.583C191.656 424.878 187.838 422.151 183.285 421.239C180.665 420.716 177.483 420.191 174.673 419.213C174.99 418.449 175.521 417.82 176.298 417.606Z" fill="#3F2212"/>
<path d="M247.853 393.532V387.766L243.359 390.361L209.759 409.76V415.526L247.853 393.532Z" fill="#B4725A"/>
<path d="M247.853 387.766V393.532V399.07L253.694 402.443V377.303L247.853 380.676V387.766Z" fill="#935A45"/>
<path d="M247.853 387.766V380.676L244.723 382.483L243.359 390.361L247.853 387.766Z" fill="#0097B2"/>
<path d="M209.759 409.76L243.359 390.361V383.27L209.759 402.669V409.76Z" fill="#0097B2"/>
<path d="M243.359 383.27V390.361L244.723 382.483L243.359 383.27Z" fill="#0097B2"/>
<path d="M209.759 431.268V436.683L253.694 411.317L249.004 408.609L209.759 431.268Z" fill="#FFC7AD"/>
<path d="M249.004 408.609L253.694 411.317V405.902L249.004 408.609Z" fill="#935A45"/>
<path d="M253.694 402.443L247.853 399.07L209.759 421.064V427.809L253.694 402.443Z" fill="#FFC7AD"/>
<path d="M200.922 420.628V414.862L143.092 381.474L141.923 380.8L84.0928 347.411V353.177L87.0888 354.906L88.8888 355.946L91.8848 357.675L96.5748 360.383L99.5708 362.112L200.922 420.628Z" fill="#935A45"/>
<path d="M200.922 414.862V420.628V438.499L206.763 441.872V400.94L200.922 397.567V405.638V414.862Z" fill="#935A45"/>
<path d="M200.922 414.862V405.638L143.092 372.25V380.125V381.474L200.922 414.862Z" fill="#0097B2"/>
<path d="M84.093 353.177V347.411V338.188V330.116L78.252 326.744V367.676L84.093 371.048V353.177Z" fill="#935A45"/>
<path d="M84.0928 347.411L141.923 380.8V371.576L84.0928 338.188V347.411Z" fill="#0097B2"/>
<path d="M141.923 371.575V380.8L143.092 380.125V372.25L184.361 348.423V347.074L141.923 371.575Z" fill="#8A1A1A"/>
<path d="M143.092 380.125L141.923 380.8L143.092 381.474V380.125Z" fill="#B4725A"/>
<path d="M184.361 347.074V348.423L185.529 347.749L185.812 347.912L192.449 309.543L134.619 276.155L130.838 298.013L130.132 302.095L129.854 303.696L129.19 307.539L127.982 314.523L184.361 347.074Z" fill="#0097B2"/>
<path d="M129.854 303.696L130.132 302.095L84.0928 328.675V330.116L129.854 303.696Z" fill="#0097B2"/>
<path d="M84.0928 338.188L141.923 371.575L184.361 347.074L127.982 314.523L126.531 313.686L125.182 314.464L87.0888 336.458L84.0928 338.188Z" fill="#0097B2"/>
<path d="M143.092 372.25L200.922 405.638V397.567V396.126L235.122 376.381L186.98 348.586L185.812 347.912L185.529 347.749L184.361 348.423L143.092 372.25Z" fill="#0097B2"/>
<path d="M210.124 383.113C210.092 383.263 210.042 383.416 209.932 383.522C209.817 383.634 209.657 383.674 209.495 383.666C209.397 383.662 209.297 383.639 209.207 383.603C208.581 383.357 208.283 382.651 208.124 382.001C208.043 381.669 207.982 381.332 207.942 380.992C207.87 380.384 207.866 379.769 207.943 379.162C207.977 378.896 208.004 378.379 208.294 378.242C208.635 378.081 209.054 378.537 209.232 378.773C209.25 378.797 209.267 378.821 209.284 378.845C209.372 378.968 209.449 379.095 209.518 379.227C209.909 379.963 210.052 380.827 210.14 381.665C210.19 382.147 210.228 382.639 210.124 383.113Z" fill="#48485C"/>
<path d="M208.163 382.15C208.33 382.756 208.628 383.376 209.206 383.604C209.446 383.698 209.747 383.702 209.931 383.522C210.041 383.415 210.091 383.262 210.124 383.113C210.18 382.855 210.194 382.591 210.188 382.327C209.563 382.072 208.761 381.789 208.163 382.15Z" fill="#DACFDA"/>
<path d="M223.148 370.261C225.633 370.95 227.265 372.522 228.043 374.776C228.955 377.418 228.887 381.041 226.605 383.29C224.035 385.823 218.501 386.925 215.386 385.031C214.449 384.461 213.809 383.581 212.951 382.919C211.582 381.863 209.872 381.404 208.693 380.113C207.922 379.268 207.367 378.195 207.479 377.07C207.613 375.737 208.44 374.879 209.4 374.045C215.179 369.035 221.599 369.831 223.148 370.261Z" fill="#35353F"/>
<path d="M221.941 374.525C223.797 375.763 224.33 378.647 222.94 380.474C221.596 382.238 219.274 382.421 217.196 382.299C216.283 382.278 215.286 382.04 214.282 381.823C214.287 381.851 214.291 381.879 214.295 381.907C214.403 382.592 214.649 383.323 215.119 383.85C215.541 384.323 216.36 384.614 216.923 384.901C217.859 385.378 218.796 385.855 219.732 386.331C220.295 386.617 220.878 386.909 221.491 386.909C222.04 386.908 222.57 386.671 223.056 386.372C224.865 385.259 225.839 383.342 225.976 381.189C226.224 377.267 222.904 374.48 221.941 374.525Z" fill="#191923"/>
<path d="M213.256 381.846C213.364 382.531 213.609 383.262 214.08 383.789C214.501 384.261 215.321 384.553 215.884 384.84C216.82 385.317 217.756 385.793 218.692 386.27C219.255 386.557 219.838 386.848 220.451 386.848C221 386.847 221.529 386.61 222.016 386.311C223.825 385.198 225.262 383.216 225.307 381.06C225.349 379.034 224.757 377.181 223.359 375.672C222.457 374.698 221.533 374.451 220.16 374.592C215.301 375.09 212.578 377.561 213.256 381.846Z" fill="#48485C"/>
<path d="M223.359 375.672C222.872 375.146 222.379 374.833 221.811 374.677C222.347 375.15 222.73 375.79 222.939 376.458C223.428 378.162 224.406 380.474 222.817 381.508C221.595 382.299 219.822 381.448 218.417 381.874C216.9 382.31 215.439 382.969 214.167 383.881C214.607 384.301 215.356 384.573 215.883 384.842C216.819 385.319 217.755 385.795 218.691 386.272C219.254 386.559 219.837 386.85 220.45 386.85C220.999 386.849 221.528 386.612 222.015 386.313C223.824 385.2 225.261 383.218 225.306 381.062C225.349 379.033 224.757 377.181 223.359 375.672Z" fill="#35353F"/>
<path d="M210.124 383.113C210.092 383.263 210.042 383.416 209.932 383.522C209.817 383.634 209.657 383.674 209.495 383.666C209.277 383.421 209.077 383.161 208.894 382.886C208.61 382.459 208.234 381.743 207.941 380.992C207.869 380.384 207.865 379.769 207.942 379.162C207.976 378.896 208.003 378.379 208.293 378.242C208.634 378.081 209.053 378.537 209.231 378.773C209.249 378.797 209.266 378.821 209.283 378.845C209.36 378.972 209.438 379.1 209.517 379.227C209.908 379.963 210.051 380.827 210.139 381.665C210.19 382.147 210.228 382.639 210.124 383.113Z" fill="#35353F"/>
<path d="M208.606 382.354C209.213 383.266 210.017 384.01 210.939 384.6C212.861 385.831 215.144 386.454 217.371 386.856C219.814 387.296 222.369 386.628 224.3 385.051C224.625 384.786 226.268 383.311 226.115 382.818C225.932 382.227 223.709 383.518 223.318 383.608C221.972 383.917 220.587 384.06 219.205 384.034C217.903 384.01 216.712 383.814 215.484 383.436C214.2 383.041 213.068 382.153 211.976 381.405C211.266 380.919 210.552 380.421 209.991 379.77C209.581 379.295 209.263 378.75 208.935 378.215C208.74 377.897 208.527 377.266 208.124 377.268C207.712 377.27 207.35 377.73 207.246 378.084C206.94 379.137 207.99 381.426 208.606 382.354Z" fill="#191923"/>
<path d="M209.059 382.768C209.666 383.68 210.47 384.423 211.392 385.014C213.314 386.245 215.597 386.868 217.824 387.27C220.267 387.711 222.822 387.042 224.753 385.465C225.077 385.2 226.721 383.725 226.568 383.231C226.385 382.64 224.162 383.932 223.771 384.021C222.424 384.33 221.04 384.472 219.658 384.447C218.356 384.423 217.165 384.227 215.937 383.849C214.653 383.453 213.52 382.566 212.428 381.818C211.718 381.332 211.004 380.833 210.443 380.183C210.033 379.708 209.715 379.162 209.387 378.628C209.192 378.31 208.979 377.679 208.576 377.681C208.164 377.683 207.802 378.143 207.698 378.497C207.393 379.551 208.442 381.84 209.059 382.768Z" fill="#35353F"/>
<path d="M226.568 383.232C226.485 382.963 225.976 383.085 225.411 383.306C225.348 383.46 225.279 383.612 225.201 383.759C224.223 385.463 221.962 385.767 220.068 385.828C218.418 385.95 216.768 385.95 215.179 385.524C213.774 385.159 212.063 384.855 211.207 383.516C211.023 383.273 210.901 382.908 210.718 382.604C209.896 381.022 208.534 379.733 207.953 378.036C207.833 378.181 207.743 378.348 207.699 378.498C207.392 379.551 208.442 381.841 209.058 382.769C209.665 383.681 210.469 384.424 211.391 385.015C213.313 386.246 215.596 386.869 217.823 387.271C220.266 387.712 222.821 387.043 224.752 385.466C225.078 385.201 226.721 383.726 226.568 383.232Z" fill="#191923"/>
<path d="M217.701 374.444C217.947 374.706 219.208 376.834 219.482 377.685C219.602 378.057 219.711 378.457 219.624 378.887C219.548 379.264 219.328 379.617 219.106 379.95C217.867 381.797 216.33 383.435 214.621 384.73C214.047 385.164 213.425 385.572 212.79 385.662C212.155 385.752 211.512 385.433 211.414 384.775C211.348 384.334 211.541 383.812 211.863 383.433C212.307 382.909 212.927 382.666 213.491 382.346C214.055 382.027 214.654 381.506 214.754 380.853C214.816 380.447 214.668 380.093 214.568 379.734C214.236 378.542 214.463 377.062 215.166 375.82C215.259 375.655 215.363 375.491 215.503 375.37C215.621 375.267 215.758 375.202 215.892 375.14C216.44 374.887 216.993 374.666 217.551 374.477L217.701 374.444Z" fill="#191923"/>
<path d="M217.535 373.936C217.791 374.205 217.947 374.572 218.099 374.933C218.45 375.768 218.802 376.603 219.095 377.473C219.223 377.853 219.342 378.262 219.257 378.698C219.183 379.082 218.962 379.438 218.737 379.773C217.484 381.638 215.921 383.285 214.176 384.581C213.59 385.016 212.955 385.423 212.302 385.507C211.648 385.591 210.982 385.258 210.872 384.587C210.798 384.137 210.99 383.609 211.317 383.227C211.768 382.698 212.404 382.459 212.981 382.141C214.53 381.287 214.594 379.573 214.484 377.987C214.414 376.981 214.258 375.329 215.362 374.837C215.923 374.587 216.491 374.368 217.063 374.183L217.535 373.936Z" fill="#48485C"/>
<path d="M219.095 377.473C218.802 376.603 218.45 375.767 218.099 374.933C217.947 374.573 217.791 374.206 217.535 373.936L217.063 374.183C216.491 374.368 215.923 374.586 215.362 374.837C214.257 375.33 214.414 376.982 214.484 377.987C214.594 379.572 214.53 381.287 212.981 382.141C212.509 382.401 211.998 382.608 211.581 382.964C212.45 383.419 213.017 384.323 213.047 385.283C213.437 385.105 213.816 384.849 214.176 384.581C215.921 383.286 217.484 381.638 218.737 379.773C218.962 379.438 219.183 379.082 219.257 378.698C219.342 378.262 219.223 377.853 219.095 377.473Z" fill="#35353F"/>
<path d="M208.688 380.19C209.71 382.06 211.492 382.009 212.383 381.64C213.061 381.359 213.378 380.726 213.862 380.219C214.23 379.833 214.678 379.527 215.023 379.12C215.503 378.554 215.756 377.817 215.803 377.077C215.83 376.652 215.79 376.214 215.615 375.825C215.359 375.258 214.832 374.844 214.254 374.609C213.676 374.374 213.045 374.3 212.422 374.26C211.824 374.223 211.223 374.215 210.626 374.269C210.218 374.305 209.808 374.372 209.435 374.538C208.718 374.857 208.217 375.529 207.991 376.264C207.567 377.642 207.971 378.878 208.688 380.19Z" fill="#191923"/>
<path d="M215.67 372.659C215.516 372.481 213.424 373.18 212.904 373.74C212.686 373.975 212.4 374.361 212.539 374.674C212.58 374.767 212.634 374.851 212.698 374.931C213.399 374.038 214.213 373.268 215.241 372.87C215.551 373.883 215.476 374.959 215.179 375.96C215.237 375.96 215.441 376.154 215.475 376.136C215.67 376.031 215.804 375.121 215.862 374.917C216.043 374.278 216.237 373.319 215.67 372.659Z" fill="#191923"/>
<path d="M211.581 382.963C211.488 383.042 211.399 383.129 211.317 383.226C210.99 383.608 210.798 384.136 210.872 384.586C210.982 385.257 211.648 385.59 212.302 385.506C212.554 385.474 212.803 385.394 213.047 385.282C213.017 384.322 212.45 383.418 211.581 382.963Z" fill="#DACFDA"/>
<path d="M206.66 372.411C206.649 372.369 206.638 372.324 206.657 372.283C206.711 372.167 206.902 372.218 207.011 372.29C207.94 372.903 208.794 373.611 209.55 374.396C209.644 374.494 209.743 374.616 209.704 374.745C209.677 374.838 209.585 374.904 209.499 374.962C209.197 375.167 208.727 375.635 208.342 375.662C207.913 375.693 207.852 375.194 207.735 374.92C207.377 374.085 206.892 373.291 206.66 372.411Z" fill="#404040"/>
<path d="M206.657 372.284C206.638 372.325 206.649 372.37 206.66 372.412C206.892 373.293 207.377 374.086 207.735 374.922C207.852 375.196 207.913 375.695 208.342 375.664C208.548 375.649 208.777 375.509 208.992 375.35C208.361 374.224 207.708 373.105 206.668 372.266C206.664 372.271 206.66 372.277 206.657 372.284Z" fill="#DACFDA"/>
<path d="M209.916 374.245C209.16 373.46 208.172 372.755 207.011 372.29C206.895 372.243 206.733 372.172 206.668 372.264C207.708 373.103 208.361 374.223 208.992 375.348C209.181 375.21 209.358 375.056 209.499 374.961C209.585 374.903 209.677 374.837 209.704 374.744C209.743 374.616 210.01 374.342 209.916 374.245Z" fill="#35353F"/>
<path d="M208.362 380.008C209.384 381.878 211.166 381.827 212.057 381.458C212.735 381.177 213.052 380.545 213.536 380.038C213.904 379.652 214.352 379.345 214.697 378.939C215.177 378.373 215.429 377.636 215.476 376.896C215.503 376.471 215.463 376.033 215.288 375.644C215.032 375.077 214.505 374.663 213.927 374.428C213.349 374.193 212.718 374.119 212.096 374.08C211.497 374.042 210.897 374.035 210.299 374.088C209.892 374.125 209.481 374.191 209.108 374.357C208.391 374.675 207.89 375.348 207.664 376.083C207.241 377.459 207.645 378.695 208.362 380.008Z" fill="#35353F"/>
<path d="M211.031 380.254C211.013 380.025 210.938 379.795 210.878 379.576C210.797 379.282 210.731 378.984 210.666 378.685C210.641 378.569 210.616 378.391 210.503 378.325C210.412 378.271 210.284 378.286 210.19 378.33C209.92 378.456 209.953 378.804 209.918 379.052C209.903 379.16 209.887 379.268 209.862 379.375C209.785 379.706 209.614 380.021 209.601 380.357C209.6 380.385 209.6 380.414 209.601 380.443C209.605 380.52 209.62 380.587 209.647 380.648C209.675 380.717 209.721 380.775 209.777 380.824C209.779 380.827 209.782 380.829 209.784 380.831C209.892 380.93 210.027 380.999 210.172 381.026C210.232 381.038 210.295 381.041 210.356 381.044C210.468 381.049 210.583 381.048 210.687 381.007C210.825 380.953 210.928 380.83 210.979 380.692C211.032 380.548 211.043 380.401 211.031 380.254Z" fill="#EFE5DC"/>
<path d="M209.068 375.546C209.129 375.972 209.557 376.216 209.985 376.337C211.085 376.58 211.88 375.424 212.185 374.39C212.212 374.292 212.239 374.192 212.266 374.091C212.21 374.087 212.154 374.083 212.097 374.079C211.498 374.041 210.898 374.034 210.3 374.087C209.905 374.123 209.508 374.187 209.143 374.342C209.01 374.72 208.997 375.154 209.068 375.546Z" fill="#EFE5DC"/>
<path d="M215.289 375.643C215.033 375.076 214.506 374.662 213.928 374.427C213.881 374.408 213.832 374.39 213.783 374.373C214.043 374.676 214.268 375.022 214.446 375.424C214.446 375.485 214.629 375.607 214.629 375.728C214.996 376.276 214.996 376.945 214.629 377.553C214.019 378.648 212.857 379.317 212.429 380.595C212.368 380.778 212.124 381.021 211.94 381.082C211.357 381.349 210.678 381.453 209.995 381.49C210.769 381.772 211.555 381.665 212.057 381.457C212.735 381.176 213.052 380.544 213.536 380.037C213.904 379.651 214.352 379.344 214.697 378.938C215.177 378.372 215.429 377.635 215.476 376.895C215.505 376.47 215.464 376.032 215.289 375.643Z" fill="#35353F"/>
<path d="M215.367 373.052C214.316 373.299 213.422 373.936 212.621 374.709C213.941 375.221 214.638 375.8 214.888 376.041C215.311 375.109 215.529 374.075 215.367 373.052Z" fill="#DACFDA"/>
<path d="M215.82 373.163C215.78 372.937 215.668 372.673 215.419 372.605C215.305 372.573 215.185 372.593 215.072 372.615C214.288 372.773 213.563 373.108 212.982 373.581C212.738 373.779 212.409 374.115 212.501 374.437C212.528 374.532 212.57 374.622 212.62 374.707C213.421 373.935 214.315 373.298 215.366 373.05C215.529 374.074 215.31 375.107 214.887 376.039C214.944 376.047 214.992 376.046 215.027 376.032C215.23 375.957 215.45 375.255 215.534 375.065C215.796 374.473 215.937 373.816 215.82 373.163Z" fill="#48485C"/>
<path d="M210.828 380.298C210.858 380.311 210.88 380.328 210.881 380.363C210.882 380.395 210.853 380.415 210.831 380.435C210.76 380.497 210.428 380.856 210.41 380.879C210.387 380.91 210.352 380.933 210.32 380.956C210.305 380.967 210.285 380.979 210.267 380.974C210.254 380.971 210.244 380.962 210.235 380.953C210.186 380.905 209.669 380.421 209.71 380.295C209.765 380.125 210.768 380.273 210.828 380.298Z" fill="#0F0F0F"/>
<path d="M212.188 378.689C212.045 378.824 211.912 378.985 211.72 379.026C211.544 379.064 211.348 379.02 211.178 378.97C211.129 378.956 211.105 379.027 211.145 379.057C211.323 379.188 211.615 379.222 211.818 379.155C211.983 379.101 212.213 378.923 212.249 378.729C212.257 378.688 212.216 378.663 212.188 378.689Z" fill="#0F0F0F"/>
<path d="M208.502 378.592C208.638 378.734 208.764 378.901 208.953 378.951C209.127 378.997 209.325 378.964 209.497 378.921C209.546 378.91 209.567 378.982 209.526 379.009C209.343 379.131 209.05 379.151 208.849 379.074C208.688 379.012 208.465 378.823 208.439 378.628C208.434 378.588 208.475 378.565 208.502 378.592Z" fill="#0F0F0F"/>
<path d="M215.498 380.35C214.136 380.298 212.761 380.367 211.401 380.453C211.355 380.457 211.355 380.527 211.401 380.525C212.767 380.443 214.13 380.443 215.498 380.422C215.544 380.422 215.544 380.352 215.498 380.35Z" fill="#0F0F0F"/>
<path d="M214.668 380.766C213.642 380.673 212.605 380.669 211.576 380.71C211.529 380.712 211.529 380.784 211.576 380.782C212.609 380.742 213.637 380.774 214.668 380.835C214.713 380.838 214.712 380.77 214.668 380.766Z" fill="#0F0F0F"/>
<path d="M214.735 381.444C213.743 381.069 212.669 380.894 211.61 380.859C211.561 380.858 211.561 380.934 211.61 380.935C212.68 380.972 213.697 381.189 214.714 381.515C214.76 381.531 214.779 381.461 214.735 381.444Z" fill="#0F0F0F"/>
<path d="M209.173 380.15C208.255 380.221 207.35 380.394 206.478 380.694C206.439 380.708 206.455 380.769 206.495 380.756C207.369 380.484 208.259 380.296 209.172 380.221C209.219 380.218 209.22 380.147 209.173 380.15Z" fill="#0F0F0F"/>
<path d="M209.33 380.349C208.32 380.574 207.33 380.962 206.468 381.54C206.433 381.564 206.465 381.621 206.502 381.598C207.395 381.059 208.328 380.648 209.349 380.417C209.394 380.407 209.375 380.339 209.33 380.349Z" fill="#0F0F0F"/>
<path d="M209.082 380.653C208.221 380.986 207.385 381.447 206.695 382.064C206.659 382.096 206.711 382.144 206.747 382.115C207.477 381.543 208.234 381.063 209.102 380.723C209.145 380.706 209.127 380.635 209.082 380.653Z" fill="#0F0F0F"/>
<path d="M134.619 276.155L192.449 309.543L199.938 305.22L142.108 271.832L134.619 276.155Z" fill="#0097B2"/>
<path d="M258.937 339.284L201.106 305.895L199.679 306.72L193.618 310.219L251.447 343.607L258.937 339.284Z" fill="#0097B2"/>
<path d="M258.937 339.283L251.447 343.606L246.96 369.546L250.849 367.301L253.795 369.003L258.937 339.283Z" fill="#0097B2"/>
<path d="M250.849 367.301L246.96 369.546L235.122 376.381L200.922 396.126L206.763 399.499L256.69 370.673L253.795 369.003L250.849 367.301Z" fill="#0097B2"/>
<path d="M251.447 343.606L193.618 310.218L186.98 348.586L235.122 376.381L246.96 369.546L251.447 343.606Z" fill="#0097B2"/>
<path d="M186.98 348.586L193.618 310.218L199.679 306.719L199.938 305.22L192.449 309.543L185.812 347.912L186.98 348.586Z" fill="#8A1A1A"/>
<path d="M84.0928 371.048L99.5708 362.112L96.5748 360.383L87.0888 365.86V360.444V356.985V354.906L84.0928 353.177V371.048Z" fill="#B4725A"/>
<path d="M129.854 303.696L84.0928 330.116V338.188L87.0888 336.458V331.846L125.182 309.852L129.19 307.539L129.854 303.696Z" fill="#B4725A"/>
<path d="M87.0889 365.86L96.5749 360.383L91.8849 357.675L87.0889 360.444V365.86Z" fill="#FFC7AD"/>
<path d="M78.252 326.744L84.093 330.116V328.675L78.252 325.302V326.744Z" fill="#0097B2"/>
<path d="M87.0889 360.444L91.8849 357.675L88.8889 355.946L87.0889 356.985V360.444Z" fill="#B4725A"/>
<path d="M87.0889 356.985L88.8889 355.946L87.0889 354.906V356.985Z" fill="#FFC7AD"/>
<path d="M125.182 309.852V314.464L126.531 313.686L127.982 314.523L129.19 307.539L125.182 309.852Z" fill="#B4725A"/>
<path d="M130.838 298.013L128.178 296.477L78.252 325.302L84.093 328.675L130.132 302.095L130.838 298.013Z" fill="#0097B2"/>
<path d="M200.922 397.567L206.763 400.94V399.499L200.922 396.126V397.567Z" fill="#0097B2"/>
<path d="M256.69 372.114V413.046L206.763 441.872V400.94L256.69 372.114ZM247.853 380.676L244.723 382.484L243.359 383.27L209.759 402.669V409.76V415.525V421.063V427.808V431.267V436.682L253.694 411.316V405.901L249.004 408.609L209.759 431.267V427.808L253.694 402.442V377.303L247.853 380.676Z" fill="#B4725A"/>
<path d="M206.763 400.94L256.69 372.114V370.673L206.763 399.499V400.94Z" fill="#0097B2"/>
<path d="M185.259 385.418L185.261 386.396L211.965 370.98L211.962 370L185.259 385.418Z" fill="#518167"/>
<path d="M166.323 374.414L185.259 385.418L211.962 370L193.026 358.996L166.323 374.414Z" fill="#35353F"/>
<path d="M167.319 372.903L167.325 374.769L185.376 385.26L185.372 383.394L167.319 372.903Z" fill="#F4F5FA"/>
<path d="M185.373 383.394L185.377 385.26L210.828 370.566L210.823 368.7L185.373 383.394Z" fill="#DAC0A8"/>
<path d="M167.319 372.903L185.372 383.394L210.822 368.7L192.77 358.209L167.319 372.903Z" fill="#948272"/>
<path d="M183.449 382.407L166.326 372.456L166.323 371.477L183.449 381.43L185.259 382.481L185.261 383.459L185.259 383.458L185.261 386.396L183.449 385.344L166.326 375.392L166.323 374.414L183.449 384.367V382.407Z" fill="#282837"/>
<path d="M185.259 382.48L185.261 386.396L211.965 370.98L211.962 367.062L185.259 382.48Z" fill="#191923"/>
<path d="M166.323 371.477L185.259 382.481L211.962 367.063L193.026 356.059L166.323 371.477Z" fill="#35353F"/>
<path d="M185.259 380.268L185.261 381.247L211.965 365.829L211.962 364.851L185.259 380.268Z" fill="#518167"/>
<path d="M166.323 369.264L185.259 380.268L211.962 364.851L193.026 353.846L166.323 369.264Z" fill="#3574E0"/>
<path d="M167.319 367.754L167.325 369.621L185.376 380.111L185.372 378.244L167.319 367.754Z" fill="#F4F5FA"/>
<path d="M185.373 378.244L185.377 380.111L210.828 365.418L210.823 363.551L185.373 378.244Z" fill="#DAC0A8"/>
<path d="M167.319 367.754L185.372 378.244L210.822 363.551L192.77 353.06L167.319 367.754Z" fill="#948272"/>
<path d="M183.449 377.258L166.326 367.306L166.323 366.327L183.449 376.28L185.259 377.331L185.261 378.31L185.259 378.309L185.261 381.247L183.449 380.194L166.326 370.242L166.323 369.264L183.449 379.216V377.258Z" fill="#254A9F"/>
<path d="M185.259 377.331L185.261 381.247L211.965 365.829L211.962 361.914L185.259 377.331Z" fill="#265EC0"/>
<path d="M166.323 366.327L185.259 377.331L211.962 361.914L193.026 350.91L166.323 366.327Z" fill="#3574E0"/>
<path d="M105.233 283.151C102.827 282.13 99.9038 282.936 97.8938 284.558C94.1568 287.573 89.1448 302.308 88.6878 303.346C88.0028 304.901 87.4528 305.551 85.4698 305.623C80.8838 305.788 69.7378 304.898 68.0898 305.656C66.9288 306.191 68.2598 312.481 68.6418 312.593C69.6298 312.882 77.1888 314.701 79.9808 315.308C80.9638 315.522 88.8358 316.583 90.7008 316.141C96.2228 314.834 97.5458 310.445 98.8128 307.822C99.4018 306.602 105.185 293.639 105.506 291.603C106.074 288.008 107.12 287.87 107.559 286.791C108.16 285.317 106.537 283.704 105.233 283.151Z" fill="#4D2F25"/>
<path d="M69.7418 318.449C68.2448 318.227 64.2098 316.545 64.2098 316.545C63.5788 316.545 63.0278 316.121 62.8668 315.511L58.1328 300.278C58.4518 298.814 59.2898 298.325 60.1918 298.46C61.7258 298.689 64.3928 299.744 66.1438 300.215C66.7528 300.379 67.3298 300.638 67.4878 301.249C68.4758 305.069 70.3598 312.734 71.3478 316.554C71.5758 317.437 70.6448 318.583 69.7418 318.449Z" fill="#232338"/>
<path d="M69.14 318.3C67.643 318.078 64.901 317.123 63.346 316.545C62.755 316.325 62.164 316.121 62.002 315.511L58.142 300.955C57.908 300.073 58.583 299.075 59.485 299.209C60.982 299.431 63.345 300.378 65.279 300.964C65.882 301.147 66.461 301.388 66.622 301.998C67.587 305.637 69.517 312.915 70.482 316.554C70.717 317.436 70.042 318.434 69.14 318.3Z" fill="#171729"/>
<path d="M104.438 291.21C104.992 287.56 106.008 287.418 106.435 286.323C107.019 284.826 105.443 283.189 104.176 282.627C101.839 281.591 98.9988 282.412 97.0448 284.059C93.6748 286.902 89.2348 299.985 88.2578 302.699C90.3318 305.855 93.4348 308.213 96.8588 310.092C97.2688 309.224 97.6008 308.389 97.9278 307.682C98.5008 306.443 104.125 293.277 104.438 291.21Z" fill="#EBEEFC"/>
<path d="M116.703 415.705C116.241 416.98 108.703 424.761 108.039 429.349C107.539 432.801 111.169 435.981 114.573 434.816C117.797 433.713 121.138 426.644 122.37 425.337C123.077 424.587 123.973 424.222 124.479 423.253C125.201 421.87 125.636 420.074 125.101 418.563C123.414 413.796 125.819 410.27 119.393 410.702C115.701 410.95 117.374 413.853 116.703 415.705Z" fill="#B4BCE2"/>
<path d="M102.695 406.588C100.789 407.947 98.8308 410.155 97.1468 411.531C94.1838 413.953 89.7048 414.85 87.5598 418.213C86.5278 419.831 86.7658 421.154 87.7808 422.718C89.2698 425.011 90.7678 425.99 93.4418 425.008C97.9468 423.352 97.8998 420.439 101.902 418.951C103.844 418.229 107.298 417.989 107.801 414.283C107.999 412.824 107.423 411.352 107.533 409.875C107.536 409.835 107.405 403.227 102.695 406.588Z" fill="#B4BCE2"/>
<path d="M91.8535 350.915C91.8775 351.387 91.9065 351.859 91.9405 352.331C92.3805 358.563 93.6745 364.615 94.9195 370.719C95.4985 373.555 95.5355 380.819 100.425 379.559C102.819 378.942 107 374.768 107.414 369.566C107.637 366.763 107.519 362.769 107.693 359.962C108.054 354.156 105.055 334.889 105.055 334.889C105.055 334.889 94.3075 331.063 93.8165 332.193C92.8695 334.373 92.7015 336.658 92.3965 338.639C91.7725 342.696 91.6415 346.818 91.8535 350.915Z" fill="#1D55B5"/>
<path d="M94.0615 364.048C94.5355 370.395 95.7585 376.667 96.8265 382.933C97.9475 389.505 98.3575 395.91 98.0365 402.586C97.9635 404.111 97.8745 405.635 97.7965 407.159C97.7035 408.982 97.7465 411.092 99.1625 412.243C100.888 413.646 103.477 413.118 105.394 412.466C106.111 412.222 107.425 411.892 107.873 411.224C108.485 410.31 108.139 408.528 108.077 407.503C107.616 399.912 109.93 392.612 109.803 385.029C109.72 380.081 108.602 375.763 106.583 371.264C106.096 370.178 105.388 369 104.217 368.789L94.0615 364.048Z" fill="#1D55B5"/>
<path d="M125.723 342.527C125.103 338.136 124.007 333.173 121.571 330.592C121.571 330.592 109.97 337.687 100.813 334.874C99.8327 334.573 100.899 335.861 101.167 336.87C101.77 339.145 102.372 341.42 102.974 343.695C104.288 348.656 106.263 353.857 106.912 358.925C107.61 364.374 108.244 369.829 109.278 375.228C109.745 377.667 111.202 380.066 112.43 382.113C113.861 384.5 115.239 385.799 117.619 385.4C118.698 385.219 120.502 383.884 121.051 382.931C121.432 382.26 121.577 381.341 121.766 380.6C122.775 376.669 123.165 372.743 123.587 368.733C124.03 364.523 124.295 360.297 124.688 356.083C125.102 351.667 126.344 346.917 125.723 342.527Z" fill="#3574E0"/>
<path d="M109.227 373.135C109.339 373.158 109.95 376.805 110.057 377.195C110.418 378.51 110.859 379.802 111.323 381.084C112.259 383.668 113.423 386.267 114.003 388.963C115.276 394.882 115.696 401.245 115.386 407.304C115.318 408.639 115.211 409.972 115.064 411.3C114.895 412.827 114.678 414.396 115.079 415.879C115.662 418.038 117.599 418.932 119.603 419.425C120.435 419.629 121.303 419.736 122.151 419.609C123.256 419.445 124.74 419.087 125.395 418.114C125.8 417.512 125.977 416.788 126.107 416.075C126.512 413.856 126.529 411.592 126.454 409.344C126.386 407.31 126.718 405.38 126.916 403.345C127.35 398.893 127.646 394.395 127.186 389.933C126.678 385.006 124.946 379.862 122.681 375.473C122.135 374.416 122.067 375.715 120.886 375.568L109.227 373.135Z" fill="#3574E0"/>
<path d="M123.212 287.28C122.03 286.728 120.803 286.322 119.22 285.312C116.324 283.464 113.308 281.892 113.308 281.892C113.308 281.892 111.192 282.748 110.747 282.649C107.421 281.909 103.87 282.031 100.765 283.359C100.73 283.374 100.697 283.391 100.662 283.407L100.451 303.867L120.06 304.069L123.212 287.28Z" fill="#4D2F25"/>
<path d="M104.856 281.87C104.8 281.871 104.746 281.874 104.69 281.875C105.178 281.731 105.457 281.86 104.856 281.87Z" fill="#ADABC0"/>
<path d="M123.212 309.103C119.8 317.912 120.28 319.813 124.157 332.845C125.838 338.493 126.456 342.346 122.79 344.716C114.614 350.002 97.6331 346.864 92.5841 342.327C91.4831 341.337 91.9231 336.564 92.0171 335.189C92.4741 328.477 94.1871 322.11 93.3241 315.337C92.7461 310.798 91.3701 306.281 91.8661 301.732C92.1891 298.763 93.2981 295.945 94.3951 293.167C95.1391 291.285 95.8821 289.404 96.6261 287.522C97.2631 285.91 97.7681 284.517 99.1951 283.43C100.403 282.509 105.099 280.494 104.684 281.871C102.362 289.574 105.06 294.911 105.06 294.911C105.06 294.911 115.514 289.76 117.459 284.229C119.927 285.415 122.854 286.193 124.209 288.683C128.492 296.544 125.654 302.799 123.212 309.103Z" fill="#BFC7ED"/>
<path d="M124.312 288.191C123.801 287.632 123.117 287.164 122.502 287.415C122.023 287.609 121.719 288.188 121.509 288.768C120.959 290.283 120.821 292.007 120.736 293.702C120.65 295.425 120.613 297.171 120.853 298.892C121.068 300.435 121.549 302.513 122.568 303.551C123.55 304.551 124.492 305.638 125.447 306.699C127.371 308.837 129.326 310.933 131.313 312.972C132.233 313.916 133.26 315.257 134.345 315.882C137.42 317.651 140.402 315.773 140.919 312.895C141.114 311.806 140.766 310.574 140.386 309.573C139.831 308.116 138.885 306.978 138.068 305.769C137.115 304.357 136.15 302.958 135.175 301.572C132.591 297.894 129.969 294.161 127.045 290.914C126.315 290.102 124.468 288.362 124.312 288.191Z" fill="#4D2F25"/>
<path d="M124.548 287.975C124.193 287.588 123.402 286.922 122.847 286.955C122.701 286.964 122.561 287.013 122.424 287.063C122.176 287.154 121.926 287.255 121.728 287.429C121.532 287.602 121.4 287.835 121.275 288.064C120.659 289.194 120.466 290.545 120.342 291.818C120.115 294.136 120.206 296.509 120.561 298.81C120.718 299.827 120.93 300.845 121.266 301.819C121.504 302.508 121.805 303.245 122.324 303.772C125.506 307.003 128.923 311.829 129.611 311.916C130.133 311.982 133.395 309.915 134.59 308.902C135.669 307.988 136.636 306.869 137.209 305.565C137.87 304.06 136.227 302.627 135.372 301.391C127.222 289.619 126.334 289.934 124.548 287.975Z" fill="#EBEEFC"/>
<path d="M113.46 297.77C112.268 299.891 111.967 302.525 112.771 304.829C110.972 303.001 110.442 300.191 110.899 297.668C111.356 295.145 112.681 292.862 114.179 290.781C115.896 288.395 117.097 286.51 116.713 283.512C116.449 281.447 115.456 279.839 114.912 277.906C114.474 276.352 114.516 274.623 114.137 273.015C113.418 269.97 112.644 266.878 113.646 263.796C113.959 262.834 114.483 262.041 115.141 261.465C116.09 260.635 117.317 260.258 118.586 260.483C120.386 260.802 121.426 262.179 121.939 264.076C122.304 265.425 122.233 266.815 122.266 268.197C122.359 271.985 123.717 276.118 123.372 279.856C123.184 281.89 122.602 283.738 122.369 285.757C122.107 288.028 121.539 290.359 119.929 292.073C118.546 293.546 116.59 294.351 115.093 295.707C114.439 296.301 113.891 297.002 113.46 297.77Z" fill="#010101"/>
<path d="M115.813 284.832C115.681 287.824 104.055 288.546 104.553 282.181C105.247 273.311 105.58 274.898 109.544 273.721C110.629 273.399 111.759 273.166 112.888 273.202C117.001 273.332 115.295 275.493 115.06 277.05C114.363 281.668 115.921 282.391 115.813 284.832Z" fill="#4D2F25"/>
<path d="M104.004 259.29C101.496 260.075 98.7032 261.43 97.8692 264.191C97.2822 266.133 97.7602 268.202 98.0702 270.163C98.3292 271.799 98.2932 273.202 97.8662 274.81C97.7072 275.409 97.7112 275.986 97.7922 276.603C97.8572 277.101 97.9802 277.574 98.1082 278.057C98.4042 279.171 98.8132 280.258 99.1552 281.365C99.5672 282.698 100.08 284.372 101.295 285.187C102.837 286.223 104.756 285.099 106.157 284.409C107.507 283.743 108.838 283.036 110.147 282.289C111.32 281.619 112.65 281.07 113.556 280.018C114.493 278.93 114.847 277.474 115.519 276.223C115.838 275.629 116.078 274.959 116.355 274.334C116.676 273.611 116.954 272.861 117.084 272.072C117.306 270.727 117.325 269.279 117.12 267.918C116.68 264.985 115.123 262.214 112.704 260.508C110.13 258.691 106.918 258.379 104.004 259.29Z" fill="#815041"/>
<path d="M101.3 265.493C101.865 266.451 102.431 267.408 102.996 268.366C103.507 269.232 104.021 270.102 104.655 270.883C105.335 271.722 106.144 272.448 106.96 273.155C108.194 274.224 109.47 275.271 110.934 275.994C112.398 276.716 114.082 277.096 115.68 276.761C117.302 276.421 117.62 274.571 118.284 273.301C118.888 272.146 119.63 270.878 119.855 269.576C120.471 266.01 119.518 263.745 118.976 262.878C117.819 261.027 116.183 259.473 114.259 258.439C111.559 256.987 108.844 256.881 105.876 257.174C104.609 257.299 103.64 257.609 102.509 258.265C101.345 258.939 100.286 259.801 99.428 260.84C97.567 263.095 96.742 266.31 97.898 269.125C97.784 268.848 99.918 266.065 101.3 265.493Z" fill="#010101"/>
<path d="M115.292 273.272C117.106 272.935 117.835 275.149 116.786 277.049C116.48 277.604 115.885 278.133 115.454 278.597C112.506 281.77 111.329 278.848 112.258 277.777C114.417 275.287 113.01 273.696 115.292 273.272Z" fill="#815041"/>
<path d="M114.61 277.565C114.798 277.348 116.737 275.875 115.22 275.203C114.8 275.017 114.402 275.413 114.391 275.836C114.381 276.191 114.589 276.395 114.373 276.862C114.223 277.185 113.626 277.548 113.801 277.975C113.957 278.352 114.503 277.689 114.61 277.565Z" fill="#4D2F25"/>
<path d="M123.625 327.677C123.512 327.93 123.378 328.171 123.17 328.383C122.862 328.695 122.45 328.905 122.019 328.904C121.465 328.903 120.959 328.565 120.482 328.255C119.708 327.752 118.912 327.288 118.097 326.865C117.885 326.755 117.638 326.646 117.425 326.745C117.233 326.834 117.136 327.076 117.148 327.301C117.156 327.451 117.485 328.084 117.412 328.133C117.262 328.234 116.796 328.119 116.616 328.119C116.304 328.118 115.992 328.129 115.681 328.151C115.041 328.195 114.404 328.286 113.777 328.422C112.541 328.689 111.342 329.132 110.223 329.739C110.124 329.792 110.022 329.85 109.951 329.942C109.88 330.034 109.848 330.169 109.902 330.277C109.961 330.394 110.096 330.437 110.218 330.463C111.161 330.656 112.104 330.406 113.038 330.328C113.441 330.294 113.826 330.38 114.232 330.365C114.756 330.346 115.283 330.372 115.804 330.443C114.235 330.6 112.685 330.933 111.188 331.434C110.88 331.536 110.171 331.812 110.088 332.192C109.975 332.708 110.723 332.753 111.021 332.762C111.932 332.789 112.842 332.817 113.752 332.843C112.752 332.814 111.728 333.072 110.831 333.508C110.39 333.723 110.063 333.849 110.378 334.395C110.586 334.755 110.984 334.983 111.376 334.921C111.973 334.827 112.559 334.716 113.162 334.65C114.002 334.557 114.851 334.517 115.697 334.607C115.084 334.875 114.464 335.148 113.936 335.571C113.502 335.917 113.032 336.446 112.915 337.035C112.838 337.426 113.013 338.087 113.493 337.963C114.002 337.832 114.505 337.665 114.995 337.467C116.024 337.048 117.024 336.513 118.123 336.31C119.718 336.018 121.391 336.458 122.981 336.137C124.415 335.847 125.653 334.956 126.663 333.879C127.604 332.876 128.091 331.514 128.926 330.419C129.433 329.754 131.126 326.734 131.447 325.838C131.6 325.407 131.748 324.937 131.629 324.487C131.463 323.864 130.846 323.502 130.264 323.311C129.489 323.058 128.669 322.983 127.871 323.081C127.124 323.172 126.298 323.29 125.742 323.862C125.012 324.614 124.552 325.827 124.035 326.754C123.868 327.054 123.761 327.373 123.625 327.677Z" fill="#4D2F25"/>
<path d="M128.047 331.809C128.047 331.809 139.53 319.123 141.016 312.606C141.373 311.039 138.323 310.116 136.819 308.842C135.791 307.972 134.257 308.778 133.272 309.369C132.049 310.105 124.053 327.189 123.364 328.147C122.384 329.507 128.047 331.809 128.047 331.809Z" fill="#4D2F25"/>
<path d="M59.9298 304.694C58.3198 304.63 58.3178 306.532 59.1348 306.823C59.9448 307.113 62.1488 306.414 62.1178 305.094C62.0928 304.011 60.9858 304.735 59.9298 304.694Z" fill="#4D2F25"/>
<path d="M59.6248 313.759C58.5638 313.549 58.5008 311.751 58.9178 311.536C59.1558 311.415 59.5068 311.5 59.7598 311.495C60.3788 311.48 60.9858 311.279 61.5358 310.907C61.7578 310.756 61.9728 310.576 62.2138 310.49C62.4548 310.405 62.7308 310.422 62.9468 310.647C63.7798 311.513 62.4018 312.818 61.9858 313.157C60.8678 314.067 60.1028 313.853 59.6248 313.759Z" fill="#4D2F25"/>
<path d="M58.3799 309.544C58.7549 308.63 59.4859 309.698 61.1709 308.61C61.3959 308.465 61.6149 308.292 61.8549 308.21C62.0989 308.131 62.3759 308.158 62.5879 308.386C63.4139 309.273 62.0189 310.54 61.5969 310.869C59.5919 312.428 57.6969 311.208 58.3799 309.544Z" fill="#4D2F25"/>
<path d="M58.3829 307.4C58.9799 306.772 59.2379 307.088 60.7029 306.629C62.9609 305.922 63.0269 308.22 60.2989 308.956C60.1329 309.002 59.3909 309.203 59.1649 309.215C58.2309 309.265 57.7499 308.063 58.3829 307.4Z" fill="#4D2F25"/>
<path d="M124.495 325.863C124.342 326.172 124.192 326.476 124.037 326.753C123.868 327.054 123.762 327.373 123.626 327.677C123.513 327.93 123.379 328.171 123.171 328.383C122.863 328.695 122.451 328.906 122.02 328.904C121.466 328.903 120.96 328.565 120.483 328.255C119.709 327.752 118.913 327.288 118.098 326.865C117.886 326.755 117.639 326.646 117.426 326.745C117.234 326.834 117.137 327.076 117.149 327.301C117.157 327.451 117.486 328.084 117.413 328.133C117.263 328.234 116.796 328.119 116.617 328.119C116.305 328.118 115.993 328.129 115.682 328.151C115.042 328.195 114.405 328.286 113.778 328.422C112.542 328.689 111.343 329.132 110.224 329.739C110.125 329.792 110.023 329.85 109.952 329.942C109.881 330.034 109.849 330.169 109.903 330.277C109.962 330.394 110.097 330.437 110.219 330.463C111.162 330.656 112.105 330.406 113.039 330.328C113.442 330.294 113.827 330.38 114.233 330.365C114.757 330.346 115.284 330.372 115.805 330.443C114.236 330.6 112.686 330.933 111.189 331.434C110.881 331.536 110.172 331.812 110.089 332.192C109.976 332.708 110.724 332.753 111.022 332.762C111.933 332.789 112.843 332.817 113.753 332.844C112.753 332.815 111.729 333.073 110.832 333.509C110.391 333.724 110.064 333.85 110.379 334.396C110.587 334.756 110.985 334.984 111.377 334.922C111.974 334.828 112.56 334.717 113.163 334.651C114.003 334.558 114.852 334.518 115.698 334.608C115.085 334.876 114.465 335.149 113.937 335.572C113.503 335.918 113.033 336.447 112.916 337.036C112.839 337.427 113.014 338.088 113.494 337.964C114.003 337.833 114.506 337.666 114.996 337.468C116.025 337.049 117.025 336.514 118.124 336.311C119.719 336.019 121.392 336.459 122.982 336.138C124.416 335.848 125.654 334.957 126.664 333.88C127.231 333.275 127.634 332.539 128.047 331.811C128.047 331.811 129.262 330.467 130.95 328.436C129.525 326.64 126.924 325.644 124.495 325.863Z" fill="#4D2F25"/>
<path d="M129.164 53.7622L191.876 89.9682C195.662 92.1542 198.76 97.5202 198.76 101.892V114.292C199.24 119.838 201.321 125.587 204.726 129.473C200.563 129.861 195.22 125.354 190.421 119.271L129.163 83.9052C125.377 81.7192 122.279 76.3542 122.279 71.9822V57.7362C122.28 53.3642 125.378 51.5762 129.164 53.7622Z" fill="#0097B2"/>
<path d="M126.598 71.6714C127.87 72.5364 128.59 73.0004 128.597 71.3044V63.1094L130.552 64.2374V73.4214C130.552 74.1834 130.509 75.2594 129.81 75.3744C129.07 75.4984 127.299 74.3924 126.573 73.4214L126.598 71.6714Z" fill="white"/>
<path d="M135.974 67.2873C138.39 68.6823 140.073 70.1883 140.073 75.7453C140.073 80.9773 138.487 80.7423 135.974 79.2913C133.46 77.8403 131.862 76.3983 131.862 71.0053C131.862 65.4483 133.628 65.9333 135.974 67.2873ZM135.974 77.2013C137.615 78.1483 138.118 77.8113 138.118 74.6163C138.118 70.9223 137.527 70.2743 135.974 69.3773C134.462 68.5043 133.817 68.3583 133.817 72.1323C133.817 75.3693 134.229 76.1933 135.974 77.2013Z" fill="white"/>
<path d="M141.386 70.4922L145.6 72.9262C147.716 74.1482 148.484 76.0562 148.484 77.7582C148.484 78.8502 148.083 79.8482 147.084 79.4842C147.937 80.1572 148.647 81.5512 148.647 83.0592C148.647 85.2642 147.79 86.0472 145.639 84.8052L141.386 82.3492V70.4922ZM145.485 77.5562C146.187 77.9622 146.56 77.6802 146.56 76.8332C146.56 75.7342 145.982 75.1462 145.485 74.8602L143.347 73.6262V76.3222L145.485 77.5562ZM145.562 82.7602C146.156 83.1032 146.692 83.0872 146.692 81.8272C146.692 80.9582 146.389 79.9902 145.562 79.5132L143.347 78.2342V81.4822L145.562 82.7602Z" fill="white"/>
<path d="M157.265 79.5791C159.681 80.9741 161.364 82.4801 161.364 88.0371C161.364 93.2691 159.779 93.0341 157.265 91.5821C154.751 90.1311 153.153 88.6901 153.153 83.2961C153.153 77.7391 154.919 78.2241 157.265 79.5791ZM157.265 89.4921C158.905 90.4391 159.409 90.1031 159.409 86.9071C159.409 83.2131 158.818 82.5651 157.265 81.6681C155.753 80.7951 155.108 80.6491 155.108 84.4241C155.108 87.6601 155.519 88.4851 157.265 89.4921Z" fill="white"/>
<path d="M162.358 85.0985C162.358 83.1635 163.508 83.2335 164.579 83.8825C164.579 83.8825 168.178 86.0765 169.077 86.7385V88.6135L165.041 86.2835C164.315 85.8645 164.315 86.3345 164.315 86.7715V88.6215L168.442 91.1745V93.0395L164.315 90.8105V95.5885L162.359 94.4585L162.358 85.0985Z" fill="white"/>
<path d="M170.274 89.6681C170.274 87.7321 171.423 87.8031 172.495 88.4521C172.495 88.4521 176.094 90.6471 176.993 91.3081V93.1831L172.956 90.8521C172.231 90.4331 172.231 90.9031 172.231 91.3401V93.1901L176.358 95.7441V97.6091L172.231 95.3791V100.157L170.275 99.0281L170.274 89.6681Z" fill="white"/>
<path d="M178.189 94.2037C178.189 92.1457 179.446 92.4447 180.41 93.0227C180.41 93.0227 184.009 95.2167 184.908 95.8787V97.7537L180.871 95.4237C180.146 95.0047 180.146 95.4747 180.146 95.9117V97.7617L184.273 100.315V102.18L180.146 99.9507V101.801C180.152 102.662 180.607 102.909 181.011 103.143L184.908 105.393V107.252C184.117 106.92 180.55 105.011 180.55 105.011C179.638 104.532 178.189 103.456 178.189 101.269V94.2037Z" fill="white"/>
<path d="M186.011 96.2568L190.484 98.8388C192.079 99.7598 193.266 101.311 193.266 104.142C193.266 107.078 192.207 106.814 191.638 106.693L193.574 112.48L191.374 111.21L189.684 105.747L187.967 104.529V109.243L186.011 108.115V96.2568ZM190.291 104.09C190.972 104.484 191.297 104.439 191.297 103.006C191.297 101.659 190.905 101.099 190.291 100.745L187.974 99.4068V102.752L190.291 104.09Z" fill="white"/>
<path d="M265.882 418.721L272.267 461.046L297.422 475.665L297.325 436.995L265.882 418.721Z" fill="#EBEEFC"/>
<path d="M328.963 418.721L322.577 461.046L297.422 475.665L297.325 436.995L328.963 418.721Z" fill="#DADFF6"/>
<path d="M265.882 418.72L297.325 436.994L328.976 418.721L297.531 400.447L265.882 418.72Z" fill="#F3F8FA"/>
<path d="M323.622 418.72L297.399 433.869L297.393 433.874L297.348 433.897L271.237 418.72L297.511 403.545L323.622 418.72Z" fill="#2E2E37"/>
<path d="M285.268 397.241C278.562 388.294 271.028 379.588 267.036 369.545C264.262 362.567 263.337 355.197 263.546 347.929C263.655 344.169 264.064 340.43 264.665 336.722C265.168 333.617 265.26 328.843 267.079 326.216C274.309 330.461 281.555 338.02 285.237 344.857C287.969 349.932 290.773 354.783 292.109 360.291C293.476 365.927 293.777 371.693 293.736 377.396C293.684 384.378 293.16 391.352 293.628 398.346C293.844 401.578 294.228 404.912 294.737 408.107C295.237 411.248 297.099 414.228 298.289 417.254C298.618 418.089 301.238 424.617 298.67 422.737C296.963 421.487 296.614 416.608 295.835 414.715C294.611 411.74 293.067 408.86 291.35 406.064C289.492 403.041 287.423 400.116 285.268 397.241Z" fill="#213E0B"/>
<path d="M300.887 412.614C304.514 408.635 309.324 405.835 314.442 404.162C323.359 401.252 330.911 404.13 338.58 408.802C345.4 412.956 347.954 423.825 347.503 431.212C347.155 436.923 345.072 442.494 341.694 447.102C339.378 450.261 334.208 457.322 332.165 450.258C330.85 445.711 330.687 440.926 330.277 436.21C329.867 431.493 329.166 426.681 326.909 422.519C323.988 417.136 319.638 415.022 313.835 414.819C309.528 414.669 305.009 414.571 301.164 416.519C299.732 417.242 298.466 418.328 297.514 419.618C296.8 420.584 296.349 422.626 295.4 422.952C295.666 419.28 298.465 415.271 300.887 412.614Z" fill="#3A6B1D"/>
<path d="M291.769 399.043C290.479 396.529 289.122 394.435 288.417 391.629C286.979 385.907 287.344 379.871 288.839 374.257C291.031 366.02 295.468 358.557 299.856 351.205C302.477 346.816 305.097 342.426 307.716 338.038C306.097 339.651 306.961 342.316 307.797 344.447C312.067 355.305 313.168 367.227 310.943 378.5C310.243 382.051 309.213 385.534 307.879 388.903C306.48 392.434 304.33 395.537 302.774 398.959C300.72 403.471 298.787 408.35 297.863 413.228C297.464 415.326 297.504 417.442 297.07 419.578C296.919 420.319 294.982 426.22 295.286 426.487C294.354 425.666 294.553 424.256 294.776 423.082C296.214 415.473 295.471 406.324 291.854 399.206C291.825 399.151 291.797 399.097 291.769 399.043Z" fill="#9AB700"/>
<path d="M298.337 421.368C298.212 420.966 298.08 420.565 297.925 420.172C296.896 417.563 295.284 415.291 294.127 412.766C291.762 407.605 289.784 402.419 286.732 397.532C281.667 389.428 274.637 382.171 265.658 378.314C255.275 373.854 243.412 374.31 232.305 371.935C234.92 372.805 237.147 374.726 238.929 376.82C241.114 379.388 242.851 382.309 245.254 384.691C249.789 389.185 256.199 391.32 262.024 394.12C270.816 398.348 278.566 404.296 286.242 410.198C290.471 413.449 294.08 417.082 296.831 421.367H298.337V421.368Z" fill="#6E8111"/>
<path d="M320.4 420.062C315.546 414.656 305.698 411.937 299.895 417.371C299.242 417.984 298.659 418.675 298.173 419.429C298.051 419.617 297.146 421.78 297.357 421.78C297.531 421.78 297.704 421.779 297.877 421.788C298.094 420.139 301.471 419.001 302.831 418.769C304.711 418.449 306.695 418.784 308.365 419.704C311.269 421.304 311.334 425.087 311.061 428.046C310.758 431.315 309.601 434.432 308.719 437.594C307.403 442.309 306.687 447.265 307.368 452.113C308.05 456.96 310.231 461.707 313.97 464.868C311.891 462.113 311.792 458.253 312.876 454.976C313.959 451.7 316.069 448.876 318.172 446.14C320.274 443.404 322.437 440.635 323.654 437.407C325.838 431.618 324.534 424.663 320.4 420.062Z" fill="#6E8111"/>
<path d="M309.424 387.58C313.207 381.853 317.837 376.602 323.521 372.756C329.205 368.909 336.001 366.526 342.86 366.74C350.52 366.978 360.241 371.14 364.015 378.25C372.192 393.651 367.503 406.907 365.774 403.815C362.191 397.407 353.935 395.001 347.2 392.083C340.466 389.163 332.776 387.845 325.732 389.911C320.208 391.531 315.427 395.123 311.541 399.369C305.564 405.901 299.927 413.927 297.327 422.394C298.056 410.147 302.697 397.761 309.424 387.58Z" fill="#213E0B"/>
<path d="M266.841 396.778C261.9 395.062 256.47 394.258 251.535 395.993C245.548 398.097 241.096 403.705 238.6 409.886C236.102 416.066 235.287 422.847 234.497 429.525C239.426 426.757 244.177 423.628 248.708 420.168C253.475 416.529 258.245 412.402 264.006 411.26C271.345 409.805 277.901 413.427 284.387 416.323C290.39 419.003 295.424 424.164 298.055 430.533C295.712 424.862 293.47 417.491 289.087 413.199C284.877 409.076 280.981 404.544 276.05 401.317C273.161 399.427 270.064 397.896 266.841 396.778Z" fill="#3A6B1D"/>
<path d="M269.186 425.936C267.123 429.778 266.732 434.341 267.286 438.666C267.839 442.991 269.278 447.147 270.708 451.266C271.927 454.781 273.147 458.295 274.367 461.81C274.993 463.615 275.619 465.419 276.246 467.224C276.587 468.205 277.045 471.163 278.178 471.354C278.483 470.012 278.054 468.166 278.004 466.746C277.945 465.089 277.937 463.428 278.031 461.771C278.217 458.507 278.797 455.242 280.108 452.231C282.105 447.641 285.693 443.874 289.793 441.004C292.007 439.455 294.382 438.141 296.548 436.525C298.714 434.91 300.703 432.937 301.799 430.468C303.117 427.498 302.609 423.588 301.288 420.682C300.175 418.233 298.036 416.75 295.496 416.028C290.616 414.641 284.851 415.513 280.141 417.183C275.646 418.777 271.482 421.662 269.186 425.936Z" fill="#9AB700"/>
</svg>
