<svg width="538" height="347" viewBox="0 0 538 347" fill="none" xmlns="http://www.w3.org/2000/svg">
<path d="M313.663 341.051C315.097 341.051 316.326 342.28 316.326 343.714C316.326 345.148 315.097 346.377 313.663 346.377C312.229 346.377 311 345.148 311 343.714C311 342.178 312.229 341.051 313.663 341.051Z" fill="#518BBB"/>
<path d="M329.426 341.051C330.86 341.051 332.089 342.28 332.089 343.714C332.089 345.148 330.86 346.377 329.426 346.377C327.992 346.377 326.763 345.148 326.763 343.714C326.763 342.178 327.889 341.051 329.426 341.051Z" fill="#518BBB"/>
<path d="M345.189 341.051C346.622 341.051 347.852 342.281 347.852 343.714C347.852 345.148 346.622 346.378 345.189 346.378C343.755 346.378 342.525 345.148 342.525 343.714C342.525 342.178 343.755 341.051 345.189 341.051Z" fill="#518BBB"/>
<path d="M313.663 325.288C315.097 325.288 316.326 326.518 316.326 327.952C316.326 329.386 315.097 330.615 313.663 330.615C312.229 330.615 311 329.386 311 327.952C311 326.518 312.229 325.288 313.663 325.288Z" fill="#518BBB"/>
<path d="M329.426 325.289C330.86 325.289 332.089 326.518 332.089 327.952C332.089 329.386 330.86 330.615 329.426 330.615C327.992 330.615 326.763 329.386 326.763 327.952C326.763 326.518 327.889 325.289 329.426 325.289Z" fill="#518BBB"/>
<path d="M345.189 325.288C346.623 325.288 347.852 326.518 347.852 327.951C347.852 329.385 346.623 330.615 345.189 330.615C343.755 330.615 342.526 329.385 342.526 327.951C342.526 326.518 343.755 325.288 345.189 325.288Z" fill="#518BBB"/>
<path d="M360.951 341.051C362.385 341.051 363.615 342.28 363.615 343.714C363.615 345.148 362.385 346.377 360.951 346.377C359.517 346.377 358.288 345.148 358.288 343.714C358.391 342.178 359.517 341.051 360.951 341.051Z" fill="#518BBB"/>
<path d="M376.714 341.051C378.148 341.051 379.377 342.28 379.377 343.714C379.377 345.148 378.148 346.377 376.714 346.377C375.28 346.377 374.051 345.148 374.051 343.714C374.051 342.178 375.28 341.051 376.714 341.051Z" fill="#518BBB"/>
<path d="M360.951 325.289C362.385 325.289 363.615 326.518 363.615 327.952C363.615 329.386 362.385 330.615 360.951 330.615C359.517 330.615 358.288 329.386 358.288 327.952C358.391 326.518 359.517 325.289 360.951 325.289Z" fill="#518BBB"/>
<path d="M376.714 325.289C378.148 325.289 379.377 326.518 379.377 327.952C379.377 329.386 378.148 330.615 376.714 330.615C375.28 330.615 374.051 329.386 374.051 327.952C374.051 326.518 375.28 325.289 376.714 325.289Z" fill="#518BBB"/>
<path d="M313.663 309.526C315.097 309.526 316.326 310.755 316.326 312.189C316.326 313.623 315.097 314.852 313.663 314.852C312.229 314.852 311 313.623 311 312.189C311 310.653 312.229 309.526 313.663 309.526Z" fill="#518BBB"/>
<path d="M329.426 309.526C330.86 309.526 332.089 310.755 332.089 312.189C332.089 313.623 330.86 314.852 329.426 314.852C327.992 314.852 326.763 313.623 326.763 312.189C326.763 310.652 327.889 309.526 329.426 309.526Z" fill="#518BBB"/>
<path d="M345.189 309.526C346.622 309.526 347.852 310.755 347.852 312.189C347.852 313.623 346.622 314.852 345.189 314.852C343.755 314.852 342.525 313.623 342.525 312.189C342.525 310.652 343.755 309.526 345.189 309.526Z" fill="#518BBB"/>
<path d="M313.663 293.763C315.097 293.763 316.326 294.992 316.326 296.426C316.326 297.86 315.097 299.089 313.663 299.089C312.229 299.089 311 297.86 311 296.426C311 294.89 312.229 293.763 313.663 293.763Z" fill="#518BBB"/>
<path d="M329.426 293.763C330.86 293.763 332.089 294.992 332.089 296.426C332.089 297.86 330.86 299.089 329.426 299.089C327.992 299.089 326.763 297.86 326.763 296.426C326.763 294.89 327.889 293.763 329.426 293.763Z" fill="#518BBB"/>
<path d="M345.189 293.763C346.622 293.763 347.852 294.992 347.852 296.426C347.852 297.86 346.622 299.089 345.189 299.089C343.755 299.089 342.525 297.86 342.525 296.426C342.525 294.89 343.755 293.763 345.189 293.763Z" fill="#518BBB"/>
<path d="M313.663 278C315.097 278 316.326 279.229 316.326 280.663C316.326 282.097 315.097 283.326 313.663 283.326C312.229 283.326 311 282.097 311 280.663C311 279.229 312.229 278 313.663 278Z" fill="#518BBB"/>
<path d="M329.426 278C330.86 278 332.089 279.229 332.089 280.663C332.089 282.097 330.86 283.326 329.426 283.326C327.992 283.326 326.763 282.097 326.763 280.663C326.763 279.229 327.889 278 329.426 278Z" fill="#518BBB"/>
<path d="M345.189 278.001C346.622 278.001 347.852 279.23 347.852 280.664C347.852 282.098 346.622 283.327 345.189 283.327C343.755 283.327 342.525 282.098 342.525 280.664C342.525 279.23 343.755 278.001 345.189 278.001Z" fill="#518BBB"/>
<path d="M360.951 309.526C362.385 309.526 363.615 310.755 363.615 312.189C363.615 313.623 362.385 314.852 360.951 314.852C359.517 314.852 358.288 313.623 358.288 312.189C358.391 310.653 359.517 309.526 360.951 309.526Z" fill="#518BBB"/>
<path d="M376.714 309.526C378.148 309.526 379.377 310.755 379.377 312.189C379.377 313.623 378.148 314.852 376.714 314.852C375.28 314.852 374.051 313.623 374.051 312.189C374.051 310.653 375.28 309.526 376.714 309.526Z" fill="#518BBB"/>
<path d="M360.951 293.763C362.385 293.763 363.614 294.992 363.614 296.426C363.614 297.86 362.385 299.089 360.951 299.089C359.517 299.089 358.288 297.86 358.288 296.426C358.391 294.89 359.517 293.763 360.951 293.763Z" fill="#518BBB"/>
<path d="M376.714 293.763C378.148 293.763 379.377 294.992 379.377 296.426C379.377 297.86 378.148 299.089 376.714 299.089C375.28 299.089 374.051 297.86 374.051 296.426C374.051 294.89 375.28 293.763 376.714 293.763Z" fill="#518BBB"/>
<path d="M360.951 278C362.385 278 363.615 279.229 363.615 280.663C363.615 282.097 362.385 283.326 360.951 283.326C359.517 283.326 358.288 282.097 358.288 280.663C358.391 279.229 359.517 278 360.951 278Z" fill="#518BBB"/>
<path d="M376.714 278C378.148 278 379.377 279.229 379.377 280.663C379.377 282.097 378.148 283.326 376.714 283.326C375.28 283.326 374.051 282.097 374.051 280.663C374.051 279.229 375.28 278 376.714 278Z" fill="#518BBB"/>
<path d="M392.663 341.051C394.097 341.051 395.326 342.28 395.326 343.714C395.326 345.148 394.097 346.377 392.663 346.377C391.229 346.377 390 345.148 390 343.714C390 342.178 391.229 341.051 392.663 341.051Z" fill="#518BBB"/>
<path d="M408.426 341.051C409.86 341.051 411.089 342.28 411.089 343.714C411.089 345.148 409.86 346.377 408.426 346.377C406.992 346.377 405.763 345.148 405.763 343.714C405.763 342.178 406.889 341.051 408.426 341.051Z" fill="#518BBB"/>
<path d="M424.189 341.051C425.622 341.051 426.852 342.281 426.852 343.714C426.852 345.148 425.622 346.378 424.189 346.378C422.755 346.378 421.525 345.148 421.525 343.714C421.525 342.178 422.755 341.051 424.189 341.051Z" fill="#518BBB"/>
<path d="M392.663 325.288C394.097 325.288 395.326 326.518 395.326 327.952C395.326 329.386 394.097 330.615 392.663 330.615C391.229 330.615 390 329.386 390 327.952C390 326.518 391.229 325.288 392.663 325.288Z" fill="#518BBB"/>
<path d="M408.426 325.289C409.86 325.289 411.089 326.518 411.089 327.952C411.089 329.386 409.86 330.615 408.426 330.615C406.992 330.615 405.763 329.386 405.763 327.952C405.763 326.518 406.889 325.289 408.426 325.289Z" fill="#518BBB"/>
<path d="M424.189 325.288C425.623 325.288 426.852 326.518 426.852 327.951C426.852 329.385 425.623 330.615 424.189 330.615C422.755 330.615 421.526 329.385 421.526 327.951C421.526 326.518 422.755 325.288 424.189 325.288Z" fill="#518BBB"/>
<path d="M439.951 341.051C441.385 341.051 442.615 342.28 442.615 343.714C442.615 345.148 441.385 346.377 439.951 346.377C438.517 346.377 437.288 345.148 437.288 343.714C437.391 342.178 438.517 341.051 439.951 341.051Z" fill="#518BBB"/>
<path d="M455.714 341.051C457.148 341.051 458.377 342.28 458.377 343.714C458.377 345.148 457.148 346.377 455.714 346.377C454.28 346.377 453.051 345.148 453.051 343.714C453.051 342.178 454.28 341.051 455.714 341.051Z" fill="#518BBB"/>
<path d="M439.951 325.289C441.385 325.289 442.615 326.518 442.615 327.952C442.615 329.386 441.385 330.615 439.951 330.615C438.517 330.615 437.288 329.386 437.288 327.952C437.391 326.518 438.517 325.289 439.951 325.289Z" fill="#518BBB"/>
<path d="M455.714 325.289C457.148 325.289 458.377 326.518 458.377 327.952C458.377 329.386 457.148 330.615 455.714 330.615C454.28 330.615 453.051 329.386 453.051 327.952C453.051 326.518 454.28 325.289 455.714 325.289Z" fill="#518BBB"/>
<path d="M392.663 309.526C394.097 309.526 395.326 310.755 395.326 312.189C395.326 313.623 394.097 314.852 392.663 314.852C391.229 314.852 390 313.623 390 312.189C390 310.653 391.229 309.526 392.663 309.526Z" fill="#518BBB"/>
<path d="M408.426 309.526C409.86 309.526 411.089 310.755 411.089 312.189C411.089 313.623 409.86 314.852 408.426 314.852C406.992 314.852 405.763 313.623 405.763 312.189C405.763 310.652 406.889 309.526 408.426 309.526Z" fill="#518BBB"/>
<path d="M424.189 309.526C425.622 309.526 426.852 310.755 426.852 312.189C426.852 313.623 425.622 314.852 424.189 314.852C422.755 314.852 421.525 313.623 421.525 312.189C421.525 310.652 422.755 309.526 424.189 309.526Z" fill="#518BBB"/>
<path d="M392.663 293.763C394.097 293.763 395.326 294.992 395.326 296.426C395.326 297.86 394.097 299.089 392.663 299.089C391.229 299.089 390 297.86 390 296.426C390 294.89 391.229 293.763 392.663 293.763Z" fill="#518BBB"/>
<path d="M408.426 293.763C409.86 293.763 411.089 294.992 411.089 296.426C411.089 297.86 409.86 299.089 408.426 299.089C406.992 299.089 405.763 297.86 405.763 296.426C405.763 294.89 406.889 293.763 408.426 293.763Z" fill="#518BBB"/>
<path d="M424.189 293.763C425.622 293.763 426.852 294.992 426.852 296.426C426.852 297.86 425.622 299.089 424.189 299.089C422.755 299.089 421.525 297.86 421.525 296.426C421.525 294.89 422.755 293.763 424.189 293.763Z" fill="#518BBB"/>
<path d="M392.663 278C394.097 278 395.326 279.229 395.326 280.663C395.326 282.097 394.097 283.326 392.663 283.326C391.229 283.326 390 282.097 390 280.663C390 279.229 391.229 278 392.663 278Z" fill="#518BBB"/>
<path d="M408.426 278C409.86 278 411.089 279.229 411.089 280.663C411.089 282.097 409.86 283.326 408.426 283.326C406.992 283.326 405.763 282.097 405.763 280.663C405.763 279.229 406.889 278 408.426 278Z" fill="#518BBB"/>
<path d="M424.189 278.001C425.622 278.001 426.852 279.23 426.852 280.664C426.852 282.098 425.622 283.327 424.189 283.327C422.755 283.327 421.525 282.098 421.525 280.664C421.525 279.23 422.755 278.001 424.189 278.001Z" fill="#518BBB"/>
<path d="M439.951 309.526C441.385 309.526 442.615 310.755 442.615 312.189C442.615 313.623 441.385 314.852 439.951 314.852C438.517 314.852 437.288 313.623 437.288 312.189C437.391 310.653 438.517 309.526 439.951 309.526Z" fill="#518BBB"/>
<path d="M455.714 309.526C457.148 309.526 458.377 310.755 458.377 312.189C458.377 313.623 457.148 314.852 455.714 314.852C454.28 314.852 453.051 313.623 453.051 312.189C453.051 310.653 454.28 309.526 455.714 309.526Z" fill="#518BBB"/>
<path d="M439.951 293.763C441.385 293.763 442.614 294.992 442.614 296.426C442.614 297.86 441.385 299.089 439.951 299.089C438.517 299.089 437.288 297.86 437.288 296.426C437.391 294.89 438.517 293.763 439.951 293.763Z" fill="#518BBB"/>
<path d="M455.714 293.763C457.148 293.763 458.377 294.992 458.377 296.426C458.377 297.86 457.148 299.089 455.714 299.089C454.28 299.089 453.051 297.86 453.051 296.426C453.051 294.89 454.28 293.763 455.714 293.763Z" fill="#518BBB"/>
<path d="M439.951 278C441.385 278 442.615 279.229 442.615 280.663C442.615 282.097 441.385 283.326 439.951 283.326C438.517 283.326 437.288 282.097 437.288 280.663C437.391 279.229 438.517 278 439.951 278Z" fill="#518BBB"/>
<path d="M455.714 278C457.148 278 458.377 279.229 458.377 280.663C458.377 282.097 457.148 283.326 455.714 283.326C454.28 283.326 453.051 282.097 453.051 280.663C453.051 279.229 454.28 278 455.714 278Z" fill="#518BBB"/>
<path d="M471.663 341.051C473.097 341.051 474.326 342.28 474.326 343.714C474.326 345.148 473.097 346.377 471.663 346.377C470.229 346.377 469 345.148 469 343.714C469 342.178 470.229 341.051 471.663 341.051Z" fill="#518BBB"/>
<path d="M487.426 341.051C488.86 341.051 490.089 342.28 490.089 343.714C490.089 345.148 488.86 346.377 487.426 346.377C485.992 346.377 484.763 345.148 484.763 343.714C484.763 342.178 485.889 341.051 487.426 341.051Z" fill="#518BBB"/>
<path d="M503.189 341.051C504.622 341.051 505.852 342.281 505.852 343.714C505.852 345.148 504.622 346.378 503.189 346.378C501.755 346.378 500.525 345.148 500.525 343.714C500.525 342.178 501.755 341.051 503.189 341.051Z" fill="#518BBB"/>
<path d="M471.663 325.288C473.097 325.288 474.326 326.518 474.326 327.952C474.326 329.386 473.097 330.615 471.663 330.615C470.229 330.615 469 329.386 469 327.952C469 326.518 470.229 325.288 471.663 325.288Z" fill="#518BBB"/>
<path d="M487.426 325.289C488.86 325.289 490.089 326.518 490.089 327.952C490.089 329.386 488.86 330.615 487.426 330.615C485.992 330.615 484.763 329.386 484.763 327.952C484.763 326.518 485.889 325.289 487.426 325.289Z" fill="#518BBB"/>
<path d="M503.189 325.288C504.623 325.288 505.852 326.518 505.852 327.951C505.852 329.385 504.623 330.615 503.189 330.615C501.755 330.615 500.526 329.385 500.526 327.951C500.526 326.518 501.755 325.288 503.189 325.288Z" fill="#518BBB"/>
<path d="M518.951 341.051C520.385 341.051 521.615 342.28 521.615 343.714C521.615 345.148 520.385 346.377 518.951 346.377C517.517 346.377 516.288 345.148 516.288 343.714C516.391 342.178 517.517 341.051 518.951 341.051Z" fill="#518BBB"/>
<path d="M534.714 341.051C536.148 341.051 537.377 342.28 537.377 343.714C537.377 345.148 536.148 346.377 534.714 346.377C533.28 346.377 532.051 345.148 532.051 343.714C532.051 342.178 533.28 341.051 534.714 341.051Z" fill="#518BBB"/>
<path d="M518.951 325.289C520.385 325.289 521.615 326.518 521.615 327.952C521.615 329.386 520.385 330.615 518.951 330.615C517.517 330.615 516.288 329.386 516.288 327.952C516.391 326.518 517.517 325.289 518.951 325.289Z" fill="#518BBB"/>
<path d="M534.714 325.289C536.148 325.289 537.377 326.518 537.377 327.952C537.377 329.386 536.148 330.615 534.714 330.615C533.28 330.615 532.051 329.386 532.051 327.952C532.051 326.518 533.28 325.289 534.714 325.289Z" fill="#518BBB"/>
<path d="M471.663 309.526C473.097 309.526 474.326 310.755 474.326 312.189C474.326 313.623 473.097 314.852 471.663 314.852C470.229 314.852 469 313.623 469 312.189C469 310.653 470.229 309.526 471.663 309.526Z" fill="#518BBB"/>
<path d="M487.426 309.526C488.86 309.526 490.089 310.755 490.089 312.189C490.089 313.623 488.86 314.852 487.426 314.852C485.992 314.852 484.763 313.623 484.763 312.189C484.763 310.652 485.889 309.526 487.426 309.526Z" fill="#518BBB"/>
<path d="M503.189 309.526C504.622 309.526 505.852 310.755 505.852 312.189C505.852 313.623 504.622 314.852 503.189 314.852C501.755 314.852 500.525 313.623 500.525 312.189C500.525 310.652 501.755 309.526 503.189 309.526Z" fill="#518BBB"/>
<path d="M471.663 293.763C473.097 293.763 474.326 294.992 474.326 296.426C474.326 297.86 473.097 299.089 471.663 299.089C470.229 299.089 469 297.86 469 296.426C469 294.89 470.229 293.763 471.663 293.763Z" fill="#518BBB"/>
<path d="M487.426 293.763C488.86 293.763 490.089 294.992 490.089 296.426C490.089 297.86 488.86 299.089 487.426 299.089C485.992 299.089 484.763 297.86 484.763 296.426C484.763 294.89 485.889 293.763 487.426 293.763Z" fill="#518BBB"/>
<path d="M503.189 293.763C504.622 293.763 505.852 294.992 505.852 296.426C505.852 297.86 504.622 299.089 503.189 299.089C501.755 299.089 500.525 297.86 500.525 296.426C500.525 294.89 501.755 293.763 503.189 293.763Z" fill="#518BBB"/>
<path d="M471.663 278C473.097 278 474.326 279.229 474.326 280.663C474.326 282.097 473.097 283.326 471.663 283.326C470.229 283.326 469 282.097 469 280.663C469 279.229 470.229 278 471.663 278Z" fill="#518BBB"/>
<path d="M487.426 278C488.86 278 490.089 279.229 490.089 280.663C490.089 282.097 488.86 283.326 487.426 283.326C485.992 283.326 484.763 282.097 484.763 280.663C484.763 279.229 485.889 278 487.426 278Z" fill="#518BBB"/>
<path d="M503.189 278.001C504.622 278.001 505.852 279.23 505.852 280.664C505.852 282.098 504.622 283.327 503.189 283.327C501.755 283.327 500.525 282.098 500.525 280.664C500.525 279.23 501.755 278.001 503.189 278.001Z" fill="#518BBB"/>
<path d="M518.951 309.526C520.385 309.526 521.615 310.755 521.615 312.189C521.615 313.623 520.385 314.852 518.951 314.852C517.517 314.852 516.288 313.623 516.288 312.189C516.391 310.653 517.517 309.526 518.951 309.526Z" fill="#518BBB"/>
<path d="M534.714 309.526C536.148 309.526 537.377 310.755 537.377 312.189C537.377 313.623 536.148 314.852 534.714 314.852C533.28 314.852 532.051 313.623 532.051 312.189C532.051 310.653 533.28 309.526 534.714 309.526Z" fill="#518BBB"/>
<path d="M518.951 293.763C520.385 293.763 521.614 294.992 521.614 296.426C521.614 297.86 520.385 299.089 518.951 299.089C517.517 299.089 516.288 297.86 516.288 296.426C516.391 294.89 517.517 293.763 518.951 293.763Z" fill="#518BBB"/>
<path d="M534.714 293.763C536.148 293.763 537.377 294.992 537.377 296.426C537.377 297.86 536.148 299.089 534.714 299.089C533.28 299.089 532.051 297.86 532.051 296.426C532.051 294.89 533.28 293.763 534.714 293.763Z" fill="#518BBB"/>
<path d="M518.951 278C520.385 278 521.615 279.229 521.615 280.663C521.615 282.097 520.385 283.326 518.951 283.326C517.517 283.326 516.288 282.097 516.288 280.663C516.391 279.229 517.517 278 518.951 278Z" fill="#518BBB"/>
<path d="M534.714 278C536.148 278 537.377 279.229 537.377 280.663C537.377 282.097 536.148 283.326 534.714 283.326C533.28 283.326 532.051 282.097 532.051 280.663C532.051 279.229 533.28 278 534.714 278Z" fill="#518BBB"/>
<g filter="url(#filter0_bd_2002_135)">
<rect x="19" y="15" width="488" height="302" rx="10" fill="#0097B2"/>
<rect x="19" y="15" width="488" height="302" rx="10" fill="#0097B2"/>
<rect x="19" y="15" width="488" height="302" rx="10" fill="#0097B2"/>
<rect x="24" y="20.3546" width="478" height="291.291" rx="10" fill="#0097B2"/>
<rect x="24" y="20.3546" width="478" height="291.291" rx="10" fill="white"/>
</g>
<path d="M59.098 51.216C59.098 51.852 58.948 52.452 58.648 53.016C58.348 53.58 57.868 54.042 57.208 54.402C56.548 54.75 55.702 54.924 54.67 54.924H52.402V60H50.35V47.49H54.67C55.63 47.49 56.44 47.658 57.1 47.994C57.772 48.318 58.27 48.762 58.594 49.326C58.93 49.89 59.098 50.52 59.098 51.216ZM54.67 53.25C55.45 53.25 56.032 53.076 56.416 52.728C56.8 52.368 56.992 51.864 56.992 51.216C56.992 49.848 56.218 49.164 54.67 49.164H52.402V53.25H54.67ZM70.1451 54.798C70.1451 55.17 70.1211 55.506 70.0731 55.806H62.4951C62.5551 56.598 62.8491 57.234 63.3771 57.714C63.9051 58.194 64.5531 58.434 65.3211 58.434C66.4251 58.434 67.2051 57.972 67.6611 57.048H69.8751C69.5751 57.96 69.0291 58.71 68.2371 59.298C67.4571 59.874 66.4851 60.162 65.3211 60.162C64.3731 60.162 63.5211 59.952 62.7651 59.532C62.0211 59.1 61.4331 58.5 61.0011 57.732C60.5811 56.952 60.3711 56.052 60.3711 55.032C60.3711 54.012 60.5751 53.118 60.9831 52.35C61.4031 51.57 61.9851 50.97 62.7291 50.55C63.4851 50.13 64.3491 49.92 65.3211 49.92C66.2571 49.92 67.0911 50.124 67.8231 50.532C68.5551 50.94 69.1251 51.516 69.5331 52.26C69.9411 52.992 70.1451 53.838 70.1451 54.798ZM68.0031 54.15C67.9911 53.394 67.7211 52.788 67.1931 52.332C66.6651 51.876 66.0111 51.648 65.2311 51.648C64.5231 51.648 63.9171 51.876 63.4131 52.332C62.9091 52.776 62.6091 53.382 62.5131 54.15H68.0031ZM74.2165 51.522C74.5165 51.018 74.9125 50.628 75.4045 50.352C75.9085 50.064 76.5025 49.92 77.1865 49.92V52.044H76.6645C75.8605 52.044 75.2485 52.248 74.8285 52.656C74.4205 53.064 74.2165 53.772 74.2165 54.78V60H72.1645V50.082H74.2165V51.522ZM83.2307 51.756H81.3947V60H79.3247V51.756H78.1547V50.082H79.3247V49.38C79.3247 48.24 79.6247 47.412 80.2247 46.896C80.8367 46.368 81.7907 46.104 83.0867 46.104V47.814C82.4627 47.814 82.0247 47.934 81.7727 48.174C81.5207 48.402 81.3947 48.804 81.3947 49.38V50.082H83.2307V51.756ZM89.3512 60.162C88.4152 60.162 87.5692 59.952 86.8132 59.532C86.0572 59.1 85.4632 58.5 85.0312 57.732C84.5992 56.952 84.3832 56.052 84.3832 55.032C84.3832 54.024 84.6052 53.13 85.0492 52.35C85.4932 51.57 86.0992 50.97 86.8672 50.55C87.6352 50.13 88.4932 49.92 89.4412 49.92C90.3892 49.92 91.2472 50.13 92.0152 50.55C92.7832 50.97 93.3892 51.57 93.8332 52.35C94.2772 53.13 94.4992 54.024 94.4992 55.032C94.4992 56.04 94.2712 56.934 93.8152 57.714C93.3592 58.494 92.7352 59.1 91.9432 59.532C91.1632 59.952 90.2992 60.162 89.3512 60.162ZM89.3512 58.38C89.8792 58.38 90.3712 58.254 90.8272 58.002C91.2952 57.75 91.6732 57.372 91.9612 56.868C92.2492 56.364 92.3932 55.752 92.3932 55.032C92.3932 54.312 92.2552 53.706 91.9792 53.214C91.7032 52.71 91.3372 52.332 90.8812 52.08C90.4252 51.828 89.9332 51.702 89.4052 51.702C88.8772 51.702 88.3852 51.828 87.9292 52.08C87.4852 52.332 87.1312 52.71 86.8672 53.214C86.6032 53.706 86.4712 54.312 86.4712 55.032C86.4712 56.1 86.7412 56.928 87.2812 57.516C87.8332 58.092 88.5232 58.38 89.3512 58.38ZM98.5797 51.522C98.8797 51.018 99.2757 50.628 99.7677 50.352C100.272 50.064 100.866 49.92 101.55 49.92V52.044H101.028C100.224 52.044 99.6117 52.248 99.1917 52.656C98.7837 53.064 98.5797 53.772 98.5797 54.78V60H96.5277V50.082H98.5797V51.522ZM115.442 49.92C116.222 49.92 116.918 50.082 117.53 50.406C118.154 50.73 118.64 51.21 118.988 51.846C119.348 52.482 119.528 53.25 119.528 54.15V60H117.494V54.456C117.494 53.568 117.272 52.89 116.828 52.422C116.384 51.942 115.778 51.702 115.01 51.702C114.242 51.702 113.63 51.942 113.174 52.422C112.73 52.89 112.508 53.568 112.508 54.456V60H110.474V54.456C110.474 53.568 110.252 52.89 109.808 52.422C109.364 51.942 108.758 51.702 107.99 51.702C107.222 51.702 106.61 51.942 106.154 52.422C105.71 52.89 105.488 53.568 105.488 54.456V60H103.436V50.082H105.488V51.216C105.824 50.808 106.25 50.49 106.766 50.262C107.282 50.034 107.834 49.92 108.422 49.92C109.214 49.92 109.922 50.088 110.546 50.424C111.17 50.76 111.65 51.246 111.986 51.882C112.286 51.282 112.754 50.808 113.39 50.46C114.026 50.1 114.71 49.92 115.442 49.92ZM121.455 54.996C121.455 54 121.659 53.118 122.067 52.35C122.487 51.582 123.051 50.988 123.759 50.568C124.479 50.136 125.271 49.92 126.135 49.92C126.915 49.92 127.593 50.076 128.169 50.388C128.757 50.688 129.225 51.066 129.573 51.522V50.082H131.643V60H129.573V58.524C129.225 58.992 128.751 59.382 128.151 59.694C127.551 60.006 126.867 60.162 126.099 60.162C125.247 60.162 124.467 59.946 123.759 59.514C123.051 59.07 122.487 58.458 122.067 57.678C121.659 56.886 121.455 55.992 121.455 54.996ZM129.573 55.032C129.573 54.348 129.429 53.754 129.141 53.25C128.865 52.746 128.499 52.362 128.043 52.098C127.587 51.834 127.095 51.702 126.567 51.702C126.039 51.702 125.547 51.834 125.091 52.098C124.635 52.35 124.263 52.728 123.975 53.232C123.699 53.724 123.561 54.312 123.561 54.996C123.561 55.68 123.699 56.28 123.975 56.796C124.263 57.312 124.635 57.708 125.091 57.984C125.559 58.248 126.051 58.38 126.567 58.38C127.095 58.38 127.587 58.248 128.043 57.984C128.499 57.72 128.865 57.336 129.141 56.832C129.429 56.316 129.573 55.716 129.573 55.032ZM139.342 49.92C140.122 49.92 140.818 50.082 141.43 50.406C142.054 50.73 142.54 51.21 142.888 51.846C143.236 52.482 143.41 53.25 143.41 54.15V60H141.376V54.456C141.376 53.568 141.154 52.89 140.71 52.422C140.266 51.942 139.66 51.702 138.892 51.702C138.124 51.702 137.512 51.942 137.056 52.422C136.612 52.89 136.39 53.568 136.39 54.456V60H134.338V50.082H136.39V51.216C136.726 50.808 137.152 50.49 137.668 50.262C138.196 50.034 138.754 49.92 139.342 49.92ZM145.344 55.032C145.344 54.012 145.548 53.118 145.956 52.35C146.376 51.57 146.952 50.97 147.684 50.55C148.416 50.13 149.256 49.92 150.204 49.92C151.404 49.92 152.394 50.208 153.174 50.784C153.966 51.348 154.5 52.158 154.776 53.214H152.562C152.382 52.722 152.094 52.338 151.698 52.062C151.302 51.786 150.804 51.648 150.204 51.648C149.364 51.648 148.692 51.948 148.188 52.548C147.696 53.136 147.45 53.964 147.45 55.032C147.45 56.1 147.696 56.934 148.188 57.534C148.692 58.134 149.364 58.434 150.204 58.434C151.392 58.434 152.178 57.912 152.562 56.868H154.776C154.488 57.876 153.948 58.68 153.156 59.28C152.364 59.868 151.38 60.162 150.204 60.162C149.256 60.162 148.416 59.952 147.684 59.532C146.952 59.1 146.376 58.5 145.956 57.732C145.548 56.952 145.344 56.052 145.344 55.032ZM165.911 54.798C165.911 55.17 165.887 55.506 165.839 55.806H158.261C158.321 56.598 158.615 57.234 159.143 57.714C159.671 58.194 160.319 58.434 161.087 58.434C162.191 58.434 162.971 57.972 163.427 57.048H165.641C165.341 57.96 164.795 58.71 164.003 59.298C163.223 59.874 162.251 60.162 161.087 60.162C160.139 60.162 159.287 59.952 158.531 59.532C157.787 59.1 157.199 58.5 156.767 57.732C156.347 56.952 156.137 56.052 156.137 55.032C156.137 54.012 156.341 53.118 156.749 52.35C157.169 51.57 157.751 50.97 158.495 50.55C159.251 50.13 160.115 49.92 161.087 49.92C162.023 49.92 162.857 50.124 163.589 50.532C164.321 50.94 164.891 51.516 165.299 52.26C165.707 52.992 165.911 53.838 165.911 54.798ZM163.769 54.15C163.757 53.394 163.487 52.788 162.959 52.332C162.431 51.876 161.777 51.648 160.997 51.648C160.289 51.648 159.683 51.876 159.179 52.332C158.675 52.776 158.375 53.382 158.279 54.15H163.769ZM185.782 47.49V60H183.73V51.432L179.914 60H178.492L174.658 51.432V60H172.606V47.49H174.82L179.212 57.3L183.586 47.49H185.782ZM187.795 54.996C187.795 54 187.999 53.118 188.407 52.35C188.827 51.582 189.391 50.988 190.099 50.568C190.819 50.136 191.611 49.92 192.475 49.92C193.255 49.92 193.933 50.076 194.509 50.388C195.097 50.688 195.565 51.066 195.913 51.522V50.082H197.983V60H195.913V58.524C195.565 58.992 195.091 59.382 194.491 59.694C193.891 60.006 193.207 60.162 192.439 60.162C191.587 60.162 190.807 59.946 190.099 59.514C189.391 59.07 188.827 58.458 188.407 57.678C187.999 56.886 187.795 55.992 187.795 54.996ZM195.913 55.032C195.913 54.348 195.769 53.754 195.481 53.25C195.205 52.746 194.839 52.362 194.383 52.098C193.927 51.834 193.435 51.702 192.907 51.702C192.379 51.702 191.887 51.834 191.431 52.098C190.975 52.35 190.603 52.728 190.315 53.232C190.039 53.724 189.901 54.312 189.901 54.996C189.901 55.68 190.039 56.28 190.315 56.796C190.603 57.312 190.975 57.708 191.431 57.984C191.899 58.248 192.391 58.38 192.907 58.38C193.435 58.38 193.927 58.248 194.383 57.984C194.839 57.72 195.205 57.336 195.481 56.832C195.769 56.316 195.913 55.716 195.913 55.032ZM205.682 49.92C206.462 49.92 207.158 50.082 207.77 50.406C208.394 50.73 208.88 51.21 209.228 51.846C209.576 52.482 209.75 53.25 209.75 54.15V60H207.716V54.456C207.716 53.568 207.494 52.89 207.05 52.422C206.606 51.942 206 51.702 205.232 51.702C204.464 51.702 203.852 51.942 203.396 52.422C202.952 52.89 202.73 53.568 202.73 54.456V60H200.678V50.082H202.73V51.216C203.066 50.808 203.492 50.49 204.008 50.262C204.536 50.034 205.094 49.92 205.682 49.92ZM211.684 54.996C211.684 54 211.888 53.118 212.296 52.35C212.716 51.582 213.28 50.988 213.988 50.568C214.708 50.136 215.5 49.92 216.364 49.92C217.144 49.92 217.822 50.076 218.398 50.388C218.986 50.688 219.454 51.066 219.802 51.522V50.082H221.872V60H219.802V58.524C219.454 58.992 218.98 59.382 218.38 59.694C217.78 60.006 217.096 60.162 216.328 60.162C215.476 60.162 214.696 59.946 213.988 59.514C213.28 59.07 212.716 58.458 212.296 57.678C211.888 56.886 211.684 55.992 211.684 54.996ZM219.802 55.032C219.802 54.348 219.658 53.754 219.37 53.25C219.094 52.746 218.728 52.362 218.272 52.098C217.816 51.834 217.324 51.702 216.796 51.702C216.268 51.702 215.776 51.834 215.32 52.098C214.864 52.35 214.492 52.728 214.204 53.232C213.928 53.724 213.79 54.312 213.79 54.996C213.79 55.68 213.928 56.28 214.204 56.796C214.492 57.312 214.864 57.708 215.32 57.984C215.788 58.248 216.28 58.38 216.796 58.38C217.324 58.38 217.816 58.248 218.272 57.984C218.728 57.72 219.094 57.336 219.37 56.832C219.658 56.316 219.802 55.716 219.802 55.032ZM228.563 49.92C229.331 49.92 230.009 50.076 230.597 50.388C231.197 50.688 231.665 51.066 232.001 51.522V50.082H234.071V60.162C234.071 61.074 233.879 61.884 233.495 62.592C233.111 63.312 232.553 63.876 231.821 64.284C231.101 64.692 230.237 64.896 229.229 64.896C227.885 64.896 226.769 64.578 225.881 63.942C224.993 63.318 224.489 62.466 224.369 61.386H226.403C226.559 61.902 226.889 62.316 227.393 62.628C227.909 62.952 228.521 63.114 229.229 63.114C230.057 63.114 230.723 62.862 231.227 62.358C231.743 61.854 232.001 61.122 232.001 60.162V58.506C231.653 58.974 231.179 59.37 230.579 59.694C229.991 60.006 229.319 60.162 228.563 60.162C227.699 60.162 226.907 59.946 226.187 59.514C225.479 59.07 224.915 58.458 224.495 57.678C224.087 56.886 223.883 55.992 223.883 54.996C223.883 54 224.087 53.118 224.495 52.35C224.915 51.582 225.479 50.988 226.187 50.568C226.907 50.136 227.699 49.92 228.563 49.92ZM232.001 55.032C232.001 54.348 231.857 53.754 231.569 53.25C231.293 52.746 230.927 52.362 230.471 52.098C230.015 51.834 229.523 51.702 228.995 51.702C228.467 51.702 227.975 51.834 227.519 52.098C227.063 52.35 226.691 52.728 226.403 53.232C226.127 53.724 225.989 54.312 225.989 54.996C225.989 55.68 226.127 56.28 226.403 56.796C226.691 57.312 227.063 57.708 227.519 57.984C227.987 58.248 228.479 58.38 228.995 58.38C229.523 58.38 230.015 58.248 230.471 57.984C230.927 57.72 231.293 57.336 231.569 56.832C231.857 56.316 232.001 55.716 232.001 55.032ZM245.856 54.798C245.856 55.17 245.832 55.506 245.784 55.806H238.206C238.266 56.598 238.56 57.234 239.088 57.714C239.616 58.194 240.264 58.434 241.032 58.434C242.136 58.434 242.916 57.972 243.372 57.048H245.586C245.286 57.96 244.74 58.71 243.948 59.298C243.168 59.874 242.196 60.162 241.032 60.162C240.084 60.162 239.232 59.952 238.476 59.532C237.732 59.1 237.144 58.5 236.712 57.732C236.292 56.952 236.082 56.052 236.082 55.032C236.082 54.012 236.286 53.118 236.694 52.35C237.114 51.57 237.696 50.97 238.44 50.55C239.196 50.13 240.06 49.92 241.032 49.92C241.968 49.92 242.802 50.124 243.534 50.532C244.266 50.94 244.836 51.516 245.244 52.26C245.652 52.992 245.856 53.838 245.856 54.798ZM243.714 54.15C243.702 53.394 243.432 52.788 242.904 52.332C242.376 51.876 241.722 51.648 240.942 51.648C240.234 51.648 239.628 51.876 239.124 52.332C238.62 52.776 238.32 53.382 238.224 54.15H243.714ZM259.881 49.92C260.661 49.92 261.357 50.082 261.969 50.406C262.593 50.73 263.079 51.21 263.427 51.846C263.787 52.482 263.967 53.25 263.967 54.15V60H261.933V54.456C261.933 53.568 261.711 52.89 261.267 52.422C260.823 51.942 260.217 51.702 259.449 51.702C258.681 51.702 258.069 51.942 257.613 52.422C257.169 52.89 256.947 53.568 256.947 54.456V60H254.913V54.456C254.913 53.568 254.691 52.89 254.247 52.422C253.803 51.942 253.197 51.702 252.429 51.702C251.661 51.702 251.049 51.942 250.593 52.422C250.149 52.89 249.927 53.568 249.927 54.456V60H247.875V50.082H249.927V51.216C250.263 50.808 250.689 50.49 251.205 50.262C251.721 50.034 252.273 49.92 252.861 49.92C253.653 49.92 254.361 50.088 254.985 50.424C255.609 50.76 256.089 51.246 256.425 51.882C256.725 51.282 257.193 50.808 257.829 50.46C258.465 50.1 259.149 49.92 259.881 49.92ZM275.669 54.798C275.669 55.17 275.645 55.506 275.597 55.806H268.019C268.079 56.598 268.373 57.234 268.901 57.714C269.429 58.194 270.077 58.434 270.845 58.434C271.949 58.434 272.729 57.972 273.185 57.048H275.399C275.099 57.96 274.553 58.71 273.761 59.298C272.981 59.874 272.009 60.162 270.845 60.162C269.897 60.162 269.045 59.952 268.289 59.532C267.545 59.1 266.957 58.5 266.525 57.732C266.105 56.952 265.895 56.052 265.895 55.032C265.895 54.012 266.099 53.118 266.507 52.35C266.927 51.57 267.509 50.97 268.253 50.55C269.009 50.13 269.873 49.92 270.845 49.92C271.781 49.92 272.615 50.124 273.347 50.532C274.079 50.94 274.649 51.516 275.057 52.26C275.465 52.992 275.669 53.838 275.669 54.798ZM273.527 54.15C273.515 53.394 273.245 52.788 272.717 52.332C272.189 51.876 271.535 51.648 270.755 51.648C270.047 51.648 269.441 51.876 268.937 52.332C268.433 52.776 268.133 53.382 268.037 54.15H273.527ZM282.692 49.92C283.472 49.92 284.168 50.082 284.78 50.406C285.404 50.73 285.89 51.21 286.238 51.846C286.586 52.482 286.76 53.25 286.76 54.15V60H284.726V54.456C284.726 53.568 284.504 52.89 284.06 52.422C283.616 51.942 283.01 51.702 282.242 51.702C281.474 51.702 280.862 51.942 280.406 52.422C279.962 52.89 279.74 53.568 279.74 54.456V60H277.688V50.082H279.74V51.216C280.076 50.808 280.502 50.49 281.018 50.262C281.546 50.034 282.104 49.92 282.692 49.92ZM291.771 51.756V57.246C291.771 57.618 291.855 57.888 292.023 58.056C292.203 58.212 292.503 58.29 292.923 58.29H294.183V60H292.563C291.639 60 290.931 59.784 290.439 59.352C289.947 58.92 289.701 58.218 289.701 57.246V51.756H288.531V50.082H289.701V47.616H291.771V50.082H294.183V51.756H291.771ZM304.872 60.126C304.032 60.126 303.276 59.982 302.604 59.694C301.932 59.394 301.404 58.974 301.02 58.434C300.636 57.894 300.444 57.264 300.444 56.544H302.64C302.688 57.084 302.898 57.528 303.27 57.876C303.654 58.224 304.188 58.398 304.872 58.398C305.58 58.398 306.132 58.23 306.528 57.894C306.924 57.546 307.122 57.102 307.122 56.562C307.122 56.142 306.996 55.8 306.744 55.536C306.504 55.272 306.198 55.068 305.826 54.924C305.466 54.78 304.962 54.624 304.314 54.456C303.498 54.24 302.832 54.024 302.316 53.808C301.812 53.58 301.38 53.232 301.02 52.764C300.66 52.296 300.48 51.672 300.48 50.892C300.48 50.172 300.66 49.542 301.02 49.002C301.38 48.462 301.884 48.048 302.532 47.76C303.18 47.472 303.93 47.328 304.782 47.328C305.994 47.328 306.984 47.634 307.752 48.246C308.532 48.846 308.964 49.674 309.048 50.73H306.78C306.744 50.274 306.528 49.884 306.132 49.56C305.736 49.236 305.214 49.074 304.566 49.074C303.978 49.074 303.498 49.224 303.126 49.524C302.754 49.824 302.568 50.256 302.568 50.82C302.568 51.204 302.682 51.522 302.91 51.774C303.15 52.014 303.45 52.206 303.81 52.35C304.17 52.494 304.662 52.65 305.286 52.818C306.114 53.046 306.786 53.274 307.302 53.502C307.83 53.73 308.274 54.084 308.634 54.564C309.006 55.032 309.192 55.662 309.192 56.454C309.192 57.09 309.018 57.69 308.67 58.254C308.334 58.818 307.836 59.274 307.176 59.622C306.528 59.958 305.76 60.126 304.872 60.126ZM320.704 54.798C320.704 55.17 320.68 55.506 320.632 55.806H313.054C313.114 56.598 313.408 57.234 313.936 57.714C314.464 58.194 315.112 58.434 315.88 58.434C316.984 58.434 317.764 57.972 318.22 57.048H320.434C320.134 57.96 319.588 58.71 318.796 59.298C318.016 59.874 317.044 60.162 315.88 60.162C314.932 60.162 314.08 59.952 313.324 59.532C312.58 59.1 311.992 58.5 311.56 57.732C311.14 56.952 310.93 56.052 310.93 55.032C310.93 54.012 311.134 53.118 311.542 52.35C311.962 51.57 312.544 50.97 313.288 50.55C314.044 50.13 314.908 49.92 315.88 49.92C316.816 49.92 317.65 50.124 318.382 50.532C319.114 50.94 319.684 51.516 320.092 52.26C320.5 52.992 320.704 53.838 320.704 54.798ZM318.562 54.15C318.55 53.394 318.28 52.788 317.752 52.332C317.224 51.876 316.57 51.648 315.79 51.648C315.082 51.648 314.476 51.876 313.972 52.332C313.468 52.776 313.168 53.382 313.072 54.15H318.562ZM324.775 51.522C325.075 51.018 325.471 50.628 325.963 50.352C326.467 50.064 327.061 49.92 327.745 49.92V52.044H327.223C326.419 52.044 325.807 52.248 325.387 52.656C324.979 53.064 324.775 53.772 324.775 54.78V60H322.723V50.082H324.775V51.522ZM333.465 58.164L336.273 50.082H338.451L334.671 60H332.223L328.461 50.082H330.657L333.465 58.164ZM341.046 48.768C340.674 48.768 340.362 48.642 340.11 48.39C339.858 48.138 339.732 47.826 339.732 47.454C339.732 47.082 339.858 46.77 340.11 46.518C340.362 46.266 340.674 46.14 341.046 46.14C341.406 46.14 341.712 46.266 341.964 46.518C342.216 46.77 342.342 47.082 342.342 47.454C342.342 47.826 342.216 48.138 341.964 48.39C341.712 48.642 341.406 48.768 341.046 48.768ZM342.054 50.082V60H340.002V50.082H342.054ZM344.064 55.032C344.064 54.012 344.268 53.118 344.676 52.35C345.096 51.57 345.672 50.97 346.404 50.55C347.136 50.13 347.976 49.92 348.924 49.92C350.124 49.92 351.114 50.208 351.894 50.784C352.686 51.348 353.22 52.158 353.496 53.214H351.282C351.102 52.722 350.814 52.338 350.418 52.062C350.022 51.786 349.524 51.648 348.924 51.648C348.084 51.648 347.412 51.948 346.908 52.548C346.416 53.136 346.17 53.964 346.17 55.032C346.17 56.1 346.416 56.934 346.908 57.534C347.412 58.134 348.084 58.434 348.924 58.434C350.112 58.434 350.898 57.912 351.282 56.868H353.496C353.208 57.876 352.668 58.68 351.876 59.28C351.084 59.868 350.1 60.162 348.924 60.162C347.976 60.162 347.136 59.952 346.404 59.532C345.672 59.1 345.096 58.5 344.676 57.732C344.268 56.952 344.064 56.052 344.064 55.032ZM364.631 54.798C364.631 55.17 364.607 55.506 364.559 55.806H356.981C357.041 56.598 357.335 57.234 357.863 57.714C358.391 58.194 359.039 58.434 359.807 58.434C360.911 58.434 361.691 57.972 362.147 57.048H364.361C364.061 57.96 363.515 58.71 362.723 59.298C361.943 59.874 360.971 60.162 359.807 60.162C358.859 60.162 358.007 59.952 357.251 59.532C356.507 59.1 355.919 58.5 355.487 57.732C355.067 56.952 354.857 56.052 354.857 55.032C354.857 54.012 355.061 53.118 355.469 52.35C355.889 51.57 356.471 50.97 357.215 50.55C357.971 50.13 358.835 49.92 359.807 49.92C360.743 49.92 361.577 50.124 362.309 50.532C363.041 50.94 363.611 51.516 364.019 52.26C364.427 52.992 364.631 53.838 364.631 54.798ZM362.489 54.15C362.477 53.394 362.207 52.788 361.679 52.332C361.151 51.876 360.497 51.648 359.717 51.648C359.009 51.648 358.403 51.876 357.899 52.332C357.395 52.776 357.095 53.382 356.999 54.15H362.489ZM370.251 60.162C369.471 60.162 368.769 60.024 368.145 59.748C367.533 59.46 367.047 59.076 366.687 58.596C366.327 58.104 366.135 57.558 366.111 56.958H368.235C368.271 57.378 368.469 57.732 368.829 58.02C369.201 58.296 369.663 58.434 370.215 58.434C370.791 58.434 371.235 58.326 371.547 58.11C371.871 57.882 372.033 57.594 372.033 57.246C372.033 56.874 371.853 56.598 371.493 56.418C371.145 56.238 370.587 56.04 369.819 55.824C369.075 55.62 368.469 55.422 368.001 55.23C367.533 55.038 367.125 54.744 366.777 54.348C366.441 53.952 366.273 53.43 366.273 52.782C366.273 52.254 366.429 51.774 366.741 51.342C367.053 50.898 367.497 50.55 368.073 50.298C368.661 50.046 369.333 49.92 370.089 49.92C371.217 49.92 372.123 50.208 372.807 50.784C373.503 51.348 373.875 52.122 373.923 53.106H371.871C371.835 52.662 371.655 52.308 371.331 52.044C371.007 51.78 370.569 51.648 370.017 51.648C369.477 51.648 369.063 51.75 368.775 51.954C368.487 52.158 368.343 52.428 368.343 52.764C368.343 53.028 368.439 53.25 368.631 53.43C368.823 53.61 369.057 53.754 369.333 53.862C369.609 53.958 370.017 54.084 370.557 54.24C371.277 54.432 371.865 54.63 372.321 54.834C372.789 55.026 373.191 55.314 373.527 55.698C373.863 56.082 374.037 56.592 374.049 57.228C374.049 57.792 373.893 58.296 373.581 58.74C373.269 59.184 372.825 59.532 372.249 59.784C371.685 60.036 371.019 60.162 370.251 60.162Z" fill="#0097B2"/>
<path d="M57.078 77.87C57.078 78.1127 57.064 78.3693 57.036 78.64H50.904C50.9507 79.396 51.2073 79.9887 51.674 80.418C52.15 80.838 52.724 81.048 53.396 81.048C53.9467 81.048 54.404 80.922 54.768 80.67C55.1413 80.4087 55.4027 80.0633 55.552 79.634H56.924C56.7187 80.3713 56.308 80.9733 55.692 81.44C55.076 81.8973 54.3107 82.126 53.396 82.126C52.668 82.126 52.0147 81.9627 51.436 81.636C50.8667 81.3093 50.4187 80.8473 50.092 80.25C49.7653 79.6433 49.602 78.9433 49.602 78.15C49.602 77.3567 49.7607 76.6613 50.078 76.064C50.3953 75.4667 50.8387 75.0093 51.408 74.692C51.9867 74.3653 52.6493 74.202 53.396 74.202C54.124 74.202 54.768 74.3607 55.328 74.678C55.888 74.9953 56.3173 75.434 56.616 75.994C56.924 76.5447 57.078 77.17 57.078 77.87ZM55.762 77.604C55.762 77.1187 55.6547 76.7033 55.44 76.358C55.2253 76.0033 54.9313 75.7373 54.558 75.56C54.194 75.3733 53.788 75.28 53.34 75.28C52.696 75.28 52.1453 75.4853 51.688 75.896C51.24 76.3067 50.9833 76.876 50.918 77.604H55.762ZM60.0336 71.64V82H58.7596V71.64H60.0336ZM69.205 77.87C69.205 78.1127 69.191 78.3693 69.163 78.64H63.031C63.0776 79.396 63.3343 79.9887 63.801 80.418C64.277 80.838 64.851 81.048 65.523 81.048C66.0736 81.048 66.531 80.922 66.895 80.67C67.2683 80.4087 67.5296 80.0633 67.679 79.634H69.051C68.8456 80.3713 68.435 80.9733 67.819 81.44C67.203 81.8973 66.4376 82.126 65.523 82.126C64.795 82.126 64.1416 81.9627 63.563 81.636C62.9936 81.3093 62.5456 80.8473 62.219 80.25C61.8923 79.6433 61.729 78.9433 61.729 78.15C61.729 77.3567 61.8876 76.6613 62.205 76.064C62.5223 75.4667 62.9656 75.0093 63.535 74.692C64.1136 74.3653 64.7763 74.202 65.523 74.202C66.251 74.202 66.895 74.3607 67.455 74.678C68.015 74.9953 68.4443 75.434 68.743 75.994C69.051 76.5447 69.205 77.17 69.205 77.87ZM67.889 77.604C67.889 77.1187 67.7816 76.7033 67.567 76.358C67.3523 76.0033 67.0583 75.7373 66.685 75.56C66.321 75.3733 65.915 75.28 65.467 75.28C64.823 75.28 64.2723 75.4853 63.815 75.896C63.367 76.3067 63.1103 76.876 63.045 77.604H67.889ZM73.7426 80.824L76.1226 74.328H77.4806L74.4706 82H72.9866L69.9766 74.328H71.3486L73.7426 80.824ZM78.2583 78.136C78.2583 77.352 78.4169 76.666 78.7343 76.078C79.0516 75.4807 79.4856 75.0187 80.0363 74.692C80.5963 74.3653 81.2169 74.202 81.8983 74.202C82.5703 74.202 83.1536 74.3467 83.6483 74.636C84.1429 74.9253 84.5116 75.2893 84.7543 75.728V74.328H86.0423V82H84.7543V80.572C84.5023 81.02 84.1243 81.3933 83.6203 81.692C83.1256 81.9813 82.5469 82.126 81.8843 82.126C81.2029 82.126 80.5869 81.958 80.0363 81.622C79.4856 81.286 79.0516 80.8147 78.7343 80.208C78.4169 79.6013 78.2583 78.9107 78.2583 78.136ZM84.7543 78.15C84.7543 77.5713 84.6376 77.0673 84.4043 76.638C84.1709 76.2087 83.8536 75.882 83.4523 75.658C83.0603 75.4247 82.6263 75.308 82.1503 75.308C81.6743 75.308 81.2403 75.42 80.8483 75.644C80.4563 75.868 80.1436 76.1947 79.9103 76.624C79.6769 77.0533 79.5603 77.5573 79.5603 78.136C79.5603 78.724 79.6769 79.2373 79.9103 79.676C80.1436 80.1053 80.4563 80.4367 80.8483 80.67C81.2403 80.894 81.6743 81.006 82.1503 81.006C82.6263 81.006 83.0603 80.894 83.4523 80.67C83.8536 80.4367 84.1709 80.1053 84.4043 79.676C84.6376 79.2373 84.7543 78.7287 84.7543 78.15ZM89.7492 75.378V79.9C89.7492 80.2733 89.8285 80.5393 89.9872 80.698C90.1459 80.8473 90.4212 80.922 90.8132 80.922H91.7512V82H90.6032C89.8939 82 89.3619 81.8367 89.0072 81.51C88.6525 81.1833 88.4752 80.6467 88.4752 79.9V75.378H87.4812V74.328H88.4752V72.396H89.7492V74.328H91.7512V75.378H89.7492ZM100.295 77.87C100.295 78.1127 100.281 78.3693 100.253 78.64H94.1208C94.1675 79.396 94.4241 79.9887 94.8908 80.418C95.3668 80.838 95.9408 81.048 96.6128 81.048C97.1635 81.048 97.6208 80.922 97.9848 80.67C98.3581 80.4087 98.6195 80.0633 98.7688 79.634H100.141C99.9355 80.3713 99.5248 80.9733 98.9088 81.44C98.2928 81.8973 97.5275 82.126 96.6128 82.126C95.8848 82.126 95.2315 81.9627 94.6528 81.636C94.0835 81.3093 93.6355 80.8473 93.3088 80.25C92.9821 79.6433 92.8188 78.9433 92.8188 78.15C92.8188 77.3567 92.9775 76.6613 93.2948 76.064C93.6121 75.4667 94.0555 75.0093 94.6248 74.692C95.2035 74.3653 95.8661 74.202 96.6128 74.202C97.3408 74.202 97.9848 74.3607 98.5448 74.678C99.1048 74.9953 99.5341 75.434 99.8328 75.994C100.141 76.5447 100.295 77.17 100.295 77.87ZM98.9788 77.604C98.9788 77.1187 98.8715 76.7033 98.6568 76.358C98.4421 76.0033 98.1481 75.7373 97.7748 75.56C97.4108 75.3733 97.0048 75.28 96.5568 75.28C95.9128 75.28 95.3621 75.4853 94.9048 75.896C94.4568 76.3067 94.2001 76.876 94.1348 77.604H98.9788ZM112.317 74.328L107.697 85.612H106.381L107.893 81.916L104.799 74.328H106.213L108.621 80.544L111.001 74.328H112.317ZM116.944 82.126C116.225 82.126 115.572 81.9627 114.984 81.636C114.405 81.3093 113.948 80.8473 113.612 80.25C113.285 79.6433 113.122 78.9433 113.122 78.15C113.122 77.366 113.29 76.6753 113.626 76.078C113.971 75.4713 114.438 75.0093 115.026 74.692C115.614 74.3653 116.272 74.202 117 74.202C117.728 74.202 118.386 74.3653 118.974 74.692C119.562 75.0093 120.024 75.4667 120.36 76.064C120.705 76.6613 120.878 77.3567 120.878 78.15C120.878 78.9433 120.7 79.6433 120.346 80.25C120 80.8473 119.529 81.3093 118.932 81.636C118.334 81.9627 117.672 82.126 116.944 82.126ZM116.944 81.006C117.401 81.006 117.83 80.8987 118.232 80.684C118.633 80.4693 118.955 80.1473 119.198 79.718C119.45 79.2887 119.576 78.766 119.576 78.15C119.576 77.534 119.454 77.0113 119.212 76.582C118.969 76.1527 118.652 75.8353 118.26 75.63C117.868 75.4153 117.443 75.308 116.986 75.308C116.519 75.308 116.09 75.4153 115.698 75.63C115.315 75.8353 115.007 76.1527 114.774 76.582C114.54 77.0113 114.424 77.534 114.424 78.15C114.424 78.7753 114.536 79.3027 114.76 79.732C114.993 80.1613 115.301 80.4833 115.684 80.698C116.066 80.9033 116.486 81.006 116.944 81.006ZM129.357 74.328V82H128.083V80.866C127.84 81.258 127.499 81.566 127.061 81.79C126.631 82.0047 126.155 82.112 125.633 82.112C125.035 82.112 124.499 81.9907 124.023 81.748C123.547 81.496 123.169 81.1227 122.889 80.628C122.618 80.1333 122.483 79.5313 122.483 78.822V74.328H123.743V78.654C123.743 79.41 123.934 79.9933 124.317 80.404C124.699 80.8053 125.222 81.006 125.885 81.006C126.566 81.006 127.103 80.796 127.495 80.376C127.887 79.956 128.083 79.3447 128.083 78.542V74.328H129.357ZM132.782 75.574C133.006 75.1353 133.323 74.7947 133.734 74.552C134.154 74.3093 134.662 74.188 135.26 74.188V75.504H134.924C133.496 75.504 132.782 76.2787 132.782 77.828V82H131.508V74.328H132.782V75.574ZM143.809 82.126C143.09 82.126 142.437 81.9627 141.849 81.636C141.27 81.3093 140.813 80.8473 140.477 80.25C140.15 79.6433 139.987 78.9433 139.987 78.15C139.987 77.366 140.155 76.6753 140.491 76.078C140.836 75.4713 141.303 75.0093 141.891 74.692C142.479 74.3653 143.137 74.202 143.865 74.202C144.593 74.202 145.251 74.3653 145.839 74.692C146.427 75.0093 146.889 75.4667 147.225 76.064C147.57 76.6613 147.743 77.3567 147.743 78.15C147.743 78.9433 147.565 79.6433 147.211 80.25C146.865 80.8473 146.394 81.3093 145.797 81.636C145.199 81.9627 144.537 82.126 143.809 82.126ZM143.809 81.006C144.266 81.006 144.695 80.8987 145.097 80.684C145.498 80.4693 145.82 80.1473 146.063 79.718C146.315 79.2887 146.441 78.766 146.441 78.15C146.441 77.534 146.319 77.0113 146.077 76.582C145.834 76.1527 145.517 75.8353 145.125 75.63C144.733 75.4153 144.308 75.308 143.851 75.308C143.384 75.308 142.955 75.4153 142.563 75.63C142.18 75.8353 141.872 76.1527 141.639 76.582C141.405 77.0113 141.289 77.534 141.289 78.15C141.289 78.7753 141.401 79.3027 141.625 79.732C141.858 80.1613 142.166 80.4833 142.549 80.698C142.931 80.9033 143.351 81.006 143.809 81.006ZM150.692 75.574C150.916 75.1353 151.233 74.7947 151.644 74.552C152.064 74.3093 152.573 74.188 153.17 74.188V75.504H152.834C151.406 75.504 150.692 76.2787 150.692 77.828V82H149.418V74.328H150.692V75.574ZM157.805 74.202C158.467 74.202 159.046 74.3467 159.541 74.636C160.045 74.9253 160.418 75.2893 160.661 75.728V74.328H161.949V82.168C161.949 82.868 161.799 83.4887 161.501 84.03C161.202 84.5807 160.773 85.01 160.213 85.318C159.662 85.626 159.018 85.78 158.281 85.78C157.273 85.78 156.433 85.542 155.761 85.066C155.089 84.59 154.692 83.9413 154.571 83.12H155.831C155.971 83.5867 156.26 83.96 156.699 84.24C157.137 84.5293 157.665 84.674 158.281 84.674C158.981 84.674 159.55 84.4547 159.989 84.016C160.437 83.5773 160.661 82.9613 160.661 82.168V80.558C160.409 81.006 160.035 81.3793 159.541 81.678C159.046 81.9767 158.467 82.126 157.805 82.126C157.123 82.126 156.503 81.958 155.943 81.622C155.392 81.286 154.958 80.8147 154.641 80.208C154.323 79.6013 154.165 78.9107 154.165 78.136C154.165 77.352 154.323 76.666 154.641 76.078C154.958 75.4807 155.392 75.0187 155.943 74.692C156.503 74.3653 157.123 74.202 157.805 74.202ZM160.661 78.15C160.661 77.5713 160.544 77.0673 160.311 76.638C160.077 76.2087 159.76 75.882 159.359 75.658C158.967 75.4247 158.533 75.308 158.057 75.308C157.581 75.308 157.147 75.42 156.755 75.644C156.363 75.868 156.05 76.1947 155.817 76.624C155.583 77.0533 155.467 77.5573 155.467 78.136C155.467 78.724 155.583 79.2373 155.817 79.676C156.05 80.1053 156.363 80.4367 156.755 80.67C157.147 80.894 157.581 81.006 158.057 81.006C158.533 81.006 158.967 80.894 159.359 80.67C159.76 80.4367 160.077 80.1053 160.311 79.676C160.544 79.2373 160.661 78.7287 160.661 78.15ZM163.625 78.136C163.625 77.352 163.784 76.666 164.101 76.078C164.419 75.4807 164.853 75.0187 165.403 74.692C165.963 74.3653 166.584 74.202 167.265 74.202C167.937 74.202 168.521 74.3467 169.015 74.636C169.51 74.9253 169.879 75.2893 170.121 75.728V74.328H171.409V82H170.121V80.572C169.869 81.02 169.491 81.3933 168.987 81.692C168.493 81.9813 167.914 82.126 167.251 82.126C166.57 82.126 165.954 81.958 165.403 81.622C164.853 81.286 164.419 80.8147 164.101 80.208C163.784 79.6013 163.625 78.9107 163.625 78.136ZM170.121 78.15C170.121 77.5713 170.005 77.0673 169.771 76.638C169.538 76.2087 169.221 75.882 168.819 75.658C168.427 75.4247 167.993 75.308 167.517 75.308C167.041 75.308 166.607 75.42 166.215 75.644C165.823 75.868 165.511 76.1947 165.277 76.624C165.044 77.0533 164.927 77.5573 164.927 78.136C164.927 78.724 165.044 79.2373 165.277 79.676C165.511 80.1053 165.823 80.4367 166.215 80.67C166.607 80.894 167.041 81.006 167.517 81.006C167.993 81.006 168.427 80.894 168.819 80.67C169.221 80.4367 169.538 80.1053 169.771 79.676C170.005 79.2373 170.121 78.7287 170.121 78.15ZM177.3 74.188C178.234 74.188 178.99 74.4727 179.568 75.042C180.147 75.602 180.436 76.414 180.436 77.478V82H179.176V77.66C179.176 76.8947 178.985 76.3113 178.602 75.91C178.22 75.4993 177.697 75.294 177.034 75.294C176.362 75.294 175.826 75.504 175.424 75.924C175.032 76.344 174.836 76.9553 174.836 77.758V82H173.562V74.328H174.836V75.42C175.088 75.028 175.429 74.7247 175.858 74.51C176.297 74.2953 176.778 74.188 177.3 74.188ZM183.175 73.082C182.933 73.082 182.727 72.998 182.559 72.83C182.391 72.662 182.307 72.4567 182.307 72.214C182.307 71.9713 182.391 71.766 182.559 71.598C182.727 71.43 182.933 71.346 183.175 71.346C183.409 71.346 183.605 71.43 183.763 71.598C183.931 71.766 184.015 71.9713 184.015 72.214C184.015 72.4567 183.931 72.662 183.763 72.83C183.605 72.998 183.409 73.082 183.175 73.082ZM183.791 74.328V82H182.517V74.328H183.791ZM186.915 80.95H190.681V82H185.459V80.95L189.183 75.364H185.487V74.328H190.653V75.364L186.915 80.95ZM191.858 78.136C191.858 77.352 192.017 76.666 192.334 76.078C192.651 75.4807 193.085 75.0187 193.636 74.692C194.196 74.3653 194.817 74.202 195.498 74.202C196.17 74.202 196.753 74.3467 197.248 74.636C197.743 74.9253 198.111 75.2893 198.354 75.728V74.328H199.642V82H198.354V80.572C198.102 81.02 197.724 81.3933 197.22 81.692C196.725 81.9813 196.147 82.126 195.484 82.126C194.803 82.126 194.187 81.958 193.636 81.622C193.085 81.286 192.651 80.8147 192.334 80.208C192.017 79.6013 191.858 78.9107 191.858 78.136ZM198.354 78.15C198.354 77.5713 198.237 77.0673 198.004 76.638C197.771 76.2087 197.453 75.882 197.052 75.658C196.66 75.4247 196.226 75.308 195.75 75.308C195.274 75.308 194.84 75.42 194.448 75.644C194.056 75.868 193.743 76.1947 193.51 76.624C193.277 77.0533 193.16 77.5573 193.16 78.136C193.16 78.724 193.277 79.2373 193.51 79.676C193.743 80.1053 194.056 80.4367 194.448 80.67C194.84 80.894 195.274 81.006 195.75 81.006C196.226 81.006 196.66 80.894 197.052 80.67C197.453 80.4367 197.771 80.1053 198.004 79.676C198.237 79.2373 198.354 78.7287 198.354 78.15ZM203.349 75.378V79.9C203.349 80.2733 203.428 80.5393 203.587 80.698C203.745 80.8473 204.021 80.922 204.413 80.922H205.351V82H204.203C203.493 82 202.961 81.8367 202.607 81.51C202.252 81.1833 202.075 80.6467 202.075 79.9V75.378H201.081V74.328H202.075V72.396H203.349V74.328H205.351V75.378H203.349ZM207.552 73.082C207.31 73.082 207.104 72.998 206.936 72.83C206.768 72.662 206.684 72.4567 206.684 72.214C206.684 71.9713 206.768 71.766 206.936 71.598C207.104 71.43 207.31 71.346 207.552 71.346C207.786 71.346 207.982 71.43 208.14 71.598C208.308 71.766 208.392 71.9713 208.392 72.214C208.392 72.4567 208.308 72.662 208.14 72.83C207.982 72.998 207.786 73.082 207.552 73.082ZM208.168 74.328V82H206.894V74.328H208.168ZM213.686 82.126C212.967 82.126 212.314 81.9627 211.726 81.636C211.147 81.3093 210.69 80.8473 210.354 80.25C210.027 79.6433 209.864 78.9433 209.864 78.15C209.864 77.366 210.032 76.6753 210.368 76.078C210.713 75.4713 211.18 75.0093 211.768 74.692C212.356 74.3653 213.014 74.202 213.742 74.202C214.47 74.202 215.128 74.3653 215.716 74.692C216.304 75.0093 216.766 75.4667 217.102 76.064C217.447 76.6613 217.62 77.3567 217.62 78.15C217.62 78.9433 217.442 79.6433 217.088 80.25C216.742 80.8473 216.271 81.3093 215.674 81.636C215.076 81.9627 214.414 82.126 213.686 82.126ZM213.686 81.006C214.143 81.006 214.572 80.8987 214.974 80.684C215.375 80.4693 215.697 80.1473 215.94 79.718C216.192 79.2887 216.318 78.766 216.318 78.15C216.318 77.534 216.196 77.0113 215.954 76.582C215.711 76.1527 215.394 75.8353 215.002 75.63C214.61 75.4153 214.185 75.308 213.728 75.308C213.261 75.308 212.832 75.4153 212.44 75.63C212.057 75.8353 211.749 76.1527 211.516 76.582C211.282 77.0113 211.166 77.534 211.166 78.15C211.166 78.7753 211.278 79.3027 211.502 79.732C211.735 80.1613 212.043 80.4833 212.426 80.698C212.808 80.9033 213.228 81.006 213.686 81.006ZM223.033 74.188C223.966 74.188 224.722 74.4727 225.301 75.042C225.879 75.602 226.169 76.414 226.169 77.478V82H224.909V77.66C224.909 76.8947 224.717 76.3113 224.335 75.91C223.952 75.4993 223.429 75.294 222.767 75.294C222.095 75.294 221.558 75.504 221.157 75.924C220.765 76.344 220.569 76.9553 220.569 77.758V82H219.295V74.328H220.569V75.42C220.821 75.028 221.161 74.7247 221.591 74.51C222.029 74.2953 222.51 74.188 223.033 74.188ZM228.894 70.856L228.726 73.642H227.844L227.662 70.856H228.894ZM233.194 82.126C232.606 82.126 232.079 82.028 231.612 81.832C231.146 81.6267 230.777 81.3467 230.506 80.992C230.236 80.628 230.086 80.2127 230.058 79.746H231.374C231.412 80.1287 231.589 80.4413 231.906 80.684C232.233 80.9267 232.658 81.048 233.18 81.048C233.666 81.048 234.048 80.9407 234.328 80.726C234.608 80.5113 234.748 80.2407 234.748 79.914C234.748 79.578 234.599 79.3307 234.3 79.172C234.002 79.004 233.54 78.8407 232.914 78.682C232.345 78.5327 231.878 78.3833 231.514 78.234C231.16 78.0753 230.852 77.8467 230.59 77.548C230.338 77.24 230.212 76.8387 230.212 76.344C230.212 75.952 230.329 75.5927 230.562 75.266C230.796 74.9393 231.127 74.6827 231.556 74.496C231.986 74.3 232.476 74.202 233.026 74.202C233.876 74.202 234.562 74.4167 235.084 74.846C235.607 75.2753 235.887 75.8633 235.924 76.61H234.65C234.622 76.2087 234.459 75.8867 234.16 75.644C233.871 75.4013 233.479 75.28 232.984 75.28C232.527 75.28 232.163 75.378 231.892 75.574C231.622 75.77 231.486 76.0267 231.486 76.344C231.486 76.596 231.566 76.806 231.724 76.974C231.892 77.1327 232.098 77.2633 232.34 77.366C232.592 77.4593 232.938 77.5667 233.376 77.688C233.927 77.8373 234.375 77.9867 234.72 78.136C235.066 78.276 235.36 78.4907 235.602 78.78C235.854 79.0693 235.985 79.4473 235.994 79.914C235.994 80.334 235.878 80.712 235.644 81.048C235.411 81.384 235.08 81.65 234.65 81.846C234.23 82.0327 233.745 82.126 233.194 82.126ZM245.333 74.188C245.912 74.188 246.435 74.314 246.901 74.566C247.368 74.8087 247.732 75.1773 247.993 75.672C248.264 76.1667 248.399 76.7687 248.399 77.478V82H247.139V77.66C247.139 76.8947 246.948 76.3113 246.565 75.91C246.183 75.4993 245.66 75.294 244.997 75.294C244.325 75.294 243.789 75.504 243.387 75.924C242.995 76.344 242.799 76.9553 242.799 77.758V82H241.525V71.64H242.799V75.42C243.051 75.028 243.397 74.7247 243.835 74.51C244.283 74.2953 244.783 74.188 245.333 74.188ZM257.284 74.328V82H256.01V80.866C255.768 81.258 255.427 81.566 254.988 81.79C254.559 82.0047 254.083 82.112 253.56 82.112C252.963 82.112 252.426 81.9907 251.95 81.748C251.474 81.496 251.096 81.1227 250.816 80.628C250.546 80.1333 250.41 79.5313 250.41 78.822V74.328H251.67V78.654C251.67 79.41 251.862 79.9933 252.244 80.404C252.627 80.8053 253.15 81.006 253.812 81.006C254.494 81.006 255.03 80.796 255.422 80.376C255.814 79.956 256.01 79.3447 256.01 78.542V74.328H257.284ZM268.661 74.188C269.259 74.188 269.791 74.314 270.257 74.566C270.724 74.8087 271.093 75.1773 271.363 75.672C271.634 76.1667 271.769 76.7687 271.769 77.478V82H270.509V77.66C270.509 76.8947 270.318 76.3113 269.935 75.91C269.562 75.4993 269.053 75.294 268.409 75.294C267.747 75.294 267.219 75.5087 266.827 75.938C266.435 76.358 266.239 76.9693 266.239 77.772V82H264.979V77.66C264.979 76.8947 264.788 76.3113 264.405 75.91C264.032 75.4993 263.523 75.294 262.879 75.294C262.217 75.294 261.689 75.5087 261.297 75.938C260.905 76.358 260.709 76.9693 260.709 77.772V82H259.435V74.328H260.709V75.434C260.961 75.0327 261.297 74.7247 261.717 74.51C262.147 74.2953 262.618 74.188 263.131 74.188C263.775 74.188 264.345 74.3327 264.839 74.622C265.334 74.9113 265.703 75.336 265.945 75.896C266.16 75.3547 266.515 74.9347 267.009 74.636C267.504 74.3373 268.055 74.188 268.661 74.188ZM273.383 78.136C273.383 77.352 273.542 76.666 273.859 76.078C274.177 75.4807 274.611 75.0187 275.161 74.692C275.721 74.3653 276.342 74.202 277.023 74.202C277.695 74.202 278.279 74.3467 278.773 74.636C279.268 74.9253 279.637 75.2893 279.879 75.728V74.328H281.167V82H279.879V80.572C279.627 81.02 279.249 81.3933 278.745 81.692C278.251 81.9813 277.672 82.126 277.009 82.126C276.328 82.126 275.712 81.958 275.161 81.622C274.611 81.286 274.177 80.8147 273.859 80.208C273.542 79.6013 273.383 78.9107 273.383 78.136ZM279.879 78.15C279.879 77.5713 279.763 77.0673 279.529 76.638C279.296 76.2087 278.979 75.882 278.577 75.658C278.185 75.4247 277.751 75.308 277.275 75.308C276.799 75.308 276.365 75.42 275.973 75.644C275.581 75.868 275.269 76.1947 275.035 76.624C274.802 77.0533 274.685 77.5573 274.685 78.136C274.685 78.724 274.802 79.2373 275.035 79.676C275.269 80.1053 275.581 80.4367 275.973 80.67C276.365 80.894 276.799 81.006 277.275 81.006C277.751 81.006 278.185 80.894 278.577 80.67C278.979 80.4367 279.296 80.1053 279.529 79.676C279.763 79.2373 279.879 78.7287 279.879 78.15ZM287.058 74.188C287.992 74.188 288.748 74.4727 289.326 75.042C289.905 75.602 290.194 76.414 290.194 77.478V82H288.934V77.66C288.934 76.8947 288.743 76.3113 288.36 75.91C287.978 75.4993 287.455 75.294 286.792 75.294C286.12 75.294 285.584 75.504 285.182 75.924C284.79 76.344 284.594 76.9553 284.594 77.758V82H283.32V74.328H284.594V75.42C284.846 75.028 285.187 74.7247 285.616 74.51C286.055 74.2953 286.536 74.188 287.058 74.188ZM295.532 78.15C295.532 77.3567 295.69 76.666 296.008 76.078C296.325 75.4807 296.764 75.0187 297.324 74.692C297.893 74.3653 298.542 74.202 299.27 74.202C300.212 74.202 300.987 74.4307 301.594 74.888C302.21 75.3453 302.616 75.98 302.812 76.792H301.44C301.309 76.3253 301.052 75.9567 300.67 75.686C300.296 75.4153 299.83 75.28 299.27 75.28C298.542 75.28 297.954 75.532 297.506 76.036C297.058 76.5307 296.834 77.2353 296.834 78.15C296.834 79.074 297.058 79.788 297.506 80.292C297.954 80.796 298.542 81.048 299.27 81.048C299.83 81.048 300.296 80.9173 300.67 80.656C301.043 80.3947 301.3 80.0213 301.44 79.536H302.812C302.606 80.32 302.196 80.95 301.58 81.426C300.964 81.8927 300.194 82.126 299.27 82.126C298.542 82.126 297.893 81.9627 297.324 81.636C296.764 81.3093 296.325 80.8473 296.008 80.25C295.69 79.6527 295.532 78.9527 295.532 78.15ZM304.036 78.136C304.036 77.352 304.194 76.666 304.512 76.078C304.829 75.4807 305.263 75.0187 305.814 74.692C306.374 74.3653 306.994 74.202 307.676 74.202C308.348 74.202 308.931 74.3467 309.426 74.636C309.92 74.9253 310.289 75.2893 310.532 75.728V74.328H311.82V82H310.532V80.572C310.28 81.02 309.902 81.3933 309.398 81.692C308.903 81.9813 308.324 82.126 307.662 82.126C306.98 82.126 306.364 81.958 305.814 81.622C305.263 81.286 304.829 80.8147 304.512 80.208C304.194 79.6013 304.036 78.9107 304.036 78.136ZM310.532 78.15C310.532 77.5713 310.415 77.0673 310.182 76.638C309.948 76.2087 309.631 75.882 309.23 75.658C308.838 75.4247 308.404 75.308 307.928 75.308C307.452 75.308 307.018 75.42 306.626 75.644C306.234 75.868 305.921 76.1947 305.688 76.624C305.454 77.0533 305.338 77.5573 305.338 78.136C305.338 78.724 305.454 79.2373 305.688 79.676C305.921 80.1053 306.234 80.4367 306.626 80.67C307.018 80.894 307.452 81.006 307.928 81.006C308.404 81.006 308.838 80.894 309.23 80.67C309.631 80.4367 309.948 80.1053 310.182 79.676C310.415 79.2373 310.532 78.7287 310.532 78.15ZM315.247 75.742C315.499 75.3033 315.872 74.9393 316.367 74.65C316.871 74.3513 317.454 74.202 318.117 74.202C318.798 74.202 319.414 74.3653 319.965 74.692C320.525 75.0187 320.963 75.4807 321.281 76.078C321.598 76.666 321.757 77.352 321.757 78.136C321.757 78.9107 321.598 79.6013 321.281 80.208C320.963 80.8147 320.525 81.286 319.965 81.622C319.414 81.958 318.798 82.126 318.117 82.126C317.463 82.126 316.885 81.9813 316.381 81.692C315.886 81.3933 315.508 81.0247 315.247 80.586V85.64H313.973V74.328H315.247V75.742ZM320.455 78.136C320.455 77.5573 320.338 77.0533 320.105 76.624C319.871 76.1947 319.554 75.868 319.153 75.644C318.761 75.42 318.327 75.308 317.851 75.308C317.384 75.308 316.95 75.4247 316.549 75.658C316.157 75.882 315.839 76.2133 315.597 76.652C315.363 77.0813 315.247 77.5807 315.247 78.15C315.247 78.7287 315.363 79.2373 315.597 79.676C315.839 80.1053 316.157 80.4367 316.549 80.67C316.95 80.894 317.384 81.006 317.851 81.006C318.327 81.006 318.761 80.894 319.153 80.67C319.554 80.4367 319.871 80.1053 320.105 79.676C320.338 79.2373 320.455 78.724 320.455 78.136ZM324.091 73.082C323.849 73.082 323.643 72.998 323.475 72.83C323.307 72.662 323.223 72.4567 323.223 72.214C323.223 71.9713 323.307 71.766 323.475 71.598C323.643 71.43 323.849 71.346 324.091 71.346C324.325 71.346 324.521 71.43 324.679 71.598C324.847 71.766 324.931 71.9713 324.931 72.214C324.931 72.4567 324.847 72.662 324.679 72.83C324.521 72.998 324.325 73.082 324.091 73.082ZM324.707 74.328V82H323.433V74.328H324.707ZM328.433 75.378V79.9C328.433 80.2733 328.512 80.5393 328.671 80.698C328.829 80.8473 329.105 80.922 329.497 80.922H330.435V82H329.287C328.577 82 328.045 81.8367 327.691 81.51C327.336 81.1833 327.159 80.6467 327.159 79.9V75.378H326.165V74.328H327.159V72.396H328.433V74.328H330.435V75.378H328.433ZM331.502 78.136C331.502 77.352 331.661 76.666 331.978 76.078C332.296 75.4807 332.73 75.0187 333.28 74.692C333.84 74.3653 334.461 74.202 335.142 74.202C335.814 74.202 336.398 74.3467 336.892 74.636C337.387 74.9253 337.756 75.2893 337.998 75.728V74.328H339.286V82H337.998V80.572C337.746 81.02 337.368 81.3933 336.864 81.692C336.37 81.9813 335.791 82.126 335.128 82.126C334.447 82.126 333.831 81.958 333.28 81.622C332.73 81.286 332.296 80.8147 331.978 80.208C331.661 79.6013 331.502 78.9107 331.502 78.136ZM337.998 78.15C337.998 77.5713 337.882 77.0673 337.648 76.638C337.415 76.2087 337.098 75.882 336.696 75.658C336.304 75.4247 335.87 75.308 335.394 75.308C334.918 75.308 334.484 75.42 334.092 75.644C333.7 75.868 333.388 76.1947 333.154 76.624C332.921 77.0533 332.804 77.5573 332.804 78.136C332.804 78.724 332.921 79.2373 333.154 79.676C333.388 80.1053 333.7 80.4367 334.092 80.67C334.484 80.894 334.918 81.006 335.394 81.006C335.87 81.006 336.304 80.894 336.696 80.67C337.098 80.4367 337.415 80.1053 337.648 79.676C337.882 79.2373 337.998 78.7287 337.998 78.15ZM342.713 71.64V82H341.439V71.64H342.713Z" fill="#1C3D6E"/>
<path d="M49 99H477" stroke="#0097B2" stroke-linecap="round"/>
<rect x="49" y="119" width="206" height="70" rx="8" fill="white"/>
<rect x="49.5" y="119.5" width="205" height="69" rx="7.5" stroke="#1C3D6E" stroke-opacity="0.4"/>
<rect x="59" y="129" width="20" height="20" rx="2" fill="#DDF4E0"/>
<rect x="49" y="209" width="206" height="70" rx="8" fill="white"/>
<rect x="49.5" y="209.5" width="205" height="69" rx="7.5" stroke="#1C3D6E" stroke-opacity="0.4"/>
<rect x="271" y="119" width="206" height="70" rx="8" fill="white"/>
<rect x="271.5" y="119.5" width="205" height="69" rx="7.5" stroke="#1C3D6E" stroke-opacity="0.4"/>
<rect x="271" y="209" width="206" height="70" rx="8" fill="white"/>
<rect x="271.5" y="209.5" width="205" height="69" rx="7.5" stroke="#1C3D6E" stroke-opacity="0.4"/>
<rect x="281" y="129" width="20" height="20" rx="2" fill="#FFFAD9"/>
<rect x="59" y="219" width="20" height="20" rx="2" fill="#FFE8EF"/>
<rect x="281" y="219" width="20" height="20" rx="2" fill="#D9EBFC"/>
<rect x="96" y="129" width="64" height="6" rx="3" fill="#7EC6C4" fill-opacity="0.3"/>
<rect x="315" y="129" width="64" height="6" rx="3" fill="#7EC6C4" fill-opacity="0.3"/>
<rect x="315" y="219" width="64" height="6" rx="3" fill="#7EC6C4" fill-opacity="0.3"/>
<rect x="96" y="219" width="64" height="6" rx="3" fill="#7EC6C4" fill-opacity="0.3"/>
<rect x="96" y="154" width="144" height="6" rx="3" fill="#1C3D6E" fill-opacity="0.1"/>
<rect x="315" y="155" width="144" height="6" rx="3" fill="#1C3D6E" fill-opacity="0.1"/>
<rect x="315" y="240" width="144" height="6" rx="3" fill="#1C3D6E" fill-opacity="0.1"/>
<rect x="96" y="240" width="144" height="6" rx="3" fill="#1C3D6E" fill-opacity="0.1"/>
<rect x="96" y="166" width="144" height="6" rx="3" fill="#1C3D6E" fill-opacity="0.1"/>
<rect x="315" y="167" width="144" height="6" rx="3" fill="#1C3D6E" fill-opacity="0.1"/>
<rect x="315" y="252" width="144" height="6" rx="3" fill="#1C3D6E" fill-opacity="0.1"/>
<rect x="96" y="252" width="144" height="6" rx="3" fill="#1C3D6E" fill-opacity="0.1"/>
<defs>
<filter id="filter0_bd_2002_135" x="-9.75" y="-13.75" width="545.5" height="359.5" filterUnits="userSpaceOnUse" color-interpolation-filters="sRGB">
<feFlood flood-opacity="0" result="BackgroundImageFix"/>
<feGaussianBlur in="BackgroundImageFix" stdDeviation="14.375"/>
<feComposite in2="SourceAlpha" operator="in" result="effect1_backgroundBlur_2002_135"/>
<feColorMatrix in="SourceAlpha" type="matrix" values="0 0 0 0 0 0 0 0 0 0 0 0 0 0 0 0 0 0 127 0" result="hardAlpha"/>
<feOffset dy="4"/>
<feGaussianBlur stdDeviation="9.35"/>
<feComposite in2="hardAlpha" operator="out"/>
<feColorMatrix type="matrix" values="0 0 0 0 0 0 0 0 0 0 0 0 0 0 0 0 0 0 0.2 0"/>
<feBlend mode="normal" in2="effect1_backgroundBlur_2002_135" result="effect2_dropShadow_2002_135"/>
<feBlend mode="normal" in="SourceGraphic" in2="effect2_dropShadow_2002_135" result="shape"/>
</filter>
</defs>
</svg>
