<svg width="3000" height="2026" viewBox="0 0 3000 2026" fill="none" xmlns="http://www.w3.org/2000/svg">
<g clip-path="url(#clip0_470_3)">
<mask id="mask0_470_3" style="mask-type:luminance" maskUnits="userSpaceOnUse" x="0" y="0" width="3000" height="2026">
<path d="M3000 0.5H0V2025.5H3000V0.5Z" fill="white"/>
</mask>
<g mask="url(#mask0_470_3)">
<path d="M3000 0.5H0V2025.5H3000V0.5Z" fill="#FEFEFE"/>
<path d="M1619.66 1730.45C2022.89 1730.45 2349.77 1403.57 2349.77 1000.34C2349.77 597.109 2022.89 270.227 1619.66 270.227C1216.43 270.227 889.546 597.109 889.546 1000.34C889.546 1403.57 1216.43 1730.45 1619.66 1730.45Z" fill="#0097B2"/>
<path d="M1619.66 1460.57C1873.84 1460.57 2079.89 1254.52 2079.89 1000.34C2079.89 746.159 1873.84 540.106 1619.66 540.106C1365.48 540.106 1159.42 746.159 1159.42 1000.34C1159.42 1254.52 1365.48 1460.57 1619.66 1460.57Z" fill="white"/>
<path d="M1792.08 1172.78C1887.31 1077.55 1887.31 923.142 1792.08 827.908C1696.84 732.674 1542.44 732.674 1447.2 827.907C1351.97 923.141 1351.97 1077.55 1447.2 1172.78C1542.44 1268.01 1696.84 1268.01 1792.08 1172.78Z" fill="#0097B2"/>
<path d="M1608.44 688.176C1607.47 688.176 1606.55 687.61 1606.14 686.663C1605.6 685.394 1606.18 683.924 1607.45 683.379L2693.78 216.33C2695.05 215.786 2696.52 216.37 2697.07 217.64C2697.61 218.908 2697.03 220.379 2695.76 220.924L1609.43 687.972C1609.11 688.11 1608.77 688.176 1608.44 688.176Z" fill="#19283F"/>
<path d="M309.337 1246.7C308.368 1246.7 307.446 1246.14 307.039 1245.19C306.494 1243.92 307.08 1242.45 308.348 1241.91L776.907 1040.46C778.174 1039.91 779.645 1040.5 780.191 1041.77C780.736 1043.04 780.15 1044.51 778.881 1045.05L310.322 1246.5C310.001 1246.64 309.666 1246.7 309.337 1246.7Z" fill="#19283F"/>
<path d="M411.75 1094.77C410.781 1094.77 409.859 1094.2 409.452 1093.26C408.907 1091.99 409.493 1090.52 410.762 1089.97L633.386 994.259C634.652 993.714 636.124 994.299 636.67 995.568C637.215 996.837 636.629 998.307 635.36 998.852L412.736 1094.57C412.415 1094.71 412.08 1094.77 411.75 1094.77Z" fill="#19283F"/>
<path d="M1242.34 1117.7L1822.36 1711.76L1792.72 1736.13C1792.72 1736.13 1437.91 1619.65 1443.6 1449C1443.6 1449 1049.39 1302.68 1114.96 1122.01L1242.34 1117.7Z" fill="#19283F"/>
<path d="M964.528 873.601C964.528 873.601 884.683 864.349 777.894 897.805L831.429 1002.83L970.987 964.083L1034.37 993.463L964.528 873.601Z" fill="#F9724D"/>
<path d="M964.528 873.601C964.528 873.601 884.683 864.349 777.894 897.805L831.429 1002.83L970.987 964.083L1034.37 993.463L964.528 873.601Z" fill="#EF92C8"/>
<path d="M1121.38 807.359C1121.38 807.359 1136.08 776.184 1234.99 793.652C1238.21 794.221 1271.56 887.217 1271.56 887.217L1213.04 909.366L1215.46 919.567C1222.4 948.901 1227.49 978.645 1230.69 1008.62L1242.34 1117.7L1114.96 1122L958.351 872.215L1027.48 830.219L1121.38 807.359Z" fill="#4186FF"/>
<mask id="mask1_470_3" style="mask-type:luminance" maskUnits="userSpaceOnUse" x="958" y="788" width="314" height="334">
<path d="M1121.38 807.359C1121.38 807.359 1136.08 776.184 1234.99 793.652C1238.21 794.221 1271.56 887.217 1271.56 887.217L1213.04 909.366L1215.46 919.567C1222.4 948.901 1227.49 978.645 1230.69 1008.62L1242.34 1117.7L1114.96 1122L958.351 872.215L1027.48 830.219L1121.38 807.359Z" fill="white"/>
</mask>
<g mask="url(#mask1_470_3)">
<path d="M1034.37 993.463C1034.37 993.463 1251.62 1118.07 1242.34 1117.7C1233.06 1117.33 1070.2 1128.24 1070.2 1128.24L1034.37 993.463Z" fill="#19283F"/>
</g>
<path d="M1131.37 798.353C1115.52 798.686 1100.31 792.462 1089.25 781.271C1102.93 771.947 1112.56 749.589 1112.56 723.483C1112.56 689.003 1095.76 661.051 1075.02 661.051C1054.29 661.051 1029.38 687.098 1029.38 721.578C1029.38 728.409 1030.88 736.116 1039.36 743.04L1027.48 830.22C1027.48 830.22 1094.72 883.489 1124.05 889.355C1153.38 895.221 1131.37 798.353 1131.37 798.353Z" fill="#F9724D"/>
<mask id="mask2_470_3" style="mask-type:luminance" maskUnits="userSpaceOnUse" x="1027" y="661" width="113" height="229">
<path d="M1131.37 798.353C1115.52 798.686 1100.31 792.462 1089.25 781.271C1102.93 771.947 1112.56 749.589 1112.56 723.483C1112.56 689.003 1095.76 661.051 1075.02 661.051C1054.29 661.051 1029.38 687.098 1029.38 721.578C1029.38 728.409 1030.88 736.116 1039.36 743.04L1027.48 830.22C1027.48 830.22 1094.72 883.489 1124.05 889.355C1153.38 895.221 1131.37 798.353 1131.37 798.353Z" fill="white"/>
</mask>
<g mask="url(#mask2_470_3)">
<path d="M1027.48 830.219C1027.48 830.219 1095.93 871.004 1114.96 869.132C1133.98 867.259 1131.37 798.353 1131.37 798.353C1131.37 798.353 1168.74 883.692 1143.46 905.182C1118.18 926.671 1027.48 830.219 1027.48 830.219Z" fill="#EF92C8"/>
</g>
<path d="M1093.85 629.586C1093.85 629.586 1104.9 647.17 1087.82 650.184C1070.74 653.198 989.328 654.61 1013.3 706.452C1037.28 758.295 1035.88 768.585 1035.88 768.585L1047.69 746.941C1041.78 745.871 1034.32 734.767 1040.67 727.943C1043.56 724.842 1050.41 732.262 1052.65 734.018C1051.21 726.363 1047.24 713.547 1058.18 711.476C1058.18 711.476 1117.46 723.031 1129.52 680.83C1141.58 638.629 1093.85 629.586 1093.85 629.586Z" fill="#19283F"/>
<path d="M1078.16 785.3C1073.25 785.3 1066.61 784.01 1057.96 779.879C1057.63 779.719 1057.49 779.32 1057.65 778.986C1057.81 778.652 1058.21 778.511 1058.54 778.671C1069.86 784.079 1077.49 784.361 1081.9 783.643C1086.64 782.873 1088.76 780.819 1088.78 780.798C1089.04 780.538 1089.46 780.538 1089.72 780.799C1089.98 781.06 1089.98 781.481 1089.72 781.742C1089.5 781.969 1086.05 785.3 1078.16 785.3Z" fill="#19283F"/>
<path d="M1099.39 759.411C1098.69 759.411 1098.1 758.868 1098.05 758.16C1098 757.422 1098.56 756.785 1099.3 756.737C1106.82 756.246 1109.34 751.347 1110.11 749.056C1094.03 744.329 1091.77 730.826 1092.88 724.184C1093 723.455 1093.68 722.957 1094.42 723.084C1095.15 723.205 1095.64 723.894 1095.52 724.623C1095.4 725.348 1092.94 741.978 1112.07 746.817L1113.26 747.117L1113.06 748.325C1113.05 748.428 1111.28 758.635 1099.48 759.408C1099.45 759.41 1099.42 759.411 1099.39 759.411Z" fill="#19283F"/>
<path d="M1087.57 726.419C1087.86 729.614 1086.7 732.331 1084.98 732.488C1083.26 732.645 1081.63 730.183 1081.34 726.988C1081.05 723.793 1082.21 721.076 1083.93 720.918C1085.65 720.761 1087.28 723.224 1087.57 726.419Z" fill="#19283F"/>
<path d="M1106.01 720.627C1106.3 723.822 1105.14 726.539 1103.42 726.697C1101.7 726.854 1100.06 724.392 1099.77 721.197C1099.48 718.002 1100.64 715.285 1102.36 715.127C1104.08 714.969 1105.72 717.432 1106.01 720.627Z" fill="#19283F"/>
<path d="M1087.8 777.774C1087.68 777.774 1087.55 777.757 1087.43 777.72C1081.74 776.056 1078.1 773.167 1076.61 769.132C1074.03 762.159 1078.95 754.493 1079.16 754.17C1079.49 753.669 1080.11 753.447 1080.68 753.623C1081.25 753.8 1081.63 754.335 1081.62 754.933C1081.55 758.048 1082.49 760.519 1084.51 762.486C1089.87 767.718 1100.8 767.255 1100.91 767.248C1101.67 767.218 1102.28 767.783 1102.31 768.52C1102.35 769.258 1101.78 769.886 1101.04 769.921C1100.54 769.942 1088.83 770.436 1082.64 764.401C1081.19 762.99 1080.17 761.343 1079.57 759.478C1078.68 761.944 1078.01 765.231 1079.12 768.213C1080.31 771.404 1083.35 773.738 1088.18 775.149C1088.89 775.356 1089.29 776.1 1089.09 776.809C1088.92 777.396 1088.38 777.774 1087.8 777.774Z" fill="#19283F"/>
<path d="M1048.52 743.31C1048.49 743.31 1048.45 743.307 1048.42 743.302C1041.88 742.311 1040.29 739.136 1040.11 736.647C1039.87 733.353 1042.16 729.815 1043.73 729.339C1044.53 729.095 1046.93 729.407 1052 737.502C1052.19 737.815 1052.1 738.228 1051.78 738.424C1051.47 738.62 1051.06 738.526 1050.86 738.212C1048.16 733.897 1045 730.355 1044.12 730.619C1043.39 730.842 1041.24 733.62 1041.45 736.549C1041.66 739.422 1044.14 741.299 1048.62 741.978C1048.99 742.033 1049.24 742.374 1049.18 742.74C1049.13 743.073 1048.85 743.31 1048.52 743.31Z" fill="#19283F"/>
<path d="M1532.49 768.586L1573.36 798.461L1602.67 799.501C1602.67 799.501 1681.82 905.646 1652.76 969.677C1652.76 969.677 1617.9 876.586 1495.28 789.311L1532.49 768.586Z" fill="#19283F"/>
<path d="M1652.76 969.677C1652.76 969.677 1539.72 1044.88 1616.9 1087.34L1616.98 1086.69C1618.25 1075.91 1614.2 1065.28 1606.37 1057.77C1601.04 1052.66 1596.68 1045.72 1599.4 1037.78C1605.12 1021.06 1640.98 1016.7 1652.76 969.677Z" fill="#19283F"/>
<path d="M1444.02 765.282C1444.02 765.282 1472.57 697.115 1501.91 708.334C1518.41 714.641 1533.34 727.406 1543.59 744.488C1550.93 756.729 1545.06 772.62 1531.53 777.159L1502.31 786.958C1485.44 792.616 1466.8 789.794 1452.55 779.131C1446.43 774.55 1442.23 769.593 1444.02 765.282Z" fill="#F9724D"/>
<path d="M1483.73 785.915C1483.73 785.915 1241.91 573.956 875.279 533.214C855.405 531.005 840.337 514.27 840.337 494.273C840.337 494.273 1180.13 519.629 1397.23 640.094L1401.8 674.638L1506.29 739.659C1506.29 739.659 1527.68 776.934 1483.73 785.915Z" fill="#19283F"/>
<path d="M1449.33 757.124C1449.33 757.124 1339.95 747.181 1318.41 763.753C1296.87 780.325 1284.44 797.725 1284.44 797.725C1284.44 797.725 1215.67 775.353 1199.1 822.582C1182.53 869.811 1197.67 923.149 1257.33 893.32L1485.79 786.125L1449.33 757.124Z" fill="#F9724D"/>
<path d="M1448.78 803.487C1438.07 790.093 1422.23 782.333 1405.63 781.677L1409.9 754.703H1396.06L1388.76 783.488L1350.9 793.142L1355.01 754.703L1340.88 756.315L1333.85 797.49L1315.77 802.098C1312.28 802.99 1309.61 805.854 1309.02 809.416C1307.31 819.744 1306.03 842.007 1320.6 863.631L1448.78 803.487Z" fill="#19283F"/>
<path d="M1447.87 750.718L1507.12 756.016L1506.28 758.116C1503.94 763.977 1498.78 768.24 1492.58 769.422L1457.95 776.03C1457.95 776.03 1434.13 774.712 1447.87 750.718Z" fill="#F9724D"/>
<path d="M1513.64 784.499C1513.58 784.499 1513.52 784.495 1513.45 784.487C1512.72 784.387 1512.21 783.713 1512.31 782.981L1515.53 759.27C1516.61 751.334 1513.86 743.217 1508.19 737.559L1488.6 718C1488.07 717.478 1488.07 716.63 1488.59 716.107C1489.12 715.585 1489.96 715.584 1490.49 716.105L1510.09 735.664C1516.34 741.91 1519.37 750.869 1518.18 759.63L1514.96 783.341C1514.87 784.012 1514.3 784.499 1513.64 784.499Z" fill="#19283F"/>
<path d="M1526.68 781.735C1526.6 781.735 1526.51 781.727 1526.43 781.71C1525.7 781.569 1525.23 780.867 1525.37 780.141L1528.68 763.093C1530.94 751.49 1527.78 739.724 1520.02 730.811L1510.49 719.869C1510 719.311 1510.06 718.466 1510.62 717.981C1511.18 717.496 1512.02 717.555 1512.5 718.111L1522.03 729.053C1530.34 738.593 1533.72 751.186 1531.31 763.604L1528 780.652C1527.87 781.291 1527.31 781.735 1526.68 781.735Z" fill="#19283F"/>
<path d="M1608.44 1073.74C1608.33 1073.74 1608.21 1073.72 1608.09 1073.69L982.568 903.045L982.357 902.329L869.131 518.713C868.922 518.004 869.327 517.26 870.036 517.05C870.745 516.841 871.489 517.245 871.699 517.955L984.714 900.856L1608.8 1071.11C1609.51 1071.3 1609.93 1072.04 1609.73 1072.75C1609.57 1073.34 1609.03 1073.74 1608.44 1073.74Z" fill="#19283F"/>
<path d="M946.905 925.305C945.202 925.305 943.56 924.373 942.732 922.754C941.553 920.451 942.465 917.629 944.768 916.451L1606.31 577.915C1608.61 576.735 1611.43 577.648 1612.61 579.951C1613.79 582.253 1612.88 585.076 1610.58 586.254L949.034 924.789C948.351 925.139 947.623 925.305 946.905 925.305Z" fill="#19283F"/>
<path d="M1579.34 596.975L1536.56 582.083L1694.71 540.058L1577.23 637.814L1579.34 596.975Z" fill="#19283F"/>
<path d="M1114.96 1122C1124.85 1112.31 1242.34 1117.7 1242.34 1117.7L1332.67 1261.45C1350.68 1290.11 1353.71 1325.72 1340.78 1357L1184.17 1736.12H1131.47C1131.47 1736.12 1134.88 1420.27 1218.89 1334.62C1218.89 1334.62 999.22 1235.39 1114.96 1122Z" fill="#19283F"/>
<path d="M1325.21 1394.71C1330.05 1383.73 1334.16 1372.43 1337.48 1360.92C1340.84 1349.42 1343.46 1337.7 1344.79 1325.83C1346.04 1313.98 1346.19 1301.92 1343.71 1290.31L1343.24 1288.14L1342.65 1286.01L1342.06 1283.87L1341.33 1281.78L1340.59 1279.69C1340.33 1279 1340 1278.33 1339.71 1277.64L1337.91 1273.56L1337.01 1271.51C1336.72 1270.83 1336.41 1270.15 1336.05 1269.49L1334.01 1265.51C1332.64 1262.85 1331.32 1260.18 1329.79 1257.6L1325.4 1249.77L1320.78 1242.07L1318.46 1238.22L1316.05 1234.43L1311.24 1226.84C1304.67 1216.8 1297.94 1206.88 1291.1 1197.02C1284.28 1187.15 1277.28 1177.4 1270.2 1167.71C1263.19 1157.97 1256 1148.35 1248.8 1138.74C1256.43 1148.02 1263.8 1157.5 1271.13 1167.01C1278.41 1176.57 1285.58 1186.21 1292.59 1195.97C1306.58 1215.5 1320.05 1235.45 1331.86 1256.46C1333.38 1259.06 1334.7 1261.77 1336.07 1264.46L1338.11 1268.5C1338.47 1269.17 1338.78 1269.86 1339.07 1270.56L1339.97 1272.64L1341.78 1276.8C1342.07 1277.5 1342.39 1278.18 1342.66 1278.9L1343.41 1281.06L1344.15 1283.22L1344.75 1285.43L1345.35 1287.63L1345.81 1289.87C1347.05 1295.83 1347.61 1301.9 1347.69 1307.95C1347.78 1314.01 1347.37 1320.06 1346.59 1326.04C1345.02 1338.02 1342.19 1349.78 1338.58 1361.25C1336.74 1366.98 1334.72 1372.65 1332.49 1378.23C1330.28 1383.82 1327.89 1389.34 1325.21 1394.71Z" fill="white"/>
<path d="M1957.29 1715.65L1960.89 1720.03C1962.87 1722.43 1962.39 1726 1959.86 1727.8L1839.04 1813.6C1836.02 1815.75 1831.79 1814.39 1830.57 1810.89L1825.56 1794.4L1957.29 1715.65Z" fill="#19283F"/>
<path d="M1768.45 1730.69L1807.35 1692.46L1844.5 1729.67L1936.96 1708.51C1942.64 1707.02 1948.69 1708.39 1953.18 1712.18L1957.29 1715.65L1828.56 1804.53L1813.7 1754.34L1768.45 1730.69Z" fill="#4186FF"/>
<path d="M1882.11 1773.44C1881.71 1773.44 1881.3 1773.29 1880.99 1772.98C1858.22 1750.21 1830.14 1758.4 1819.56 1761.48C1817.36 1762.12 1816.36 1762.41 1815.64 1762.42C1815.63 1762.42 1815.63 1762.42 1815.62 1762.42C1814.76 1762.42 1814.05 1761.72 1814.04 1760.85C1814.03 1759.98 1814.73 1759.27 1815.6 1759.26C1815.97 1759.24 1817.35 1758.84 1818.68 1758.45C1824.02 1756.89 1833.97 1753.99 1845.75 1754.42C1860.32 1754.95 1872.92 1760.44 1883.23 1770.75C1883.84 1771.36 1883.84 1772.36 1883.23 1772.98C1882.92 1773.29 1882.51 1773.44 1882.11 1773.44Z" fill="#19283F"/>
<path d="M1131.98 1716.17L1190.8 1720.08L1176.38 1760.69L1252.18 1817.72C1256.97 1821.11 1259.83 1826.61 1259.83 1832.48V1837.87L1107.6 1797.31L1130.78 1744.41L1131.98 1716.17Z" fill="#4186FF"/>
<path d="M1107.6 1797.31L1259.83 1837.87L1255.61 1847.76C1254.62 1850.07 1252.08 1851.31 1249.65 1850.65L1108.88 1812.67C1105.27 1811.69 1103.33 1807.78 1104.74 1804.31L1107.6 1797.31Z" fill="#19283F"/>
<path d="M1161.91 1818.69C1161.03 1818.69 1160.33 1817.98 1160.33 1817.11C1160.33 1784.25 1123.21 1762.32 1122.83 1762.1C1122.08 1761.67 1121.82 1760.7 1122.26 1759.94C1122.7 1759.19 1123.66 1758.93 1124.42 1759.37C1124.82 1759.6 1134.29 1765.15 1143.9 1775.02C1156.71 1788.17 1163.48 1802.72 1163.48 1817.11C1163.48 1817.98 1162.78 1818.69 1161.91 1818.69Z" fill="#19283F"/>
<path d="M1012.98 909.954C1012.98 909.954 986.1 878.105 982.277 876.194C979.411 874.761 947.528 885.149 931.756 890.436C848.98 890.404 777.912 888.197 743.625 911.268C703.214 938.46 683.317 970.045 674.325 988.877C665.036 1008.33 675.196 1030.62 696.337 1035.94C756.286 1051.04 890.999 974.568 949.215 938.975L1012.98 909.954Z" fill="#F9724D"/>
<path d="M998.991 917.899C998.571 917.899 998.151 917.732 997.841 917.402L972.707 890.693C972.109 890.058 972.14 889.058 972.774 888.461C973.411 887.863 974.41 887.894 975.006 888.528L1000.14 915.237C1000.74 915.872 1000.71 916.872 1000.07 917.469C999.768 917.757 999.379 917.899 998.991 917.899Z" fill="#19283F"/>
<path d="M986.424 923.523C986.004 923.523 985.584 923.356 985.274 923.027L960.14 896.318C959.542 895.683 959.573 894.683 960.207 894.086C960.844 893.488 961.843 893.52 962.439 894.153L987.573 920.862C988.171 921.497 988.14 922.497 987.506 923.094C987.201 923.381 986.812 923.523 986.424 923.523Z" fill="#19283F"/>
<path d="M973.857 931.254C973.437 931.254 973.017 931.087 972.707 930.757L947.573 904.048C946.975 903.413 947.006 902.413 947.64 901.816C948.277 901.218 949.276 901.25 949.872 901.883L975.006 928.592C975.604 929.227 975.573 930.227 974.939 930.824C974.634 931.112 974.245 931.254 973.857 931.254Z" fill="#19283F"/>
<path d="M949.216 938.975C949.216 938.975 924.184 933.589 923.776 916.32C923.776 916.32 908.113 944.887 933.08 948.693L949.216 938.975Z" fill="#EF92C8"/>
<path d="M1307.69 1851.39H392.577C424.637 1829.67 446.784 1791.22 469.723 1760.02C492.662 1728.82 519.726 1697.83 556.495 1685.68C593.264 1673.54 641.331 1688.15 653.257 1724.99C658.896 1742.41 655.976 1762.15 663.952 1778.63C678.745 1809.19 722.984 1812.11 753.643 1797.52C784.303 1782.93 807.829 1756.52 837.479 1739.97C867.129 1723.43 909.983 1720.18 930.403 1747.31C948.577 1771.45 943.543 1812.38 970.397 1826.24C992.421 1837.61 1017.68 1821.13 1039.32 1809.06C1118.14 1765.08 1244.97 1786.49 1307.69 1851.39Z" fill="#FBD872"/>
<path d="M2499.46 1851.39H1961.2C1983.09 1834.31 1989.48 1813.57 2016.99 1817.37C2028.57 1818.97 2039.33 1824.2 2050.72 1826.89C2105.12 1839.74 2161.01 1793.31 2215.1 1807.44C2233.17 1812.16 2249.03 1823.34 2267.08 1828.14C2299.99 1836.9 2334.17 1823.46 2367.91 1818.84C2413.02 1812.67 2461.05 1826.93 2499.46 1851.39Z" fill="#FBD872"/>
<path d="M1215.88 1853.58C907.069 1853.58 673.966 1853.52 670.724 1853.32C669.346 1853.24 668.295 1852.06 668.377 1850.68C668.459 1849.3 669.648 1848.26 671.009 1848.33C675.102 1848.52 904.199 1848.58 1208.45 1848.58C1816.52 1848.58 2724.95 1848.33 2738.65 1848.33C2740.03 1848.33 2741.15 1849.44 2741.15 1850.82C2741.15 1852.21 2740.03 1853.33 2738.65 1853.33C2683.36 1853.34 1809.76 1853.58 1215.88 1853.58Z" fill="#19283F"/>
<path d="M493.872 1853.33H290.041C288.66 1853.33 287.541 1852.21 287.541 1850.83C287.541 1849.45 288.66 1848.33 290.041 1848.33H493.872C495.253 1848.33 496.372 1849.45 496.372 1850.83C496.372 1852.21 495.252 1853.33 493.872 1853.33Z" fill="#19283F"/>
</g>
</g>
<defs>
<clipPath id="clip0_470_3">
<rect width="3000" height="2025" fill="white" transform="translate(0 0.5)"/>
</clipPath>
</defs>
</svg>
