<svg width="500" height="501" viewBox="0 0 500 501" fill="none" xmlns="http://www.w3.org/2000/svg">
<path d="M437.397 315.43C437.397 315.43 488.493 258.015 472.248 158.098C456.002 58.1811 372.579 21.3751 317.219 40.6111C261.859 59.8471 249.406 93.3061 204.188 112.454C158.97 131.602 73.1249 118.442 30.1789 182.736C-12.7661 247.029 42.0549 353.564 111.847 420.365C181.639 487.165 359.8 445.336 437.397 315.43Z" fill="#0097B2"/>
<path opacity="0.7" d="M437.397 315.43C437.397 315.43 488.493 258.015 472.248 158.098C456.002 58.1811 372.579 21.3751 317.219 40.6111C261.859 59.8471 249.406 93.3061 204.188 112.454C158.97 131.602 73.1249 118.442 30.1789 182.736C-12.7661 247.029 42.0549 353.564 111.847 420.365C181.639 487.165 359.8 445.336 437.397 315.43Z" fill="white"/>
<path d="M61.5801 476.75H461.734" stroke="#263238" stroke-miterlimit="10"/>
<path d="M123.672 324.763L139.552 476.555" stroke="#263238" stroke-width="2" stroke-miterlimit="10"/>
<path d="M136.734 445.41L129.675 437.954" stroke="#263238" stroke-width="2" stroke-miterlimit="10"/>
<path d="M131.819 440.188C131.819 440.188 132.021 436.89 129.009 434.2C127.197 432.582 117.662 428.57 116.757 431.929C115.773 435.582 125.534 442.755 131.819 440.188Z" fill="#0097B2" stroke="#263238" stroke-miterlimit="10"/>
<path d="M131.819 440.188L122.741 434.531" stroke="#263238" stroke-width="0.5" stroke-miterlimit="10"/>
<path d="M138.504 462.378L131.445 454.922" stroke="#263238" stroke-width="2" stroke-miterlimit="10"/>
<path d="M133.59 457.156C133.59 457.156 133.792 453.858 130.781 451.168C128.969 449.55 119.433 445.538 118.529 448.897C117.544 452.55 127.304 459.724 133.59 457.156Z" fill="#0097B2" stroke="#263238" stroke-miterlimit="10"/>
<path d="M133.59 457.156L124.512 451.499" stroke="#263238" stroke-width="0.5" stroke-miterlimit="10"/>
<path d="M132.412 404.004L125.354 396.548" stroke="#263238" stroke-width="2" stroke-miterlimit="10"/>
<path d="M127.498 398.782C127.498 398.782 127.7 395.484 124.688 392.794C122.876 391.176 113.341 387.164 112.436 390.523C111.452 394.176 121.212 401.35 127.498 398.782Z" fill="#0097B2" stroke="#263238" stroke-miterlimit="10"/>
<path d="M127.498 398.782L118.42 393.125" stroke="#263238" stroke-width="0.5" stroke-miterlimit="10"/>
<path d="M134.183 420.972L127.124 413.517" stroke="#263238" stroke-width="2" stroke-miterlimit="10"/>
<path d="M129.269 415.75C129.269 415.75 129.471 412.452 126.46 409.762C124.648 408.144 115.112 404.132 114.208 407.491C113.223 411.144 122.983 418.318 129.269 415.75Z" fill="#0097B2" stroke="#263238" stroke-miterlimit="10"/>
<path d="M129.269 415.75L120.191 410.093" stroke="#263238" stroke-width="0.5" stroke-miterlimit="10"/>
<path d="M129.536 376.44L122.477 368.985" stroke="#263238" stroke-width="2" stroke-miterlimit="10"/>
<path d="M124.622 371.219C124.622 371.219 124.824 367.921 121.813 365.231C120.001 363.613 110.465 359.601 109.561 362.96C108.576 366.612 118.336 373.786 124.622 371.219Z" fill="#0097B2" stroke="#263238" stroke-miterlimit="10"/>
<path d="M124.622 371.219L115.544 365.561" stroke="#263238" stroke-width="0.5" stroke-miterlimit="10"/>
<path d="M126.647 348.756L119.588 341.301" stroke="#263238" stroke-width="2" stroke-miterlimit="10"/>
<path d="M121.732 343.534C121.732 343.534 121.934 340.236 118.922 337.547C117.11 335.929 107.575 331.917 106.67 335.276C105.686 338.928 115.447 346.102 121.732 343.534Z" fill="#0097B2" stroke="#263238" stroke-miterlimit="10"/>
<path d="M121.732 343.534L112.654 337.877" stroke="#263238" stroke-width="0.5" stroke-miterlimit="10"/>
<path d="M135.547 435.37L140.914 426.618" stroke="#263238" stroke-width="2" stroke-miterlimit="10"/>
<path d="M139.277 429.246C139.277 429.246 138.398 426.061 140.79 422.807C142.229 420.85 150.731 414.956 152.309 418.055C154.026 421.426 145.958 430.461 139.277 429.246Z" fill="#0097B2" stroke="#263238" stroke-miterlimit="10"/>
<path d="M139.277 429.246L147.452 421.433" stroke="#263238" stroke-width="0.5" stroke-miterlimit="10"/>
<path d="M130.887 390.718L136.254 381.965" stroke="#263238" stroke-width="2" stroke-miterlimit="10"/>
<path d="M134.617 384.594C134.617 384.594 133.738 381.409 136.13 378.155C137.569 376.198 146.071 370.304 147.649 373.403C149.366 376.774 141.298 385.808 134.617 384.594Z" fill="#0097B2" stroke="#263238" stroke-miterlimit="10"/>
<path d="M134.617 384.594L142.792 376.781" stroke="#263238" stroke-width="0.5" stroke-miterlimit="10"/>
<path d="M128.839 371.095L134.207 362.342" stroke="#263238" stroke-width="2" stroke-miterlimit="10"/>
<path d="M132.569 364.971C132.569 364.971 131.69 361.786 134.082 358.532C135.521 356.575 144.023 350.681 145.601 353.78C147.318 357.151 139.25 366.185 132.569 364.971Z" fill="#0097B2" stroke="#263238" stroke-miterlimit="10"/>
<path d="M132.569 364.971L140.744 357.158" stroke="#263238" stroke-width="0.5" stroke-miterlimit="10"/>
<path d="M125.837 342.327L131.204 333.575" stroke="#263238" stroke-width="2" stroke-miterlimit="10"/>
<path d="M129.567 336.204C129.567 336.204 128.689 333.019 131.08 329.765C132.519 327.808 141.021 321.914 142.599 325.013C144.316 328.384 136.248 337.418 129.567 336.204Z" fill="#0097B2" stroke="#263238" stroke-miterlimit="10"/>
<path d="M129.567 336.204L137.741 328.391" stroke="#263238" stroke-width="0.5" stroke-miterlimit="10"/>
<path d="M123.541 323.935C123.541 323.935 122.663 320.75 125.054 317.496C126.493 315.539 134.995 309.645 136.573 312.744C138.291 316.115 130.222 325.149 123.541 323.935Z" fill="#0097B2" stroke="#263238" stroke-miterlimit="10"/>
<path d="M123.541 323.935L131.716 316.122" stroke="#263238" stroke-width="0.5" stroke-miterlimit="10"/>
<path d="M124.015 324.272C124.015 324.272 120.755 324.812 117.771 322.092C115.975 320.456 111.005 311.383 114.253 310.138C117.785 308.784 125.923 317.755 124.015 324.272Z" fill="#0097B2" stroke="#263238" stroke-miterlimit="10"/>
<path d="M124.015 324.272L117.102 315.323" stroke="#263238" stroke-width="0.5" stroke-miterlimit="10"/>
<path d="M164.741 345.31L151.607 476.555" stroke="#263238" stroke-width="2" stroke-miterlimit="10"/>
<path d="M152.681 466.061L147.309 457.312" stroke="#263238" stroke-width="2" stroke-miterlimit="10"/>
<path d="M148.947 459.94C148.947 459.94 149.824 456.754 147.431 453.502C145.991 451.545 137.486 445.656 135.909 448.756C134.193 452.128 142.267 461.158 148.947 459.94Z" fill="#0097B2" stroke="#263238" stroke-miterlimit="10"/>
<path d="M148.947 459.94L141.229 452.534" stroke="#263238" stroke-width="0.5" stroke-miterlimit="10"/>
<path d="M156.978 424.653L151.605 415.904" stroke="#263238" stroke-width="2" stroke-miterlimit="10"/>
<path d="M153.244 418.531C153.244 418.531 154.121 415.345 151.727 412.093C150.287 410.136 141.782 404.248 140.205 407.348C138.49 410.72 146.564 419.75 153.244 418.531Z" fill="#0097B2" stroke="#263238" stroke-miterlimit="10"/>
<path d="M153.244 418.531L145.525 411.126" stroke="#263238" stroke-width="0.5" stroke-miterlimit="10"/>
<path d="M155.217 441.622L149.844 432.873" stroke="#263238" stroke-width="2" stroke-miterlimit="10"/>
<path d="M151.483 435.499C151.483 435.499 152.36 432.314 149.967 429.062C148.527 427.105 140.022 421.216 138.445 424.316C136.729 427.688 144.803 436.718 151.483 435.499Z" fill="#0097B2" stroke="#263238" stroke-miterlimit="10"/>
<path d="M151.483 435.5L143.764 428.095" stroke="#263238" stroke-width="0.5" stroke-miterlimit="10"/>
<path d="M159.838 397.088L154.465 388.338" stroke="#263238" stroke-width="2" stroke-miterlimit="10"/>
<path d="M156.104 390.966C156.104 390.966 156.981 387.78 154.588 384.528C153.148 382.571 144.643 376.682 143.066 379.783C141.351 383.154 149.424 392.184 156.104 390.966Z" fill="#0097B2" stroke="#263238" stroke-miterlimit="10"/>
<path d="M156.104 390.966L148.386 383.561" stroke="#263238" stroke-width="0.5" stroke-miterlimit="10"/>
<path d="M162.711 369.402L157.338 360.652" stroke="#263238" stroke-width="2" stroke-miterlimit="10"/>
<path d="M158.977 363.28C158.977 363.28 159.854 360.094 157.46 356.842C156.02 354.886 147.515 348.997 145.938 352.097C144.223 355.469 152.297 364.498 158.977 363.28Z" fill="#0097B2" stroke="#263238" stroke-miterlimit="10"/>
<path d="M158.977 363.28L151.258 355.875" stroke="#263238" stroke-width="0.5" stroke-miterlimit="10"/>
<path d="M153.587 455.992L160.641 448.533" stroke="#263238" stroke-width="2" stroke-miterlimit="10"/>
<path d="M158.498 450.768C158.498 450.768 158.294 447.47 161.304 444.779C163.115 443.16 172.648 439.142 173.555 442.5C174.542 446.152 164.786 453.332 158.498 450.768Z" fill="#0097B2" stroke="#263238" stroke-miterlimit="10"/>
<path d="M158.498 450.768L168.106 444.805" stroke="#263238" stroke-width="0.5" stroke-miterlimit="10"/>
<path d="M158.221 411.337L165.275 403.878" stroke="#263238" stroke-width="2" stroke-miterlimit="10"/>
<path d="M163.132 406.113C163.132 406.113 162.928 402.815 165.938 400.124C167.749 398.505 177.282 394.488 178.189 397.845C179.175 401.497 169.419 408.677 163.132 406.113Z" fill="#0097B2" stroke="#263238" stroke-miterlimit="10"/>
<path d="M163.132 406.113L172.74 400.15" stroke="#263238" stroke-width="0.5" stroke-miterlimit="10"/>
<path d="M160.257 391.713L167.311 384.254" stroke="#263238" stroke-width="2" stroke-miterlimit="10"/>
<path d="M165.168 386.488C165.168 386.488 164.964 383.19 167.974 380.499C169.785 378.88 179.318 374.863 180.225 378.22C181.211 381.873 171.456 389.052 165.168 386.488Z" fill="#0097B2" stroke="#263238" stroke-miterlimit="10"/>
<path d="M165.168 386.488L174.776 380.526" stroke="#263238" stroke-width="0.5" stroke-miterlimit="10"/>
<path d="M163.242 362.944L170.297 355.484" stroke="#263238" stroke-width="2" stroke-miterlimit="10"/>
<path d="M168.154 357.719C168.154 357.719 167.95 354.421 170.96 351.73C172.771 350.111 182.304 346.094 183.211 349.451C184.197 353.104 174.441 360.283 168.154 357.719Z" fill="#0097B2" stroke="#263238" stroke-miterlimit="10"/>
<path d="M168.154 357.719L177.761 351.757" stroke="#263238" stroke-width="0.5" stroke-miterlimit="10"/>
<path d="M164.783 344.473C164.783 344.473 164.579 341.175 167.589 338.484C169.4 336.865 178.933 332.848 179.84 336.206C180.826 339.857 171.07 347.036 164.783 344.473Z" fill="#0097B2" stroke="#263238" stroke-miterlimit="10"/>
<path d="M164.783 344.473L174.391 338.51" stroke="#263238" stroke-width="0.5" stroke-miterlimit="10"/>
<path d="M165.177 344.9C165.177 344.9 161.876 344.757 159.515 341.482C158.095 339.511 155.099 329.609 158.534 329.06C162.269 328.461 168.386 338.916 165.177 344.9Z" fill="#0097B2" stroke="#263238" stroke-miterlimit="10"/>
<path d="M165.177 344.9L160.255 334.72" stroke="#263238" stroke-width="0.5" stroke-miterlimit="10"/>
<path d="M146.998 284.552L146.026 476.778" stroke="#263238" stroke-width="2" stroke-miterlimit="10"/>
<path d="M147.148 444.866L140.901 436.718" stroke="#263238" stroke-width="2" stroke-miterlimit="10"/>
<path d="M142.802 439.162C142.802 439.162 143.345 435.903 140.629 432.915C138.995 431.118 129.927 426.138 128.679 429.384C127.321 432.915 136.284 441.064 142.802 439.162Z" fill="#0097B2" stroke="#263238" stroke-miterlimit="10"/>
<path d="M142.802 439.162L134.361 432.594" stroke="#263238" stroke-width="0.5" stroke-miterlimit="10"/>
<path d="M147.148 409.407L140.901 401.259" stroke="#263238" stroke-width="2" stroke-miterlimit="10"/>
<path d="M142.802 403.704C142.802 403.704 143.345 400.445 140.629 397.457C138.995 395.66 129.927 390.68 128.679 393.926C127.321 397.457 136.284 405.605 142.802 403.704Z" fill="#0097B2" stroke="#263238" stroke-miterlimit="10"/>
<path d="M142.802 403.704L134.361 397.135" stroke="#263238" stroke-width="0.5" stroke-miterlimit="10"/>
<path d="M147.148 367.777L140.901 359.629" stroke="#263238" stroke-width="2" stroke-miterlimit="10"/>
<path d="M142.802 362.073C142.802 362.073 143.345 358.814 140.629 355.826C138.995 354.029 129.927 349.049 128.679 352.295C127.321 355.826 136.284 363.974 142.802 362.073Z" fill="#0097B2" stroke="#263238" stroke-miterlimit="10"/>
<path d="M142.802 362.073L134.361 355.504" stroke="#263238" stroke-width="0.5" stroke-miterlimit="10"/>
<path d="M147.148 340.063L140.901 331.915" stroke="#263238" stroke-width="2" stroke-miterlimit="10"/>
<path d="M142.802 334.36C142.802 334.36 143.345 331.101 140.629 328.113C138.995 326.315 129.927 321.336 128.679 324.582C127.321 328.113 136.284 336.261 142.802 334.36Z" fill="#0097B2" stroke="#263238" stroke-miterlimit="10"/>
<path d="M142.802 334.36L134.361 327.791" stroke="#263238" stroke-width="0.5" stroke-miterlimit="10"/>
<path d="M147.148 312.229L140.901 304.081" stroke="#263238" stroke-width="2" stroke-miterlimit="10"/>
<path d="M142.802 306.525C142.802 306.525 143.345 303.266 140.629 300.278C138.995 298.48 129.927 293.501 128.679 296.747C127.321 300.279 136.284 308.427 142.802 306.525Z" fill="#0097B2" stroke="#263238" stroke-miterlimit="10"/>
<path d="M142.802 306.525L134.361 299.956" stroke="#263238" stroke-width="0.5" stroke-miterlimit="10"/>
<path d="M147.01 455.694L153.257 447.546" stroke="#263238" stroke-width="2" stroke-miterlimit="10"/>
<path d="M151.356 449.99C151.356 449.99 150.813 446.731 153.529 443.743C155.163 441.945 164.231 436.966 165.479 440.212C166.837 443.743 157.874 451.891 151.356 449.99Z" fill="#0097B2" stroke="#263238" stroke-miterlimit="10"/>
<path d="M151.356 449.99L160.297 443.068" stroke="#263238" stroke-width="0.5" stroke-miterlimit="10"/>
<path d="M147.01 399.299L153.257 391.151" stroke="#263238" stroke-width="2" stroke-miterlimit="10"/>
<path d="M151.356 393.595C151.356 393.595 150.813 390.336 153.529 387.348C155.163 385.551 164.231 380.571 165.479 383.817C166.837 387.348 157.874 395.496 151.356 393.595Z" fill="#0097B2" stroke="#263238" stroke-miterlimit="10"/>
<path d="M151.356 393.595L160.297 386.673" stroke="#263238" stroke-width="0.5" stroke-miterlimit="10"/>
<path d="M147.01 371.464L153.257 363.316" stroke="#263238" stroke-width="2" stroke-miterlimit="10"/>
<path d="M151.356 365.761C151.356 365.761 150.813 362.502 153.529 359.514C155.163 357.717 164.231 352.737 165.479 355.983C166.837 359.514 157.874 367.662 151.356 365.761Z" fill="#0097B2" stroke="#263238" stroke-miterlimit="10"/>
<path d="M151.356 365.761L160.297 358.838" stroke="#263238" stroke-width="0.5" stroke-miterlimit="10"/>
<path d="M147.01 334.674L153.257 326.526" stroke="#263238" stroke-width="2" stroke-miterlimit="10"/>
<path d="M151.356 328.971C151.356 328.971 150.813 325.712 153.529 322.724C155.163 320.926 164.231 315.947 165.479 319.193C166.837 322.724 157.874 330.872 151.356 328.971Z" fill="#0097B2" stroke="#263238" stroke-miterlimit="10"/>
<path d="M151.356 328.971L160.297 322.048" stroke="#263238" stroke-width="0.5" stroke-miterlimit="10"/>
<path d="M147.01 305.751L153.257 297.603" stroke="#263238" stroke-width="2" stroke-miterlimit="10"/>
<path d="M151.356 300.047C151.356 300.047 150.813 296.788 153.529 293.8C155.163 292.002 164.231 287.023 165.479 290.269C166.837 293.801 157.874 301.948 151.356 300.047Z" fill="#0097B2" stroke="#263238" stroke-miterlimit="10"/>
<path d="M151.356 300.047L160.297 293.125" stroke="#263238" stroke-width="0.5" stroke-miterlimit="10"/>
<path d="M146.636 287.219C146.636 287.219 146.093 283.96 148.809 280.972C150.443 279.175 159.511 274.195 160.759 277.441C162.117 280.972 153.154 289.12 146.636 287.219Z" fill="#0097B2" stroke="#263238" stroke-miterlimit="10"/>
<path d="M146.636 287.219L155.577 280.297" stroke="#263238" stroke-width="0.5" stroke-miterlimit="10"/>
<path d="M147.072 287.604C147.072 287.604 143.774 287.802 141.087 284.788C139.471 282.974 135.47 273.435 138.829 272.533C142.483 271.553 149.646 281.321 147.072 287.604Z" fill="#0097B2" stroke="#263238" stroke-miterlimit="10"/>
<path d="M147.072 287.604L141.126 277.986" stroke="#263238" stroke-width="0.5" stroke-miterlimit="10"/>
<path d="M401.039 476.75L395.257 410.123H258.407L250.854 476.75H401.039Z" fill="#263238" stroke="#263238" stroke-miterlimit="10"/>
<path d="M317.215 208.173C317.215 208.173 277.191 219.165 259.715 232.413C242.24 245.66 230.12 259.19 232.938 284.839C235.757 310.488 254.078 380.671 254.078 380.671C254.078 380.671 251.541 409.139 251.541 410.83C251.541 412.521 251.259 417.313 257.46 417.595C263.661 417.877 338.072 420.977 354.702 421.259C371.332 421.541 393.317 419.85 395.854 417.877C398.391 415.904 399.8 412.804 400.082 409.421C400.364 406.039 403.182 364.605 403.182 364.605L403.464 346.002C403.464 346.002 421.785 285.12 422.912 265.39C424.04 245.66 416.711 239.177 408.537 232.976C400.363 226.775 374.931 216.277 361.184 212.118C347.439 207.959 317.215 208.173 317.215 208.173Z" fill="#0097B2" stroke="#263238" stroke-miterlimit="10"/>
<path d="M327.087 302.766C325.051 330.22 321.434 380.813 321.755 389.476C322.199 401.473 317.312 405.028 317.312 409.471" stroke="#263238" stroke-miterlimit="10"/>
<path d="M328.42 285.058C328.42 285.058 328.06 289.734 327.508 297.12" stroke="#263238" stroke-miterlimit="10"/>
<path d="M346.283 320.325L348.842 350.524L363.174 349.5L346.283 320.325Z" fill="#263238" stroke="#263238" stroke-miterlimit="10"/>
<path d="M332.703 372.983C332.703 372.983 367.727 367.483 370.332 368.062C372.937 368.641 390.884 377.325 393.489 377.904C396.094 378.483 398.41 379.641 398.41 379.641L402.337 382.927L401.015 372.984C401.015 372.984 395.805 366.616 384.226 361.985C372.648 357.354 366.859 359.959 364.253 360.827C361.649 361.694 332.703 372.983 332.703 372.983Z" fill="#263238" stroke="#263238" stroke-miterlimit="10"/>
<path d="M278.882 346.566L369.923 346.284C369.923 346.284 399.237 343.465 400.364 343.184C401.492 342.902 413.048 346.003 414.175 346.848C415.302 347.694 415.302 350.23 414.739 352.767C414.175 355.304 414.175 355.304 414.175 355.304C414.175 355.304 415.021 359.814 415.021 361.787C415.021 363.76 412.766 364.324 412.484 365.169C412.202 366.015 414.175 369.115 411.92 371.088C409.665 373.061 409.665 373.061 409.665 373.061C409.665 373.061 409.383 378.416 408.256 379.826C407.129 381.235 403.746 383.772 402.337 382.926C400.928 382.08 401.492 379.826 401.492 378.416C401.492 377.006 400.928 375.597 399.237 375.597C397.546 375.597 397.264 377.006 388.526 374.752C379.788 372.497 370.205 364.887 369.359 364.605C368.513 364.323 292.129 384.899 269.58 387.717C247.031 390.535 245.058 387.435 244.213 383.771C243.367 380.107 241.958 371.369 241.958 371.369L238.012 354.175L278.882 346.566Z" fill="white" stroke="#263238" stroke-miterlimit="10"/>
<path d="M338.055 241.206C338.055 241.206 342.757 236.257 345.727 238.484C348.697 240.711 351.419 252.59 355.131 251.6C358.843 250.61 366.267 227.595 366.267 218.439C366.267 209.283 359.833 203.838 358.348 203.343C356.863 202.848 319 202.353 314.545 204.086C310.09 205.819 308.358 221.409 306.626 230.813C304.894 240.217 308.853 242.444 311.328 241.207C313.803 239.97 323.454 236.01 325.681 236.01C327.908 236.009 338.055 241.206 338.055 241.206Z" fill="#0097B2" stroke="#263238" stroke-miterlimit="10"/>
<path d="M363.399 189.044C363.399 189.044 359.852 206.58 358.473 210.915C357.094 215.25 347.045 228.451 344.483 231.21C341.921 233.969 334.434 247.564 332.464 247.958C330.494 248.352 324.977 229.831 324.977 229.831C324.977 229.831 317.884 217.615 316.504 214.462C315.125 211.309 312.957 202.049 312.957 202.049C312.957 202.049 324.582 212.098 336.996 209.931C349.41 207.764 355.715 195.35 355.715 195.35L363.399 189.044Z" fill="white" stroke="#263238" stroke-miterlimit="10"/>
<path d="M315.287 154.096C315.287 154.096 311.822 150.384 309.843 156.076C307.863 161.768 311.823 171.914 311.823 171.914L315.287 154.096Z" fill="white" stroke="#263238" stroke-miterlimit="10"/>
<path d="M315.913 142.543C315.913 142.543 310.199 183.133 310.199 185.497C310.199 187.862 308.623 195.743 310.987 200.866C313.351 205.989 320.445 212.294 326.159 213.082C331.873 213.87 343.104 212.688 349.409 207.762C355.714 202.836 363.004 192.196 363.004 192.196C363.004 192.196 370.886 191.014 376.009 188.846C381.132 186.679 385.073 181.753 384.876 176.63C384.679 171.507 381.526 167.566 381.526 167.566L378.57 162.049L386.452 147.271C386.452 147.271 381.92 138.798 367.339 130.72C352.758 122.642 339.754 120.08 333.646 120.08C327.538 120.08 319.853 122.642 317.686 127.567C315.519 132.494 315.913 142.543 315.913 142.543Z" fill="white" stroke="#263238" stroke-miterlimit="10"/>
<path d="M334.632 122.642C334.632 122.642 345.863 141.163 354.336 140.375C362.809 139.587 365.37 135.646 365.37 135.646L371.084 143.33C371.084 143.33 364.976 145.891 366.158 149.044C367.34 152.197 372.66 159.29 372.66 159.29L368.325 177.811C368.325 177.811 371.675 178.402 372.266 177.22C372.857 176.038 375.813 168.747 375.813 168.747C375.813 168.747 376.995 167.959 378.374 167.565C379.753 167.171 381.527 167.565 381.527 167.565C381.527 167.565 383.694 160.275 384.483 160.078C385.271 159.881 393.153 157.713 396.108 150.029C399.064 142.345 394.532 130.128 384.286 120.473C374.04 110.818 352.366 108.257 351.184 106.483C350.002 104.71 356.701 107.271 355.322 103.33C353.943 99.389 345.273 94.266 334.239 99.783C323.205 105.3 324.781 111.408 325.963 113.378C327.145 115.348 327.145 115.348 327.145 115.348C327.145 115.348 317.884 112.195 311.382 116.136C304.88 120.077 301.727 127.958 304.683 128.746C307.639 129.534 311.382 127.761 311.382 127.761C311.382 127.761 307.441 134.263 308.624 135.642C309.806 137.021 315.914 142.538 315.914 142.538C315.914 142.538 318.278 128.745 323.204 126.775C328.13 124.805 334.632 122.642 334.632 122.642Z" fill="#263238" stroke="#263238" stroke-miterlimit="10"/>
<path d="M331.085 149.242L332.858 154.956L322.809 173.872L333.449 178.01" stroke="#263238" stroke-miterlimit="10"/>
<path d="M329.115 147.075C329.115 147.075 324.386 143.331 320.445 144.316C316.504 145.301 318.869 145.892 321.627 146.877C324.386 147.863 329.903 150.425 329.115 147.075Z" fill="#263238" stroke="#263238" stroke-miterlimit="10"/>
<path d="M343.695 146.287C343.695 146.287 339.163 147.469 341.331 148.454C343.498 149.439 350.001 147.469 352.562 148.454C355.124 149.439 358.473 152.789 358.276 151.213C358.079 149.637 356.503 146.484 352.956 145.302C349.409 144.119 343.695 146.287 343.695 146.287Z" fill="#263238" stroke="#263238" stroke-miterlimit="10"/>
<path d="M326.509 155.819C326.164 157.247 325.198 158.239 324.352 158.034C323.506 157.83 323.1 156.506 323.445 155.078C323.79 153.65 324.756 152.658 325.602 152.863C326.448 153.068 326.854 154.391 326.509 155.819Z" fill="#263238"/>
<path d="M347.986 161.435C347.641 162.863 346.675 163.855 345.829 163.65C344.983 163.445 344.577 162.122 344.922 160.694C345.267 159.266 346.233 158.274 347.079 158.479C347.925 158.684 348.331 160.007 347.986 161.435Z" fill="#263238"/>
<path d="M316.701 180.374L324.78 185.694" stroke="#263238" stroke-miterlimit="10"/>
<path d="M399.801 228.185C399.801 228.185 427.705 238.896 433.06 254.962C438.415 271.028 431.651 291.322 428.832 299.778C426.013 308.234 408.538 341.212 405.72 349.104C402.901 356.996 398.673 366.579 398.673 366.579C398.673 366.579 394.727 342.903 384.016 328.246C373.305 313.589 370.769 300.342 370.769 300.342C370.769 300.342 390.217 265.955 395.291 255.244" fill="#0097B2"/>
<path d="M399.801 228.185C399.801 228.185 427.705 238.896 433.06 254.962C438.415 271.028 431.651 291.322 428.832 299.778C426.013 308.234 408.538 341.212 405.72 349.104C402.901 356.996 398.673 366.579 398.673 366.579C398.673 366.579 394.727 342.903 384.016 328.246C373.305 313.589 370.769 300.342 370.769 300.342C370.769 300.342 390.217 265.955 395.291 255.244" stroke="#263238" stroke-miterlimit="10"/>
<path d="M373.727 294.385C373.727 294.385 379.436 291.53 381.339 292.482C383.242 293.434 407.666 306.438 410.837 321.346C414.009 336.254 409.251 348.941 406.396 354.333C403.541 359.725 398.149 370.192 394.026 371.461C389.903 372.73 386.413 338.791 377.849 321.028C369.286 303.266 373.727 294.385 373.727 294.385Z" fill="#0097B2" stroke="#263238" stroke-miterlimit="10"/>
<path d="M383.171 278.074C383.171 278.074 388.245 260.881 390.218 254.116" stroke="#263238" stroke-miterlimit="10"/>
<path d="M332.267 217.023C332.267 217.023 324.385 205.989 318.277 198.699C312.169 191.409 305.864 187.074 303.696 187.665C301.529 188.256 300.74 190.423 302.12 192.985C303.499 195.547 310.002 201.26 311.184 202.837C312.366 204.413 314.14 210.127 314.14 210.127C314.14 210.127 308.426 210.521 307.441 211.703C306.456 212.885 305.076 216.038 305.076 216.038C305.076 216.038 303.106 217.023 302.121 218.6C301.136 220.176 301.136 220.57 300.939 221.358C300.742 222.146 297.983 223.525 298.181 227.072C298.378 230.619 301.728 235.742 302.91 238.106C304.092 240.47 312.762 250.913 314.338 252.687C315.914 254.46 324.978 270.223 327.342 275.543C329.706 280.863 352.563 342.535 359.262 351.796C365.961 361.057 378.375 369.923 385.074 373.076C391.773 376.229 396.502 370.909 399.655 364.209C402.808 357.51 405.566 344.111 399.458 328.742C393.35 313.373 381.331 300.172 372.07 292.29C362.809 284.408 345.47 264.705 343.5 261.158C341.53 257.611 338.968 249.73 338.968 249.73C338.968 249.73 344.091 234.755 344.485 231.209C344.879 227.662 342.909 221.357 343.5 218.599C344.091 215.841 346.456 210.323 347.441 207.959C348.426 205.595 351.776 201.654 350.002 199.88C348.229 198.107 340.938 200.274 338.377 204.412C335.814 208.55 332.267 217.023 332.267 217.023Z" fill="white" stroke="#263238" stroke-miterlimit="10"/>
<path d="M271.365 259.694C271.961 256.563 272.399 254.397 272.399 254.397L271.365 259.694Z" fill="#0097B2"/>
<path d="M271.365 259.694C271.961 256.563 272.399 254.397 272.399 254.397" stroke="#263238" stroke-miterlimit="10"/>
<path d="M269.581 227.339C269.581 227.339 254.642 229.312 239.14 245.942C223.638 262.572 230.402 302.032 231.812 310.206C233.221 318.38 235.476 343.465 235.476 343.465L275.218 330.218C275.218 330.218 268.735 285.966 268.171 282.02C267.886 280.026 268.969 272.992 270.11 266.522" fill="#0097B2"/>
<path d="M269.581 227.339C269.581 227.339 254.642 229.312 239.14 245.942C223.638 262.572 230.402 302.032 231.812 310.206C233.221 318.38 235.476 343.465 235.476 343.465L275.218 330.218C275.218 330.218 268.735 285.966 268.171 282.02C267.886 280.026 268.969 272.992 270.11 266.522" stroke="#263238" stroke-miterlimit="10"/>
<path d="M231.53 334.728C231.53 334.728 235.476 355.867 237.449 356.995C239.422 358.123 270.145 349.667 273.527 349.103C276.909 348.539 278.882 349.385 278.882 346.566C278.882 343.747 276.063 330.5 274.372 328.245C272.681 325.99 236.039 330.782 232.939 331.627C229.839 332.473 231.53 334.728 231.53 334.728Z" fill="#0097B2" stroke="#263238" stroke-miterlimit="10"/>
<path d="M254.038 318.39C265.438 322.928 274.372 328.245 274.372 328.245C274.372 328.245 264.789 310.206 260.843 306.542" stroke="#263238" stroke-miterlimit="10"/>
<path d="M248.723 316.407C249.854 316.8 250.973 317.207 252.072 317.625" stroke="#263238" stroke-miterlimit="10"/>
<path d="M341.164 408.679C348.454 406.08 355.164 403.218 359.213 400.401" stroke="#263238" stroke-miterlimit="10"/>
<path d="M306.787 418.722C306.787 418.722 322.36 415.028 337.138 410.07" stroke="#263238" stroke-miterlimit="10"/>
<path d="M372.282 399.23C364.624 403.046 352.493 408.635 342.583 411.112" stroke="#263238" stroke-miterlimit="10"/>
<path d="M379.788 395.328C379.788 395.328 378.217 396.196 375.613 397.54" stroke="#263238" stroke-miterlimit="10"/>
<path d="M116.122 37.6388C49.0498 69.9468 36.3258 164.815 78.8668 221.833C87.7588 233.751 99.3828 243.8 113.149 249.637C160.17 269.574 197.819 229.938 220.732 193.523C257.312 135.387 261.884 121.016 261.231 130.815C260.578 140.614 277.561 151.065 287.36 99.4598C299.885 33.4938 207.531 18.4928 160.783 24.7048C145.109 26.7868 129.928 30.9888 116.122 37.6388Z" fill="#263238" stroke="#263238" stroke-miterlimit="10"/>
<path d="M266.255 149.078C262.322 156.179 262.588 163.848 266.848 166.208C271.108 168.568 277.75 164.724 281.683 157.623C285.616 150.522 285.35 142.853 281.09 140.493C276.83 138.134 270.188 141.977 266.255 149.078Z" fill="#263238" stroke="#263238" stroke-miterlimit="10"/>
<path d="M288.693 159.078C286.369 163.274 286.526 167.807 289.044 169.201C291.562 170.595 295.487 168.324 297.811 164.128C300.135 159.932 299.978 155.399 297.46 154.005C294.943 152.611 291.018 154.882 288.693 159.078Z" fill="#263238" stroke="#263238" stroke-miterlimit="10"/>
<path d="M119.985 31.4591C52.9119 63.7671 40.1889 158.635 82.7299 215.654C91.6219 227.572 103.247 237.621 117.012 243.458C164.032 263.395 201.682 223.759 224.595 187.344C261.175 129.208 265.747 114.837 265.094 124.636C264.441 134.434 281.424 144.885 291.223 93.2811C303.748 27.3151 211.394 12.3141 164.646 18.5261C148.972 20.6071 133.79 24.8091 119.985 31.4591Z" fill="white" stroke="#263238" stroke-miterlimit="10"/>
<path d="M270.117 142.898C266.184 149.999 266.45 157.668 270.71 160.028C274.97 162.388 281.612 158.544 285.545 151.443C289.478 144.342 289.212 136.673 284.952 134.313C280.692 131.954 274.05 135.797 270.117 142.898Z" fill="white" stroke="#263238" stroke-miterlimit="10"/>
<path d="M292.556 152.899C290.232 157.095 290.389 161.628 292.907 163.022C295.425 164.417 299.35 162.145 301.674 157.949C303.998 153.753 303.841 149.22 301.323 147.826C298.805 146.431 294.88 148.702 292.556 152.899Z" fill="white" stroke="#263238" stroke-miterlimit="10"/>
<path d="M84.5698 102.953V89.7431H92.6148C93.0028 87.5311 93.5708 85.3821 94.3228 83.3191L87.3718 79.3061L93.9768 67.8661L100.944 71.8891C102.371 70.1901 103.943 68.6191 105.642 67.1931L101.621 60.2291L113.061 53.6241L117.076 60.5791C119.139 59.8281 121.289 59.2601 123.5 58.8731V50.8301H136.71V58.8751C138.922 59.2631 141.071 59.8311 143.134 60.5831L147.147 53.6321L158.587 60.2371L154.564 67.2041C156.263 68.6311 157.834 70.2031 159.26 71.9021L166.224 67.8811L172.829 79.3211L165.874 83.3361C166.625 85.3991 167.193 87.5481 167.579 89.7601H175.621V102.97H167.576C167.188 105.182 166.62 107.331 165.868 109.394L172.819 113.407L166.214 124.847L159.247 120.824C157.82 122.523 156.248 124.094 154.549 125.521L158.57 132.485L147.13 139.09L143.115 132.135C141.052 132.886 138.903 133.454 136.691 133.84V141.882H123.481V133.837C121.269 133.449 119.12 132.881 117.057 132.129L113.043 139.081L101.603 132.476L105.626 125.509C103.927 124.082 102.356 122.51 100.929 120.811L93.9648 124.832L87.3598 113.392L94.3148 109.377C93.5638 107.314 92.9958 105.165 92.6098 102.953H84.5698ZM130.097 120.971C143.691 120.971 154.711 109.951 154.711 96.3571C154.711 82.7631 143.691 71.7431 130.097 71.7431C116.503 71.7431 105.483 82.7631 105.483 96.3571C105.483 109.951 116.503 120.971 130.097 120.971Z" fill="#CCCCCC"/>
<path d="M103.315 180.585V169.846H109.855C110.17 168.048 110.633 166.301 111.244 164.624L105.593 161.361L110.962 152.061L116.626 155.331C117.786 153.95 119.064 152.673 120.446 151.513L117.177 145.852L126.477 140.483L129.741 146.137C131.418 145.527 133.165 145.065 134.964 144.751V138.214H145.703V144.754C147.501 145.069 149.248 145.531 150.925 146.143L154.188 140.492L163.488 145.861L160.218 151.525C161.599 152.685 162.876 153.963 164.036 155.345L169.697 152.076L175.066 161.376L169.412 164.64C170.022 166.317 170.484 168.064 170.798 169.863H177.335V180.6H170.795C170.48 182.398 170.018 184.145 169.406 185.822L175.057 189.085L169.688 198.385L164.024 195.115C162.864 196.496 161.586 197.773 160.204 198.933L163.473 204.594L154.173 209.963L150.909 204.309C149.232 204.919 147.485 205.381 145.686 205.695V212.232H134.947V205.692C133.149 205.377 131.402 204.915 129.725 204.303L126.462 209.954L117.162 204.585L120.432 198.921C119.051 197.761 117.774 196.483 116.614 195.101L110.953 198.37L105.584 189.07L111.238 185.806C110.627 184.129 110.166 182.382 109.852 180.583H103.315V180.585ZM140.326 195.232C151.377 195.232 160.335 186.274 160.335 175.223C160.335 164.172 151.377 155.214 140.326 155.214C129.275 155.214 120.317 164.172 120.317 175.223C120.316 186.274 129.275 195.232 140.326 195.232Z" fill="#CCCCCC"/>
<path d="M171.549 156.037V147.857H176.531C176.771 146.487 177.123 145.156 177.589 143.879L173.284 141.394L177.374 134.31L181.688 136.801C182.572 135.749 183.545 134.776 184.597 133.893L182.107 129.581L189.191 125.491L191.677 129.798C192.954 129.333 194.285 128.981 195.655 128.742V123.763H203.835V128.745C205.204 128.985 206.536 129.337 207.813 129.803L210.298 125.499L217.382 129.589L214.891 133.903C215.943 134.787 216.916 135.76 217.799 136.812L222.111 134.322L226.201 141.406L221.894 143.892C222.359 145.169 222.711 146.501 222.95 147.87H227.93V156.05H222.948C222.708 157.42 222.356 158.751 221.89 160.028L226.195 162.513L222.105 169.597L217.791 167.106C216.907 168.158 215.934 169.131 214.882 170.014L217.372 174.326L210.288 178.416L207.802 174.109C206.525 174.574 205.194 174.926 203.824 175.165V180.145H195.644V175.163C194.274 174.923 192.943 174.571 191.666 174.105L189.181 178.41L182.097 174.32L184.588 170.006C183.536 169.122 182.563 168.149 181.68 167.097L177.368 169.587L173.278 162.503L177.585 160.017C177.12 158.74 176.768 157.409 176.529 156.039H171.549V156.037ZM199.74 167.195C208.158 167.195 214.981 160.371 214.981 151.954C214.981 143.536 208.157 136.713 199.74 136.713C191.323 136.713 184.499 143.537 184.499 151.954C184.499 160.371 191.322 167.195 199.74 167.195Z" fill="#CCCCCC"/>
<path d="M200.683 80.3678V72.1878H205.665C205.905 70.8178 206.257 69.4878 206.723 68.2098L202.418 65.7248L206.508 58.6408L210.822 61.1318C211.706 60.0798 212.679 59.1068 213.731 58.2238L211.241 53.9118L218.325 49.8218L220.811 54.1278C222.089 53.6628 223.42 53.3108 224.789 53.0718V48.0928H232.969V53.0738C234.339 53.3138 235.67 53.6658 236.947 54.1318L239.432 49.8268L246.516 53.9168L244.025 58.2308C245.077 59.1148 246.05 60.0878 246.933 61.1398L251.245 58.6498L255.335 65.7338L251.028 68.2198C251.493 69.4968 251.845 70.8278 252.084 72.1978H257.063V80.3778H252.081C251.841 81.7478 251.489 83.0788 251.023 84.3558L255.327 86.8408L251.237 93.9248L246.923 91.4338C246.039 92.4858 245.066 93.4588 244.014 94.3418L246.504 98.6538L239.42 102.744L236.934 98.4368C235.657 98.9018 234.326 99.2538 232.956 99.4928V104.472H224.776V99.4898C223.406 99.2498 222.075 98.8978 220.798 98.4318L218.313 102.737L211.229 98.6468L213.72 94.3328C212.668 93.4488 211.695 92.4758 210.812 91.4238L206.5 93.9138L202.41 86.8298L206.717 84.3438C206.252 83.0668 205.9 81.7358 205.661 80.3658H200.683V80.3678ZM228.874 91.5248C237.291 91.5248 244.115 84.7008 244.115 76.2838C244.115 67.8668 237.291 61.0428 228.874 61.0428C220.457 61.0428 213.633 67.8668 213.633 76.2838C213.633 84.7008 220.456 91.5248 228.874 91.5248Z" fill="#CCCCCC"/>
</svg>
